<svg xmlns="http://www.w3.org/2000/svg" xmlns:xlink="http://www.w3.org/1999/xlink" version="1.1" width="544.1101pt" height="200.942pt" viewBox="0 0 544.1101 200.942">
<g id="layer_1" data-name="">
<path transform="matrix(1,0,0,-1,1,199.942)" d="M179.928 98.7741C170.1666 62.5303 179.5374 36.3342 208.0406 20.1864 190.254 42.9386 186.6107 71.0955 197.1111 104.6574 125.708 141.1676 90.0065 159.4227 90.0065 159.4227 92.6773 141.971 101.702 130.1635 117.0805 124.0007 158.9788 107.1828 179.928 98.7741 179.928 98.7741" fill="#e3000f" fill-rule="evenodd"/>
<path transform="matrix(1,0,0,-1,1,199.942)" d="M167.4201 80.896C167.3042 91.715 167.2461 97.1246 167.2461 97.1246 60.2172 135.1689 6.7028 154.1911 6.7028 154.1911 11.0469 129.5972 24.9585 114.8176 48.4381 109.8524 127.7595 90.5482 167.4201 80.896 167.4201 80.896" fill="#e3000f" fill-rule="evenodd"/>
<path transform="matrix(1,0,0,-1,1,199.942)" d="M29.7522 107.6797C121.4294 87.98 167.2679 78.1302 167.2679 78.1302 167.2807 68.0281 167.2872 62.977 167.2872 62.977 107.0589 67.2877 76.9448 69.4431 76.9448 69.4431 57.4594 72.7186 41.7285 85.464 29.7522 107.6797" fill="#e3000f" fill-rule="evenodd"/>
<path transform="matrix(1,0,0,-1,1,199.942)" d="M172.3079 45.6282C169.6124 49.9609 168.298 54.5148 168.3649 59.2897 107.1513 63.7971 76.5445 66.0506 76.5445 66.0506 89.6992 50.8632 99.8918 43.4733 107.1221 43.8806 150.5792 45.0454 172.3079 45.6282 172.3079 45.6282" fill="#e3000f" fill-rule="evenodd"/>
<path transform="matrix(1,0,0,-1,1,199.942)" d="M182.054 32.7138C178.6827 36.6052 176.3014 39.8665 174.9098 42.4973 144.7549 40.0309 129.6774 38.7978 129.6774 38.7978 129.9813 28.6447 141.9922 24.5693 165.7103 26.5711 173.2893 27.4411 178.7369 29.4885 182.054 32.7138" fill="#e3000f" fill-rule="evenodd"/>
<path transform="matrix(1,0,0,-1,1,199.942)" d="M166.1621 23.1316C174.7168 24.8315 180.8127 27.0213 184.4501 29.7009 191.0801 23.5026 194.3952 20.4038 194.3952 20.4038 183.7528 11.3426 174.3415 12.2519 166.1621 23.1316" fill="#e3000f" fill-rule="evenodd"/>
<path transform="matrix(1,0,0,-1,1,199.942)" d="M22.8382 154.582C6.6186 161.9952-.9618 176.7818 .0975 198.942 55.0806 174.2905 82.5721 161.9646 82.5721 161.9646 84.039 147.5651 88.7491 136.2087 96.7022 127.8955 47.4596 145.6863 22.8382 154.582 22.8382 154.582" fill="#e3000f" fill-rule="evenodd"/>
<path transform="matrix(1,0,0,-1,1,199.942)" d="M270.1454 146.1764C310.5111 146.1764 343.2336 113.4539 343.2336 73.0882 343.2336 32.7226 310.5111 0 270.1454 0 229.7801 0 197.0572 32.7226 197.0572 73.0882 197.0572 113.4539 229.7801 146.1764 270.1454 146.1764" fill="#e3000f" fill-rule="evenodd"/>
<path transform="matrix(1,0,0,-1,1,199.942)" d="M362.1821 98.7741C371.9435 62.5303 362.5727 36.3342 334.0695 20.1864 351.8561 42.9386 355.4994 71.0955 344.9991 104.6574 416.4021 141.1676 452.1036 159.4227 452.1036 159.4227 449.4328 141.971 440.4081 130.1635 425.0296 124.0007 383.1313 107.1828 362.1821 98.7741 362.1821 98.7741" fill="#e3000f" fill-rule="evenodd"/>
<path transform="matrix(1,0,0,-1,1,199.942)" d="M374.69 80.896C374.8059 91.715 374.864 97.1246 374.864 97.1246 481.8929 135.1689 535.4073 154.1911 535.4073 154.1911 531.0632 129.5972 517.1516 114.8176 493.672 109.8524 414.3506 90.5482 374.69 80.896 374.69 80.896" fill="#e3000f" fill-rule="evenodd"/>
<path transform="matrix(1,0,0,-1,1,199.942)" d="M512.358 107.6797C420.6807 87.98 374.8422 78.1302 374.8422 78.1302 374.8294 68.0281 374.8229 62.977 374.8229 62.977 435.0512 67.2877 465.1654 69.4431 465.1654 69.4431 484.6507 72.7186 500.3816 85.464 512.358 107.6797" fill="#e3000f" fill-rule="evenodd"/>
<path transform="matrix(1,0,0,-1,1,199.942)" d="M369.8022 45.6282C372.4977 49.9609 373.8121 54.5148 373.7452 59.2897 434.9588 63.7971 465.5656 66.0506 465.5656 66.0506 452.4109 50.8632 442.2183 43.4733 434.988 43.8806 391.5309 45.0454 369.8022 45.6282 369.8022 45.6282" fill="#e3000f" fill-rule="evenodd"/>
<path transform="matrix(1,0,0,-1,1,199.942)" d="M360.0561 32.7138C363.4274 36.6052 365.8088 39.8665 367.2003 42.4973 397.3552 40.0309 412.4327 38.7978 412.4327 38.7978 412.1289 28.6447 400.1179 24.5693 376.3998 26.5711 368.8209 27.4411 363.3732 29.4885 360.0561 32.7138" fill="#e3000f" fill-rule="evenodd"/>
<path transform="matrix(1,0,0,-1,1,199.942)" d="M375.948 23.1316C367.3933 24.8315 361.2974 27.0213 357.66 29.7009 351.03 23.5026 347.7149 20.4038 347.7149 20.4038 358.3573 11.3426 367.7686 12.2519 375.948 23.1316" fill="#e3000f" fill-rule="evenodd"/>
<path transform="matrix(1,0,0,-1,1,199.942)" d="M519.2719 154.582C535.4915 161.9952 543.0719 176.7818 542.0126 198.942 487.0295 174.2905 459.538 161.9646 459.538 161.9646 458.0711 147.5651 453.361 136.2087 445.4079 127.8955 494.6505 145.6863 519.2719 154.582 519.2719 154.582" fill="#e3000f" fill-rule="evenodd"/>
<path transform="matrix(1,0,0,-1,1,199.942)" d="M223.1943 72.6446H215.3968V94.9397H207.286L209.0492 101.6793H229.5811L231.3054 94.9397H223.1943ZM248.154 101.6793H252.8235L254.5863 95.1358H248.6699C245.8225 95.1358 243.576 94.6134 241.9305 93.5685 240.2847 92.5299 239.0309 90.8453 238.1624 88.5138H245.5679V93.9603H253.4176V72.6446H245.5679V81.8135H237.3851C237.3851 81.0366 237.4569 80.2919 237.594 79.5866 237.7312 78.8749 237.9535 78.065 238.2406 77.144 238.737 75.6553 239.4422 74.1597 240.3567 72.6511L234.1655 68.5763C232.6243 70.9532 231.4621 73.3499 230.6784 75.7791 229.8949 78.2087 229.5028 80.625 229.5028 83.0347 229.5028 85.7906 229.9601 88.3831 230.8808 90.8192 231.8014 93.255 233.1077 95.3186 234.8056 97.0163 236.3729 98.5839 238.2602 99.7529 240.474 100.5233 242.6879 101.2941 245.2479 101.6793 248.154 101.6793ZM271.9446 72.6446H264.147V94.9397H256.0363L257.7997 101.6793H278.3316L280.0556 94.9397H271.9446ZM296.9045 101.6793H301.5737L303.3369 95.1358H297.4201C294.573 95.1358 292.3262 94.6134 290.6807 93.5685 289.0349 92.5299 287.7812 90.8453 286.9126 88.5138H294.3181V93.9603H302.1678V72.6446H294.3181V81.8135H286.1354C286.1354 81.0366 286.2071 80.2919 286.3443 79.5866 286.4818 78.8749 286.7037 78.065 286.9909 77.144 287.4872 75.6553 288.1925 74.1597 289.1069 72.6511L282.9161 68.5763C281.3749 70.9532 280.2124 73.3499 279.4286 75.7791 278.6451 78.2087 278.2531 80.625 278.2531 83.0347 278.2531 85.7906 278.7103 88.3831 279.631 90.8192 280.552 93.255 281.8579 95.3186 283.5561 97.0163 285.1234 98.5839 287.0104 99.7529 289.2243 100.5233 291.4381 101.2941 293.9981 101.6793 296.9045 101.6793ZM307.6078 93.9603H315.4054V72.6446H307.6078ZM324.6066 85.0983C325.8933 82.6886 327.2321 80.4682 328.623 78.4437 330.014 76.4127 331.4704 74.5974 333.0051 72.991L326.8009 68.3802C324.6327 70.8163 322.6215 73.5197 320.7603 76.4909 318.945 79.41 317.2141 82.7147 315.5553 86.398 317.9064 87.9131 319.6176 89.2389 320.6883 90.362 321.766 91.4919 322.3015 92.4908 322.3015 93.3593 322.3015 93.9081 322.1056 94.339 321.7071 94.659 321.3153 94.9791 320.7603 95.1358 320.042 95.1358H306.2364L307.9996 101.6793H321.6027C324.5088 101.6793 326.7683 101.033 328.3812 99.7398 329.9944 98.4467 330.8043 96.6379 330.8043 94.3194 330.8043 92.5169 330.2949 90.8649 329.2826 89.3563 328.2701 87.8411 326.7094 86.4241 324.6066 85.0983ZM238.2341 43.2377C238.2341 41.8598 238.3713 40.4949 238.6457 39.1368 238.9198 37.7785 239.3314 36.4853 239.8799 35.2443 240.3763 34.1016 240.9511 33.2135 241.5909 32.58 242.2372 31.9465 242.8968 31.6329 243.5695 31.6329 244.0202 31.6329 244.4641 31.7769 244.9083 32.0641 245.359 32.3512 245.7442 32.7433 246.0776 33.2396 246.9328 34.5651 247.612 36.0933 248.1083 37.8176 248.6047 39.5478 248.8527 41.2852 248.8527 43.0288 248.8527 44.9816 248.4609 46.3462 247.684 47.1365 246.9067 47.9268 245.5353 48.325 243.5695 48.325 241.6105 48.325 240.226 47.9398 239.4295 47.1691 238.6327 46.3986 238.2341 45.0859 238.2341 43.2377ZM243.5695 55.0253C248.0888 55.0253 251.4129 54.1111 253.5418 52.289 255.6709 50.4672 256.735 47.6002 256.735 43.7014 256.735 40.9847 256.3106 38.3335 255.4551 35.7602 254.5997 33.1809 253.4179 30.9736 251.9158 29.1189 250.7794 27.7342 249.5188 26.6766 248.1344 25.9645 246.75 25.2527 245.2283 24.8936 243.5695 24.8936 241.8914 24.8936 240.3502 25.2397 238.9592 25.9384 237.568 26.6306 236.3077 27.6951 235.1716 29.1189 233.6695 30.9997 232.4871 33.2135 231.6319 35.78 230.7764 38.34 230.3518 40.9847 230.3518 43.7014 230.3518 47.5872 231.423 50.4473 233.5584 52.2825 235.694 54.1111 239.0309 55.0253 243.5695 55.0253ZM273.7338 25.638H265.9365V47.9333H257.8258L259.5889 54.6727H280.1208L281.8449 47.9333H273.7338ZM290.8111 43.2377C290.8111 41.8598 290.9486 40.4949 291.2227 39.1368 291.4968 37.7785 291.9084 36.4853 292.4572 35.2443 292.9533 34.1016 293.5281 33.2135 294.1679 32.58 294.8145 31.9465 295.4741 31.6329 296.1468 31.6329 296.5972 31.6329 297.0414 31.7769 297.4856 32.0641 297.936 32.3512 298.3215 32.7433 298.6546 33.2396 299.5098 34.5651 300.189 36.0933 300.6856 37.8176 301.1817 39.5478 301.43 41.2852 301.43 43.0288 301.43 44.9816 301.038 46.3462 300.261 47.1365 299.4837 47.9268 298.1123 48.325 296.1468 48.325 294.1875 48.325 292.803 47.9398 292.0065 47.1691 291.2097 46.3986 290.8111 45.0859 290.8111 43.2377ZM296.1468 55.0253C300.666 55.0253 303.99 54.1111 306.1188 52.289 308.2479 50.4672 309.3123 47.6002 309.3123 43.7014 309.3123 40.9847 308.8879 38.3335 308.0324 35.7602 307.1769 33.1809 305.9949 30.9736 304.4928 29.1189 303.3564 27.7342 302.0961 26.6766 300.7117 25.9645 299.3272 25.2527 297.8056 24.8936 296.1468 24.8936 294.4684 24.8936 292.9272 25.2397 291.5362 25.9384 290.1453 26.6306 288.885 27.6951 287.7486 29.1189 286.2465 30.9997 285.0644 33.2135 284.2089 35.78 283.3534 38.34 282.9291 40.9847 282.9291 43.7014 282.9291 47.5872 284 50.4473 286.1354 52.2825 288.271 54.1111 291.6079 55.0253 296.1468 55.0253" fill="#ffffff"/>
</g>
</svg>
