<?xml version="1.0" encoding="UTF-8"?>
<svg xmlns="http://www.w3.org/2000/svg" xmlns:xlink="http://www.w3.org/1999/xlink" width="32px" height="16px" viewBox="0 0 32 16" version="1.1">
<g id="surface1">
<path style=" stroke:none;fill-rule:evenodd;fill:rgb(89.019608%,0%,5.882353%);fill-opacity:1;" d="M 10.644531 8.0625 C 10.070312 10.949219 10.621094 13.035156 12.296875 14.324219 C 11.25 12.511719 11.035156 10.265625 11.652344 7.59375 C 7.453125 4.683594 5.351562 3.230469 5.351562 3.230469 C 5.511719 4.621094 6.042969 5.558594 6.945312 6.050781 C 9.410156 7.390625 10.644531 8.0625 10.644531 8.0625 "/>
<path style=" stroke:none;fill-rule:evenodd;fill:rgb(89.019608%,0%,5.882353%);fill-opacity:1;" d="M 9.90625 9.484375 C 9.898438 8.625 9.898438 8.191406 9.898438 8.191406 C 3.601562 5.160156 0.453125 3.644531 0.453125 3.644531 C 0.707031 5.605469 1.527344 6.78125 2.90625 7.179688 C 7.574219 8.714844 9.90625 9.484375 9.90625 9.484375 "/>
<path style=" stroke:none;fill-rule:evenodd;fill:rgb(89.019608%,0%,5.882353%);fill-opacity:1;" d="M 1.808594 7.351562 C 7.203125 8.921875 9.898438 9.707031 9.898438 9.707031 C 9.898438 10.511719 9.898438 10.914062 9.898438 10.914062 C 6.355469 10.570312 4.585938 10.398438 4.585938 10.398438 C 3.4375 10.136719 2.511719 9.121094 1.808594 7.351562 "/>
<path style=" stroke:none;fill-rule:evenodd;fill:rgb(89.019608%,0%,5.882353%);fill-opacity:1;" d="M 10.195312 12.296875 C 10.035156 11.949219 9.957031 11.585938 9.960938 11.207031 C 6.363281 10.847656 4.5625 10.667969 4.5625 10.667969 C 5.335938 11.878906 5.933594 12.46875 6.359375 12.433594 C 8.917969 12.34375 10.195312 12.296875 10.195312 12.296875 "/>
<path style=" stroke:none;fill-rule:evenodd;fill:rgb(89.019608%,0%,5.882353%);fill-opacity:1;" d="M 10.769531 13.324219 C 10.570312 13.015625 10.429688 12.753906 10.347656 12.546875 C 8.574219 12.742188 7.6875 12.839844 7.6875 12.839844 C 7.703125 13.648438 8.410156 13.972656 9.804688 13.8125 C 10.253906 13.746094 10.574219 13.582031 10.769531 13.324219 "/>
<path style=" stroke:none;fill-rule:evenodd;fill:rgb(89.019608%,0%,5.882353%);fill-opacity:1;" d="M 9.832031 14.089844 C 10.335938 13.953125 10.695312 13.777344 10.910156 13.566406 C 11.300781 14.058594 11.492188 14.304688 11.492188 14.304688 C 10.867188 15.027344 10.3125 14.957031 9.832031 14.089844 "/>
<path style=" stroke:none;fill-rule:evenodd;fill:rgb(89.019608%,0%,5.882353%);fill-opacity:1;" d="M 1.402344 3.613281 C 0.449219 3.023438 0.00390625 1.84375 0.0664062 0.078125 C 3.300781 2.042969 4.914062 3.027344 4.914062 3.027344 C 5.003906 4.171875 5.28125 5.078125 5.746094 5.742188 C 2.851562 4.324219 1.402344 3.613281 1.402344 3.613281 "/>
<path style=" stroke:none;fill-rule:evenodd;fill:rgb(89.019608%,0%,5.882353%);fill-opacity:1;" d="M 15.949219 4.285156 C 18.324219 4.285156 20.25 6.890625 20.25 10.109375 C 20.25 13.324219 18.324219 15.929688 15.949219 15.929688 C 13.574219 15.929688 11.652344 13.324219 11.652344 10.109375 C 11.652344 6.890625 13.574219 4.285156 15.949219 4.285156 "/>
<path style=" stroke:none;fill-rule:evenodd;fill:rgb(89.019608%,0%,5.882353%);fill-opacity:1;" d="M 21.363281 8.0625 C 21.9375 10.949219 21.386719 13.035156 19.710938 14.324219 C 20.757812 12.511719 20.96875 10.265625 20.351562 7.59375 C 24.554688 4.683594 26.652344 3.230469 26.652344 3.230469 C 26.496094 4.621094 25.964844 5.558594 25.0625 6.050781 C 22.597656 7.390625 21.363281 8.0625 21.363281 8.0625 "/>
<path style=" stroke:none;fill-rule:evenodd;fill:rgb(89.019608%,0%,5.882353%);fill-opacity:1;" d="M 22.097656 9.484375 C 22.105469 8.625 22.109375 8.191406 22.109375 8.191406 C 28.40625 5.160156 31.554688 3.644531 31.554688 3.644531 C 31.296875 5.605469 30.480469 6.78125 29.097656 7.179688 C 24.433594 8.714844 22.097656 9.484375 22.097656 9.484375 "/>
<path style=" stroke:none;fill-rule:evenodd;fill:rgb(89.019608%,0%,5.882353%);fill-opacity:1;" d="M 30.199219 7.351562 C 24.804688 8.921875 22.109375 9.707031 22.109375 9.707031 C 22.109375 10.511719 22.105469 10.914062 22.105469 10.914062 C 25.648438 10.570312 27.421875 10.398438 27.421875 10.398438 C 28.566406 10.136719 29.492188 9.121094 30.199219 7.351562 "/>
<path style=" stroke:none;fill-rule:evenodd;fill:rgb(89.019608%,0%,5.882353%);fill-opacity:1;" d="M 21.8125 12.296875 C 21.96875 11.949219 22.046875 11.585938 22.042969 11.207031 C 25.644531 10.847656 27.445312 10.667969 27.445312 10.667969 C 26.671875 11.878906 26.070312 12.46875 25.644531 12.433594 C 23.089844 12.34375 21.8125 12.296875 21.8125 12.296875 "/>
<path style=" stroke:none;fill-rule:evenodd;fill:rgb(89.019608%,0%,5.882353%);fill-opacity:1;" d="M 21.238281 13.324219 C 21.4375 13.015625 21.578125 12.753906 21.660156 12.546875 C 23.433594 12.742188 24.320312 12.839844 24.320312 12.839844 C 24.300781 13.648438 23.59375 13.972656 22.199219 13.8125 C 21.753906 13.746094 21.433594 13.582031 21.238281 13.324219 "/>
<path style=" stroke:none;fill-rule:evenodd;fill:rgb(89.019608%,0%,5.882353%);fill-opacity:1;" d="M 22.171875 14.089844 C 21.671875 13.953125 21.3125 13.777344 21.097656 13.566406 C 20.707031 14.058594 20.511719 14.304688 20.511719 14.304688 C 21.136719 15.027344 21.691406 14.957031 22.171875 14.089844 "/>
<path style=" stroke:none;fill-rule:evenodd;fill:rgb(89.019608%,0%,5.882353%);fill-opacity:1;" d="M 30.605469 3.613281 C 31.558594 3.023438 32.003906 1.84375 31.941406 0.078125 C 28.707031 2.042969 27.089844 3.027344 27.089844 3.027344 C 27.003906 4.171875 26.726562 5.078125 26.257812 5.742188 C 29.15625 4.324219 30.605469 3.613281 30.605469 3.613281 "/>
<path style=" stroke:none;fill-rule:nonzero;fill:rgb(100%,100%,100%);fill-opacity:1;" d="M 13.1875 10.144531 L 12.730469 10.144531 L 12.730469 8.367188 L 12.253906 8.367188 L 12.355469 7.828125 L 13.5625 7.828125 L 13.664062 8.367188 L 13.1875 8.367188 Z M 14.65625 7.828125 L 14.929688 7.828125 L 15.035156 8.351562 L 14.6875 8.351562 C 14.519531 8.351562 14.386719 8.394531 14.289062 8.476562 C 14.191406 8.558594 14.121094 8.691406 14.070312 8.878906 L 14.503906 8.878906 L 14.503906 8.445312 L 14.964844 8.445312 L 14.964844 10.144531 L 14.503906 10.144531 L 14.503906 9.414062 L 14.023438 9.414062 C 14.023438 9.472656 14.027344 9.535156 14.035156 9.589844 C 14.042969 9.648438 14.054688 9.710938 14.074219 9.785156 C 14.101562 9.902344 14.144531 10.023438 14.199219 10.144531 L 13.832031 10.46875 C 13.742188 10.277344 13.675781 10.085938 13.628906 9.894531 C 13.582031 9.699219 13.558594 9.507812 13.558594 9.316406 C 13.558594 9.097656 13.585938 8.890625 13.640625 8.695312 C 13.695312 8.5 13.769531 8.335938 13.871094 8.203125 C 13.964844 8.078125 14.074219 7.984375 14.203125 7.921875 C 14.335938 7.859375 14.484375 7.828125 14.65625 7.828125 Z M 16.054688 10.144531 L 15.597656 10.144531 L 15.597656 8.367188 L 15.121094 8.367188 L 15.222656 7.828125 L 16.429688 7.828125 L 16.53125 8.367188 L 16.054688 8.367188 Z M 17.523438 7.828125 L 17.796875 7.828125 L 17.902344 8.351562 L 17.554688 8.351562 C 17.386719 8.351562 17.253906 8.394531 17.15625 8.476562 C 17.0625 8.558594 16.988281 8.691406 16.9375 8.878906 L 17.371094 8.878906 L 17.371094 8.445312 L 17.832031 8.445312 L 17.832031 10.144531 L 17.371094 10.144531 L 17.371094 9.414062 L 16.890625 9.414062 C 16.890625 9.472656 16.894531 9.535156 16.902344 9.589844 C 16.910156 9.648438 16.921875 9.710938 16.941406 9.785156 C 16.96875 9.902344 17.011719 10.023438 17.066406 10.144531 L 16.699219 10.46875 C 16.609375 10.277344 16.542969 10.085938 16.496094 9.894531 C 16.449219 9.699219 16.425781 9.507812 16.425781 9.316406 C 16.425781 9.097656 16.453125 8.890625 16.507812 8.695312 C 16.5625 8.5 16.640625 8.335938 16.738281 8.203125 C 16.832031 8.078125 16.941406 7.984375 17.070312 7.921875 C 17.203125 7.859375 17.351562 7.828125 17.523438 7.828125 Z M 18.152344 8.445312 L 18.613281 8.445312 L 18.613281 10.144531 L 18.152344 10.144531 Z M 19.152344 9.152344 C 19.230469 9.34375 19.308594 9.519531 19.390625 9.679688 C 19.472656 9.84375 19.558594 9.988281 19.648438 10.117188 L 19.28125 10.484375 C 19.15625 10.289062 19.035156 10.074219 18.925781 9.835938 C 18.820312 9.605469 18.71875 9.339844 18.621094 9.046875 C 18.757812 8.925781 18.859375 8.820312 18.921875 8.730469 C 18.984375 8.640625 19.019531 8.5625 19.019531 8.492188 C 19.019531 8.449219 19.007812 8.414062 18.984375 8.390625 C 18.960938 8.363281 18.925781 8.351562 18.886719 8.351562 L 18.074219 8.351562 L 18.175781 7.828125 L 18.976562 7.828125 C 19.148438 7.828125 19.28125 7.882812 19.375 7.984375 C 19.46875 8.085938 19.519531 8.230469 19.519531 8.417969 C 19.519531 8.558594 19.488281 8.691406 19.429688 8.8125 C 19.367188 8.933594 19.277344 9.046875 19.152344 9.152344 Z M 14.074219 12.488281 C 14.074219 12.597656 14.082031 12.703125 14.097656 12.8125 C 14.113281 12.921875 14.136719 13.023438 14.167969 13.125 C 14.199219 13.214844 14.230469 13.285156 14.269531 13.335938 C 14.308594 13.386719 14.347656 13.410156 14.386719 13.410156 C 14.414062 13.410156 14.4375 13.398438 14.464844 13.375 C 14.492188 13.355469 14.515625 13.324219 14.535156 13.28125 C 14.585938 13.175781 14.625 13.054688 14.652344 12.917969 C 14.683594 12.78125 14.695312 12.640625 14.695312 12.503906 C 14.695312 12.347656 14.675781 12.238281 14.628906 12.175781 C 14.582031 12.113281 14.503906 12.082031 14.386719 12.082031 C 14.269531 12.082031 14.191406 12.113281 14.144531 12.171875 C 14.097656 12.234375 14.074219 12.339844 14.074219 12.488281 Z M 14.386719 11.546875 C 14.652344 11.546875 14.847656 11.621094 14.972656 11.765625 C 15.097656 11.910156 15.160156 12.140625 15.160156 12.449219 C 15.160156 12.664062 15.136719 12.878906 15.085938 13.082031 C 15.035156 13.289062 14.964844 13.464844 14.878906 13.613281 C 14.8125 13.722656 14.738281 13.804688 14.65625 13.863281 C 14.574219 13.917969 14.484375 13.949219 14.386719 13.949219 C 14.289062 13.949219 14.195312 13.921875 14.117188 13.863281 C 14.035156 13.808594 13.960938 13.726562 13.890625 13.613281 C 13.804688 13.460938 13.734375 13.285156 13.683594 13.082031 C 13.632812 12.875 13.609375 12.664062 13.609375 12.449219 C 13.609375 12.140625 13.671875 11.910156 13.796875 11.765625 C 13.921875 11.621094 14.121094 11.546875 14.386719 11.546875 Z M 16.160156 13.890625 L 15.703125 13.890625 L 15.703125 12.113281 L 15.226562 12.113281 L 15.328125 11.574219 L 16.535156 11.574219 L 16.636719 12.113281 L 16.160156 12.113281 Z M 17.164062 12.488281 C 17.164062 12.597656 17.171875 12.703125 17.191406 12.8125 C 17.207031 12.921875 17.230469 13.023438 17.261719 13.125 C 17.292969 13.214844 17.324219 13.285156 17.363281 13.335938 C 17.402344 13.386719 17.441406 13.410156 17.480469 13.410156 C 17.503906 13.410156 17.53125 13.398438 17.558594 13.375 C 17.585938 13.355469 17.605469 13.324219 17.625 13.28125 C 17.675781 13.175781 17.71875 13.054688 17.746094 12.917969 C 17.777344 12.78125 17.789062 12.640625 17.789062 12.503906 C 17.789062 12.347656 17.765625 12.238281 17.722656 12.175781 C 17.675781 12.113281 17.59375 12.082031 17.480469 12.082031 C 17.363281 12.082031 17.28125 12.113281 17.234375 12.171875 C 17.1875 12.234375 17.164062 12.339844 17.164062 12.488281 Z M 17.480469 11.546875 C 17.746094 11.546875 17.941406 11.621094 18.066406 11.765625 C 18.191406 11.910156 18.253906 12.140625 18.253906 12.449219 C 18.253906 12.664062 18.230469 12.878906 18.179688 13.082031 C 18.128906 13.289062 18.058594 13.464844 17.96875 13.613281 C 17.902344 13.722656 17.828125 13.804688 17.746094 13.863281 C 17.667969 13.917969 17.578125 13.949219 17.480469 13.949219 C 17.378906 13.949219 17.289062 13.921875 17.207031 13.863281 C 17.125 13.808594 17.050781 13.726562 16.984375 13.613281 C 16.898438 13.460938 16.828125 13.285156 16.777344 13.082031 C 16.726562 12.875 16.703125 12.664062 16.703125 12.449219 C 16.703125 12.140625 16.765625 11.910156 16.890625 11.765625 C 17.015625 11.621094 17.210938 11.546875 17.480469 11.546875 "/>
</g>
</svg>
