<svg width="2000" height="2001" viewBox="0 0 2000 2001" fill="none" xmlns="http://www.w3.org/2000/svg">
<rect width="2000" height="2001" fill="black"/>
<g clip-path="url(#clip0_11_607)">
<rect x="0.5" y="1.5" width="99" height="99" stroke="#C5C5C5" stroke-opacity="0.51"/>
<rect x="100.5" y="1.5" width="99" height="99" stroke="#C5C5C5" stroke-opacity="0.51"/>
<rect x="200.5" y="1.5" width="99" height="99" stroke="#C5C5C5" stroke-opacity="0.51"/>
<rect x="300.5" y="1.5" width="99" height="99" stroke="#C5C5C5" stroke-opacity="0.51"/>
<rect x="400.5" y="1.5" width="99" height="99" stroke="#C5C5C5" stroke-opacity="0.51"/>
<rect x="500.5" y="1.5" width="99" height="99" stroke="#C5C5C5" stroke-opacity="0.51"/>
<rect x="600.5" y="1.5" width="99" height="99" stroke="#C5C5C5" stroke-opacity="0.51"/>
<rect x="700.5" y="1.5" width="99" height="99" stroke="#C5C5C5" stroke-opacity="0.51"/>
<rect x="800.5" y="1.5" width="99" height="99" stroke="#C5C5C5" stroke-opacity="0.51"/>
<rect x="900.5" y="1.5" width="99" height="99" stroke="#C5C5C5" stroke-opacity="0.51"/>
<rect x="1000.5" y="1.5" width="99" height="99" stroke="#C5C5C5" stroke-opacity="0.51"/>
<rect x="1100.5" y="1.5" width="99" height="99" stroke="#C5C5C5" stroke-opacity="0.51"/>
<rect x="1200.5" y="1.5" width="99" height="99" stroke="#C5C5C5" stroke-opacity="0.51"/>
<rect x="1300.5" y="1.5" width="99" height="99" stroke="#C5C5C5" stroke-opacity="0.51"/>
<rect x="1400.5" y="1.5" width="99" height="99" stroke="#C5C5C5" stroke-opacity="0.51"/>
<rect x="1500.5" y="1.5" width="99" height="99" stroke="#C5C5C5" stroke-opacity="0.51"/>
<rect x="1600.5" y="1.5" width="99" height="99" stroke="#C5C5C5" stroke-opacity="0.51"/>
<rect x="1700.5" y="1.5" width="99" height="99" stroke="#C5C5C5" stroke-opacity="0.51"/>
<rect x="1800.5" y="1.5" width="99" height="99" stroke="#C5C5C5" stroke-opacity="0.51"/>
<rect x="1900.5" y="1.5" width="99" height="99" stroke="#C5C5C5" stroke-opacity="0.51"/>
<rect x="0.5" y="101.5" width="99" height="99" stroke="#C5C5C5" stroke-opacity="0.51"/>
<rect x="100.5" y="101.5" width="99" height="99" stroke="#C5C5C5" stroke-opacity="0.51"/>
<rect x="200.5" y="101.5" width="99" height="99" stroke="#C5C5C5" stroke-opacity="0.51"/>
<rect x="300.5" y="101.5" width="99" height="99" stroke="#C5C5C5" stroke-opacity="0.51"/>
<rect x="400.5" y="101.5" width="99" height="99" stroke="#C5C5C5" stroke-opacity="0.51"/>
<rect x="500.5" y="101.5" width="99" height="99" stroke="#C5C5C5" stroke-opacity="0.51"/>
<rect x="600.5" y="101.5" width="99" height="99" stroke="#C5C5C5" stroke-opacity="0.51"/>
<rect x="700.5" y="101.5" width="99" height="99" stroke="#C5C5C5" stroke-opacity="0.51"/>
<rect x="800.5" y="101.5" width="99" height="99" stroke="#C5C5C5" stroke-opacity="0.51"/>
<rect x="900.5" y="101.5" width="99" height="99" stroke="#C5C5C5" stroke-opacity="0.51"/>
<rect x="1000.5" y="101.5" width="99" height="99" stroke="#C5C5C5" stroke-opacity="0.51"/>
<rect x="1100.5" y="101.5" width="99" height="99" stroke="#C5C5C5" stroke-opacity="0.51"/>
<rect x="1200.5" y="101.5" width="99" height="99" stroke="#C5C5C5" stroke-opacity="0.51"/>
<rect x="1300.5" y="101.5" width="99" height="99" stroke="#C5C5C5" stroke-opacity="0.51"/>
<rect x="1400.5" y="101.5" width="99" height="99" stroke="#C5C5C5" stroke-opacity="0.51"/>
<rect x="1500.5" y="101.5" width="99" height="99" stroke="#C5C5C5" stroke-opacity="0.51"/>
<rect x="1600.5" y="101.5" width="99" height="99" stroke="#C5C5C5" stroke-opacity="0.51"/>
<rect x="1700.5" y="101.5" width="99" height="99" stroke="#C5C5C5" stroke-opacity="0.51"/>
<rect x="1800.5" y="101.5" width="99" height="99" stroke="#C5C5C5" stroke-opacity="0.51"/>
<rect x="1900.5" y="101.5" width="99" height="99" stroke="#C5C5C5" stroke-opacity="0.51"/>
<rect x="0.5" y="201.5" width="99" height="99" stroke="#C5C5C5" stroke-opacity="0.51"/>
<rect x="100.5" y="201.5" width="99" height="99" stroke="#C5C5C5" stroke-opacity="0.51"/>
<rect x="200.5" y="201.5" width="99" height="99" stroke="#C5C5C5" stroke-opacity="0.51"/>
<rect x="300.5" y="201.5" width="99" height="99" stroke="#C5C5C5" stroke-opacity="0.51"/>
<rect x="400.5" y="201.5" width="99" height="99" stroke="#C5C5C5" stroke-opacity="0.51"/>
<rect x="500.5" y="201.5" width="99" height="99" stroke="#C5C5C5" stroke-opacity="0.51"/>
<rect x="600.5" y="201.5" width="99" height="99" stroke="#C5C5C5" stroke-opacity="0.51"/>
<rect x="700.5" y="201.5" width="99" height="99" stroke="#C5C5C5" stroke-opacity="0.51"/>
<rect x="800.5" y="201.5" width="99" height="99" stroke="#C5C5C5" stroke-opacity="0.51"/>
<rect x="900.5" y="201.5" width="99" height="99" stroke="#C5C5C5" stroke-opacity="0.51"/>
<rect x="1000.5" y="201.5" width="99" height="99" stroke="#C5C5C5" stroke-opacity="0.51"/>
<rect x="1100.5" y="201.5" width="99" height="99" stroke="#C5C5C5" stroke-opacity="0.51"/>
<rect x="1200.5" y="201.5" width="99" height="99" stroke="#C5C5C5" stroke-opacity="0.51"/>
<rect x="1300.5" y="201.5" width="99" height="99" stroke="#C5C5C5" stroke-opacity="0.51"/>
<rect x="1400.5" y="201.5" width="99" height="99" stroke="#C5C5C5" stroke-opacity="0.51"/>
<rect x="1500.5" y="201.5" width="99" height="99" stroke="#C5C5C5" stroke-opacity="0.51"/>
<rect x="1600.5" y="201.5" width="99" height="99" stroke="#C5C5C5" stroke-opacity="0.51"/>
<rect x="1700.5" y="201.5" width="99" height="99" stroke="#C5C5C5" stroke-opacity="0.51"/>
<rect x="1800.5" y="201.5" width="99" height="99" stroke="#C5C5C5" stroke-opacity="0.51"/>
<rect x="1900.5" y="201.5" width="99" height="99" stroke="#C5C5C5" stroke-opacity="0.51"/>
<rect x="0.5" y="301.5" width="99" height="99" stroke="#C5C5C5" stroke-opacity="0.51"/>
<rect x="100.5" y="301.5" width="99" height="99" stroke="#C5C5C5" stroke-opacity="0.51"/>
<rect x="200.5" y="301.5" width="99" height="99" stroke="#C5C5C5" stroke-opacity="0.51"/>
<rect x="300.5" y="301.5" width="99" height="99" stroke="#C5C5C5" stroke-opacity="0.51"/>
<rect x="400.5" y="301.5" width="99" height="99" stroke="#C5C5C5" stroke-opacity="0.51"/>
<rect x="500.5" y="301.5" width="99" height="99" stroke="#C5C5C5" stroke-opacity="0.51"/>
<rect x="600.5" y="301.5" width="99" height="99" stroke="#C5C5C5" stroke-opacity="0.51"/>
<rect x="700.5" y="301.5" width="99" height="99" stroke="#C5C5C5" stroke-opacity="0.51"/>
<rect x="800.5" y="301.5" width="99" height="99" stroke="#C5C5C5" stroke-opacity="0.51"/>
<rect x="900.5" y="301.5" width="99" height="99" stroke="#C5C5C5" stroke-opacity="0.51"/>
<rect x="1000.5" y="301.5" width="99" height="99" stroke="#C5C5C5" stroke-opacity="0.51"/>
<rect x="1100.5" y="301.5" width="99" height="99" stroke="#C5C5C5" stroke-opacity="0.51"/>
<rect x="1200.5" y="301.5" width="99" height="99" stroke="#C5C5C5" stroke-opacity="0.51"/>
<rect x="1300.5" y="301.5" width="99" height="99" stroke="#C5C5C5" stroke-opacity="0.51"/>
<rect x="1400.5" y="301.5" width="99" height="99" stroke="#C5C5C5" stroke-opacity="0.51"/>
<rect x="1500.5" y="301.5" width="99" height="99" stroke="#C5C5C5" stroke-opacity="0.51"/>
<rect x="1600.5" y="301.5" width="99" height="99" stroke="#C5C5C5" stroke-opacity="0.51"/>
<rect x="1700.5" y="301.5" width="99" height="99" stroke="#C5C5C5" stroke-opacity="0.51"/>
<rect x="1800.5" y="301.5" width="99" height="99" stroke="#C5C5C5" stroke-opacity="0.51"/>
<rect x="1900.5" y="301.5" width="99" height="99" stroke="#C5C5C5" stroke-opacity="0.51"/>
<rect x="0.5" y="401.5" width="99" height="99" stroke="#C5C5C5" stroke-opacity="0.51"/>
<rect x="100.5" y="401.5" width="99" height="99" stroke="#C5C5C5" stroke-opacity="0.51"/>
<rect x="200.5" y="401.5" width="99" height="99" stroke="#C5C5C5" stroke-opacity="0.51"/>
<rect x="300.5" y="401.5" width="99" height="99" stroke="#C5C5C5" stroke-opacity="0.51"/>
<rect x="400.5" y="401.5" width="99" height="99" stroke="#C5C5C5" stroke-opacity="0.51"/>
<rect x="500.5" y="401.5" width="99" height="99" stroke="#C5C5C5" stroke-opacity="0.51"/>
<rect x="600.5" y="401.5" width="99" height="99" stroke="#C5C5C5" stroke-opacity="0.51"/>
<rect x="700.5" y="401.5" width="99" height="99" stroke="#C5C5C5" stroke-opacity="0.51"/>
<rect x="800.5" y="401.5" width="99" height="99" stroke="#C5C5C5" stroke-opacity="0.51"/>
<rect x="900.5" y="401.5" width="99" height="99" stroke="#C5C5C5" stroke-opacity="0.51"/>
<rect x="1000.5" y="401.5" width="99" height="99" stroke="#C5C5C5" stroke-opacity="0.51"/>
<rect x="1100.5" y="401.5" width="99" height="99" stroke="#C5C5C5" stroke-opacity="0.51"/>
<rect x="1200.5" y="401.5" width="99" height="99" stroke="#C5C5C5" stroke-opacity="0.51"/>
<rect x="1300.5" y="401.5" width="99" height="99" stroke="#C5C5C5" stroke-opacity="0.51"/>
<rect x="1400.5" y="401.5" width="99" height="99" stroke="#C5C5C5" stroke-opacity="0.51"/>
<rect x="1500.5" y="401.5" width="99" height="99" stroke="#C5C5C5" stroke-opacity="0.51"/>
<rect x="1600.5" y="401.5" width="99" height="99" stroke="#C5C5C5" stroke-opacity="0.51"/>
<rect x="1700.5" y="401.5" width="99" height="99" stroke="#C5C5C5" stroke-opacity="0.51"/>
<rect x="1800.5" y="401.5" width="99" height="99" stroke="#C5C5C5" stroke-opacity="0.51"/>
<rect x="1900.5" y="401.5" width="99" height="99" stroke="#C5C5C5" stroke-opacity="0.51"/>
<rect x="0.5" y="501.5" width="99" height="99" stroke="#C5C5C5" stroke-opacity="0.51"/>
<rect x="100.5" y="501.5" width="99" height="99" stroke="#C5C5C5" stroke-opacity="0.51"/>
<rect x="200.5" y="501.5" width="99" height="99" stroke="#C5C5C5" stroke-opacity="0.51"/>
<rect x="300.5" y="501.5" width="99" height="99" stroke="#C5C5C5" stroke-opacity="0.51"/>
<rect x="400.5" y="501.5" width="99" height="99" stroke="#C5C5C5" stroke-opacity="0.51"/>
<rect x="500.5" y="501.5" width="99" height="99" stroke="#C5C5C5" stroke-opacity="0.51"/>
<rect x="600.5" y="501.5" width="99" height="99" stroke="#C5C5C5" stroke-opacity="0.51"/>
<rect x="700.5" y="501.5" width="99" height="99" stroke="#C5C5C5" stroke-opacity="0.51"/>
<rect x="800.5" y="501.5" width="99" height="99" stroke="#C5C5C5" stroke-opacity="0.51"/>
<rect x="900.5" y="501.5" width="99" height="99" stroke="#C5C5C5" stroke-opacity="0.51"/>
<rect x="1000.5" y="501.5" width="99" height="99" stroke="#C5C5C5" stroke-opacity="0.51"/>
<rect x="1100.5" y="501.5" width="99" height="99" stroke="#C5C5C5" stroke-opacity="0.51"/>
<rect x="1200.5" y="501.5" width="99" height="99" stroke="#C5C5C5" stroke-opacity="0.51"/>
<rect x="1300.5" y="501.5" width="99" height="99" stroke="#C5C5C5" stroke-opacity="0.51"/>
<rect x="1400.5" y="501.5" width="99" height="99" stroke="#C5C5C5" stroke-opacity="0.51"/>
<rect x="1500.5" y="501.5" width="99" height="99" stroke="#C5C5C5" stroke-opacity="0.51"/>
<rect x="1600.5" y="501.5" width="99" height="99" stroke="#C5C5C5" stroke-opacity="0.51"/>
<rect x="1700.5" y="501.5" width="99" height="99" stroke="#C5C5C5" stroke-opacity="0.51"/>
<rect x="1800.5" y="501.5" width="99" height="99" stroke="#C5C5C5" stroke-opacity="0.51"/>
<rect x="1900.5" y="501.5" width="99" height="99" stroke="#C5C5C5" stroke-opacity="0.51"/>
<rect x="0.5" y="601.5" width="99" height="99" stroke="#C5C5C5" stroke-opacity="0.51"/>
<rect x="100.5" y="601.5" width="99" height="99" stroke="#C5C5C5" stroke-opacity="0.51"/>
<rect x="200.5" y="601.5" width="99" height="99" stroke="#C5C5C5" stroke-opacity="0.51"/>
<rect x="300.5" y="601.5" width="99" height="99" stroke="#C5C5C5" stroke-opacity="0.51"/>
<rect x="400.5" y="601.5" width="99" height="99" stroke="#C5C5C5" stroke-opacity="0.51"/>
<rect x="500.5" y="601.5" width="99" height="99" stroke="#C5C5C5" stroke-opacity="0.51"/>
<rect x="600.5" y="601.5" width="99" height="99" stroke="#C5C5C5" stroke-opacity="0.51"/>
<rect x="700.5" y="601.5" width="99" height="99" stroke="#C5C5C5" stroke-opacity="0.51"/>
<rect x="800.5" y="601.5" width="99" height="99" stroke="#C5C5C5" stroke-opacity="0.51"/>
<rect x="900.5" y="601.5" width="99" height="99" stroke="#C5C5C5" stroke-opacity="0.51"/>
<rect x="1000.5" y="601.5" width="99" height="99" stroke="#C5C5C5" stroke-opacity="0.51"/>
<rect x="1100.5" y="601.5" width="99" height="99" stroke="#C5C5C5" stroke-opacity="0.51"/>
<rect x="1200.5" y="601.5" width="99" height="99" stroke="#C5C5C5" stroke-opacity="0.51"/>
<rect x="1300.5" y="601.5" width="99" height="99" stroke="#C5C5C5" stroke-opacity="0.51"/>
<rect x="1400.5" y="601.5" width="99" height="99" stroke="#C5C5C5" stroke-opacity="0.51"/>
<rect x="1500.5" y="601.5" width="99" height="99" stroke="#C5C5C5" stroke-opacity="0.51"/>
<rect x="1600.5" y="601.5" width="99" height="99" stroke="#C5C5C5" stroke-opacity="0.51"/>
<rect x="1700.5" y="601.5" width="99" height="99" stroke="#C5C5C5" stroke-opacity="0.51"/>
<rect x="1800.5" y="601.5" width="99" height="99" stroke="#C5C5C5" stroke-opacity="0.51"/>
<rect x="1900.5" y="601.5" width="99" height="99" stroke="#C5C5C5" stroke-opacity="0.51"/>
<rect x="0.5" y="701.5" width="99" height="99" stroke="#C5C5C5" stroke-opacity="0.51"/>
<rect x="100.5" y="701.5" width="99" height="99" stroke="#C5C5C5" stroke-opacity="0.51"/>
<rect x="200.5" y="701.5" width="99" height="99" stroke="#C5C5C5" stroke-opacity="0.51"/>
<rect x="300.5" y="701.5" width="99" height="99" stroke="#C5C5C5" stroke-opacity="0.51"/>
<rect x="400.5" y="701.5" width="99" height="99" stroke="#C5C5C5" stroke-opacity="0.51"/>
<rect x="500.5" y="701.5" width="99" height="99" stroke="#C5C5C5" stroke-opacity="0.51"/>
<rect x="600.5" y="701.5" width="99" height="99" stroke="#C5C5C5" stroke-opacity="0.51"/>
<rect x="700.5" y="701.5" width="99" height="99" stroke="#C5C5C5" stroke-opacity="0.51"/>
<rect x="800.5" y="701.5" width="99" height="99" stroke="#C5C5C5" stroke-opacity="0.51"/>
<rect x="900.5" y="701.5" width="99" height="99" stroke="#C5C5C5" stroke-opacity="0.51"/>
<rect x="1000.5" y="701.5" width="99" height="99" stroke="#C5C5C5" stroke-opacity="0.51"/>
<rect x="1100.5" y="701.5" width="99" height="99" stroke="#C5C5C5" stroke-opacity="0.51"/>
<rect x="1200.5" y="701.5" width="99" height="99" stroke="#C5C5C5" stroke-opacity="0.51"/>
<rect x="1300.5" y="701.5" width="99" height="99" stroke="#C5C5C5" stroke-opacity="0.51"/>
<rect x="1400.5" y="701.5" width="99" height="99" stroke="#C5C5C5" stroke-opacity="0.51"/>
<rect x="1500.5" y="701.5" width="99" height="99" stroke="#C5C5C5" stroke-opacity="0.51"/>
<rect x="1600.5" y="701.5" width="99" height="99" stroke="#C5C5C5" stroke-opacity="0.51"/>
<rect x="1700.5" y="701.5" width="99" height="99" stroke="#C5C5C5" stroke-opacity="0.51"/>
<rect x="1800.5" y="701.5" width="99" height="99" stroke="#C5C5C5" stroke-opacity="0.51"/>
<rect x="1900.5" y="701.5" width="99" height="99" stroke="#C5C5C5" stroke-opacity="0.51"/>
<rect x="0.5" y="801.5" width="99" height="99" stroke="#C5C5C5" stroke-opacity="0.51"/>
<rect x="100.5" y="801.5" width="99" height="99" stroke="#C5C5C5" stroke-opacity="0.51"/>
<rect x="200.5" y="801.5" width="99" height="99" stroke="#C5C5C5" stroke-opacity="0.51"/>
<rect x="300.5" y="801.5" width="99" height="99" stroke="#C5C5C5" stroke-opacity="0.51"/>
<rect x="400.5" y="801.5" width="99" height="99" stroke="#C5C5C5" stroke-opacity="0.51"/>
<rect x="500.5" y="801.5" width="99" height="99" stroke="#C5C5C5" stroke-opacity="0.51"/>
<rect x="600.5" y="801.5" width="99" height="99" stroke="#C5C5C5" stroke-opacity="0.51"/>
<rect x="700.5" y="801.5" width="99" height="99" stroke="#C5C5C5" stroke-opacity="0.51"/>
<rect x="800.5" y="801.5" width="99" height="99" stroke="#C5C5C5" stroke-opacity="0.51"/>
<rect x="900.5" y="801.5" width="99" height="99" stroke="#C5C5C5" stroke-opacity="0.51"/>
<rect x="1000.5" y="801.5" width="99" height="99" stroke="#C5C5C5" stroke-opacity="0.51"/>
<rect x="1100.5" y="801.5" width="99" height="99" stroke="#C5C5C5" stroke-opacity="0.51"/>
<rect x="1200.5" y="801.5" width="99" height="99" stroke="#C5C5C5" stroke-opacity="0.51"/>
<rect x="1300.5" y="801.5" width="99" height="99" stroke="#C5C5C5" stroke-opacity="0.51"/>
<rect x="1400.5" y="801.5" width="99" height="99" stroke="#C5C5C5" stroke-opacity="0.51"/>
<rect x="1500.5" y="801.5" width="99" height="99" stroke="#C5C5C5" stroke-opacity="0.51"/>
<rect x="1600.5" y="801.5" width="99" height="99" stroke="#C5C5C5" stroke-opacity="0.51"/>
<rect x="1700.5" y="801.5" width="99" height="99" stroke="#C5C5C5" stroke-opacity="0.51"/>
<rect x="1800.5" y="801.5" width="99" height="99" stroke="#C5C5C5" stroke-opacity="0.51"/>
<rect x="1900.5" y="801.5" width="99" height="99" stroke="#C5C5C5" stroke-opacity="0.51"/>
<rect x="0.5" y="901.5" width="99" height="99" stroke="#C5C5C5" stroke-opacity="0.51"/>
<rect x="100.5" y="901.5" width="99" height="99" stroke="#C5C5C5" stroke-opacity="0.51"/>
<rect x="200.5" y="901.5" width="99" height="99" stroke="#C5C5C5" stroke-opacity="0.51"/>
<rect x="300.5" y="901.5" width="99" height="99" stroke="#C5C5C5" stroke-opacity="0.51"/>
<rect x="400.5" y="901.5" width="99" height="99" stroke="#C5C5C5" stroke-opacity="0.51"/>
<rect x="500.5" y="901.5" width="99" height="99" stroke="#C5C5C5" stroke-opacity="0.51"/>
<rect x="600.5" y="901.5" width="99" height="99" stroke="#C5C5C5" stroke-opacity="0.51"/>
<rect x="700.5" y="901.5" width="99" height="99" stroke="#C5C5C5" stroke-opacity="0.51"/>
<rect x="800.5" y="901.5" width="99" height="99" stroke="#C5C5C5" stroke-opacity="0.51"/>
<rect x="900.5" y="901.5" width="99" height="99" stroke="#C5C5C5" stroke-opacity="0.51"/>
<rect x="1000.5" y="901.5" width="99" height="99" stroke="#C5C5C5" stroke-opacity="0.51"/>
<rect x="1100.5" y="901.5" width="99" height="99" stroke="#C5C5C5" stroke-opacity="0.51"/>
<rect x="1200.5" y="901.5" width="99" height="99" stroke="#C5C5C5" stroke-opacity="0.51"/>
<rect x="1300.5" y="901.5" width="99" height="99" stroke="#C5C5C5" stroke-opacity="0.51"/>
<rect x="1400.5" y="901.5" width="99" height="99" stroke="#C5C5C5" stroke-opacity="0.51"/>
<rect x="1500.5" y="901.5" width="99" height="99" stroke="#C5C5C5" stroke-opacity="0.51"/>
<rect x="1600.5" y="901.5" width="99" height="99" stroke="#C5C5C5" stroke-opacity="0.51"/>
<rect x="1700.5" y="901.5" width="99" height="99" stroke="#C5C5C5" stroke-opacity="0.51"/>
<rect x="1800.5" y="901.5" width="99" height="99" stroke="#C5C5C5" stroke-opacity="0.51"/>
<rect x="1900.5" y="901.5" width="99" height="99" stroke="#C5C5C5" stroke-opacity="0.51"/>
<rect x="0.5" y="1001.5" width="99" height="99" stroke="#C5C5C5" stroke-opacity="0.51"/>
<rect x="100.5" y="1001.5" width="99" height="99" stroke="#C5C5C5" stroke-opacity="0.51"/>
<rect x="200.5" y="1001.5" width="99" height="99" stroke="#C5C5C5" stroke-opacity="0.51"/>
<rect x="300.5" y="1001.5" width="99" height="99" stroke="#C5C5C5" stroke-opacity="0.51"/>
<rect x="400.5" y="1001.5" width="99" height="99" stroke="#C5C5C5" stroke-opacity="0.51"/>
<rect x="500.5" y="1001.5" width="99" height="99" stroke="#C5C5C5" stroke-opacity="0.51"/>
<rect x="600.5" y="1001.5" width="99" height="99" stroke="#C5C5C5" stroke-opacity="0.51"/>
<rect x="700.5" y="1001.5" width="99" height="99" stroke="#C5C5C5" stroke-opacity="0.51"/>
<rect x="800.5" y="1001.5" width="99" height="99" stroke="#C5C5C5" stroke-opacity="0.51"/>
<rect x="900.5" y="1001.5" width="99" height="99" stroke="#C5C5C5" stroke-opacity="0.51"/>
<rect x="1000.5" y="1001.5" width="99" height="99" stroke="#C5C5C5" stroke-opacity="0.51"/>
<rect x="1100.5" y="1001.5" width="99" height="99" stroke="#C5C5C5" stroke-opacity="0.51"/>
<rect x="1200.5" y="1001.5" width="99" height="99" stroke="#C5C5C5" stroke-opacity="0.51"/>
<rect x="1300.5" y="1001.5" width="99" height="99" stroke="#C5C5C5" stroke-opacity="0.51"/>
<rect x="1400.5" y="1001.5" width="99" height="99" stroke="#C5C5C5" stroke-opacity="0.51"/>
<rect x="1500.5" y="1001.5" width="99" height="99" stroke="#C5C5C5" stroke-opacity="0.51"/>
<rect x="1600.5" y="1001.5" width="99" height="99" stroke="#C5C5C5" stroke-opacity="0.51"/>
<rect x="1700.5" y="1001.5" width="99" height="99" stroke="#C5C5C5" stroke-opacity="0.51"/>
<rect x="1800.5" y="1001.5" width="99" height="99" stroke="#C5C5C5" stroke-opacity="0.51"/>
<rect x="1900.5" y="1001.5" width="99" height="99" stroke="#C5C5C5" stroke-opacity="0.51"/>
<rect x="0.5" y="1101.5" width="99" height="99" stroke="#C5C5C5" stroke-opacity="0.51"/>
<rect x="100.5" y="1101.5" width="99" height="99" stroke="#C5C5C5" stroke-opacity="0.51"/>
<rect x="200.5" y="1101.5" width="99" height="99" stroke="#C5C5C5" stroke-opacity="0.51"/>
<rect x="300.5" y="1101.5" width="99" height="99" stroke="#C5C5C5" stroke-opacity="0.51"/>
<rect x="400.5" y="1101.5" width="99" height="99" stroke="#C5C5C5" stroke-opacity="0.51"/>
<rect x="500.5" y="1101.5" width="99" height="99" stroke="#C5C5C5" stroke-opacity="0.51"/>
<rect x="600.5" y="1101.5" width="99" height="99" stroke="#C5C5C5" stroke-opacity="0.51"/>
<rect x="700.5" y="1101.5" width="99" height="99" stroke="#C5C5C5" stroke-opacity="0.51"/>
<rect x="800.5" y="1101.5" width="99" height="99" stroke="#C5C5C5" stroke-opacity="0.51"/>
<rect x="900.5" y="1101.5" width="99" height="99" stroke="#C5C5C5" stroke-opacity="0.51"/>
<rect x="1000.5" y="1101.5" width="99" height="99" stroke="#C5C5C5" stroke-opacity="0.51"/>
<rect x="1100.5" y="1101.5" width="99" height="99" stroke="#C5C5C5" stroke-opacity="0.51"/>
<rect x="1200.5" y="1101.5" width="99" height="99" stroke="#C5C5C5" stroke-opacity="0.51"/>
<rect x="1300.5" y="1101.5" width="99" height="99" stroke="#C5C5C5" stroke-opacity="0.51"/>
<rect x="1400.5" y="1101.5" width="99" height="99" stroke="#C5C5C5" stroke-opacity="0.51"/>
<rect x="1500.5" y="1101.5" width="99" height="99" stroke="#C5C5C5" stroke-opacity="0.51"/>
<rect x="1600.5" y="1101.5" width="99" height="99" stroke="#C5C5C5" stroke-opacity="0.51"/>
<rect x="1700.5" y="1101.5" width="99" height="99" stroke="#C5C5C5" stroke-opacity="0.51"/>
<rect x="1800.5" y="1101.5" width="99" height="99" stroke="#C5C5C5" stroke-opacity="0.51"/>
<rect x="1900.5" y="1101.5" width="99" height="99" stroke="#C5C5C5" stroke-opacity="0.51"/>
<rect x="0.5" y="1201.5" width="99" height="99" stroke="#C5C5C5" stroke-opacity="0.51"/>
<rect x="100.5" y="1201.5" width="99" height="99" stroke="#C5C5C5" stroke-opacity="0.51"/>
<rect x="200.5" y="1201.5" width="99" height="99" stroke="#C5C5C5" stroke-opacity="0.51"/>
<rect x="300.5" y="1201.5" width="99" height="99" stroke="#C5C5C5" stroke-opacity="0.51"/>
<rect x="400.5" y="1201.5" width="99" height="99" stroke="#C5C5C5" stroke-opacity="0.51"/>
<rect x="500.5" y="1201.5" width="99" height="99" stroke="#C5C5C5" stroke-opacity="0.51"/>
<rect x="600.5" y="1201.5" width="99" height="99" stroke="#C5C5C5" stroke-opacity="0.51"/>
<rect x="700.5" y="1201.5" width="99" height="99" stroke="#C5C5C5" stroke-opacity="0.51"/>
<rect x="800.5" y="1201.5" width="99" height="99" stroke="#C5C5C5" stroke-opacity="0.51"/>
<rect x="900.5" y="1201.5" width="99" height="99" stroke="#C5C5C5" stroke-opacity="0.51"/>
<rect x="1000.5" y="1201.5" width="99" height="99" stroke="#C5C5C5" stroke-opacity="0.51"/>
<rect x="1100.5" y="1201.5" width="99" height="99" stroke="#C5C5C5" stroke-opacity="0.51"/>
<rect x="1200.5" y="1201.5" width="99" height="99" stroke="#C5C5C5" stroke-opacity="0.51"/>
<rect x="1300.5" y="1201.5" width="99" height="99" stroke="#C5C5C5" stroke-opacity="0.51"/>
<rect x="1400.5" y="1201.5" width="99" height="99" stroke="#C5C5C5" stroke-opacity="0.51"/>
<rect x="1500.5" y="1201.5" width="99" height="99" stroke="#C5C5C5" stroke-opacity="0.51"/>
<rect x="1600.5" y="1201.5" width="99" height="99" stroke="#C5C5C5" stroke-opacity="0.51"/>
<rect x="1700.5" y="1201.5" width="99" height="99" stroke="#C5C5C5" stroke-opacity="0.51"/>
<rect x="1800.5" y="1201.5" width="99" height="99" stroke="#C5C5C5" stroke-opacity="0.51"/>
<rect x="1900.5" y="1201.5" width="99" height="99" stroke="#C5C5C5" stroke-opacity="0.51"/>
<rect x="0.5" y="1301.5" width="99" height="99" stroke="#C5C5C5" stroke-opacity="0.51"/>
<rect x="100.5" y="1301.5" width="99" height="99" stroke="#C5C5C5" stroke-opacity="0.51"/>
<rect x="200.5" y="1301.5" width="99" height="99" stroke="#C5C5C5" stroke-opacity="0.51"/>
<rect x="300.5" y="1301.5" width="99" height="99" stroke="#C5C5C5" stroke-opacity="0.51"/>
<rect x="400.5" y="1301.5" width="99" height="99" stroke="#C5C5C5" stroke-opacity="0.51"/>
<rect x="500.5" y="1301.5" width="99" height="99" stroke="#C5C5C5" stroke-opacity="0.51"/>
<rect x="600.5" y="1301.5" width="99" height="99" stroke="#C5C5C5" stroke-opacity="0.51"/>
<rect x="700.5" y="1301.5" width="99" height="99" stroke="#C5C5C5" stroke-opacity="0.51"/>
<rect x="800.5" y="1301.5" width="99" height="99" stroke="#C5C5C5" stroke-opacity="0.51"/>
<rect x="900.5" y="1301.5" width="99" height="99" stroke="#C5C5C5" stroke-opacity="0.51"/>
<rect x="1000.5" y="1301.5" width="99" height="99" stroke="#C5C5C5" stroke-opacity="0.51"/>
<rect x="1100.5" y="1301.5" width="99" height="99" stroke="#C5C5C5" stroke-opacity="0.51"/>
<rect x="1200.5" y="1301.5" width="99" height="99" stroke="#C5C5C5" stroke-opacity="0.51"/>
<rect x="1300.5" y="1301.5" width="99" height="99" stroke="#C5C5C5" stroke-opacity="0.51"/>
<rect x="1400.5" y="1301.5" width="99" height="99" stroke="#C5C5C5" stroke-opacity="0.51"/>
<rect x="1500.5" y="1301.5" width="99" height="99" stroke="#C5C5C5" stroke-opacity="0.51"/>
<rect x="1600.5" y="1301.5" width="99" height="99" stroke="#C5C5C5" stroke-opacity="0.51"/>
<rect x="1700.5" y="1301.5" width="99" height="99" stroke="#C5C5C5" stroke-opacity="0.51"/>
<rect x="1800.5" y="1301.5" width="99" height="99" stroke="#C5C5C5" stroke-opacity="0.51"/>
<rect x="1900.5" y="1301.5" width="99" height="99" stroke="#C5C5C5" stroke-opacity="0.51"/>
<rect x="0.5" y="1401.5" width="99" height="99" stroke="#C5C5C5" stroke-opacity="0.51"/>
<rect x="100.5" y="1401.5" width="99" height="99" stroke="#C5C5C5" stroke-opacity="0.51"/>
<rect x="200.5" y="1401.5" width="99" height="99" stroke="#C5C5C5" stroke-opacity="0.51"/>
<rect x="300.5" y="1401.5" width="99" height="99" stroke="#C5C5C5" stroke-opacity="0.51"/>
<rect x="400.5" y="1401.5" width="99" height="99" stroke="#C5C5C5" stroke-opacity="0.51"/>
<rect x="500.5" y="1401.5" width="99" height="99" stroke="#C5C5C5" stroke-opacity="0.51"/>
<rect x="600.5" y="1401.5" width="99" height="99" stroke="#C5C5C5" stroke-opacity="0.51"/>
<rect x="700.5" y="1401.5" width="99" height="99" stroke="#C5C5C5" stroke-opacity="0.51"/>
<rect x="800.5" y="1401.5" width="99" height="99" stroke="#C5C5C5" stroke-opacity="0.51"/>
<rect x="900.5" y="1401.5" width="99" height="99" stroke="#C5C5C5" stroke-opacity="0.51"/>
<rect x="1000.5" y="1401.5" width="99" height="99" stroke="#C5C5C5" stroke-opacity="0.51"/>
<rect x="1100.5" y="1401.5" width="99" height="99" stroke="#C5C5C5" stroke-opacity="0.51"/>
<rect x="1200.5" y="1401.5" width="99" height="99" stroke="#C5C5C5" stroke-opacity="0.51"/>
<rect x="1300.5" y="1401.5" width="99" height="99" stroke="#C5C5C5" stroke-opacity="0.51"/>
<rect x="1400.5" y="1401.5" width="99" height="99" stroke="#C5C5C5" stroke-opacity="0.51"/>
<rect x="1500.5" y="1401.5" width="99" height="99" stroke="#C5C5C5" stroke-opacity="0.51"/>
<rect x="1600.5" y="1401.5" width="99" height="99" stroke="#C5C5C5" stroke-opacity="0.51"/>
<rect x="1700.5" y="1401.5" width="99" height="99" stroke="#C5C5C5" stroke-opacity="0.51"/>
<rect x="1800.5" y="1401.5" width="99" height="99" stroke="#C5C5C5" stroke-opacity="0.51"/>
<rect x="1900.5" y="1401.5" width="99" height="99" stroke="#C5C5C5" stroke-opacity="0.51"/>
<rect x="0.5" y="1501.5" width="99" height="99" stroke="#C5C5C5" stroke-opacity="0.51"/>
<rect x="100.5" y="1501.5" width="99" height="99" stroke="#C5C5C5" stroke-opacity="0.51"/>
<rect x="200.5" y="1501.5" width="99" height="99" stroke="#C5C5C5" stroke-opacity="0.51"/>
<rect x="300.5" y="1501.5" width="99" height="99" stroke="#C5C5C5" stroke-opacity="0.51"/>
<rect x="400.5" y="1501.5" width="99" height="99" stroke="#C5C5C5" stroke-opacity="0.51"/>
<rect x="500.5" y="1501.5" width="99" height="99" stroke="#C5C5C5" stroke-opacity="0.51"/>
<rect x="600.5" y="1501.5" width="99" height="99" stroke="#C5C5C5" stroke-opacity="0.51"/>
<rect x="700.5" y="1501.5" width="99" height="99" stroke="#C5C5C5" stroke-opacity="0.51"/>
<rect x="800.5" y="1501.5" width="99" height="99" stroke="#C5C5C5" stroke-opacity="0.51"/>
<rect x="900.5" y="1501.5" width="99" height="99" stroke="#C5C5C5" stroke-opacity="0.51"/>
<rect x="1000.5" y="1501.5" width="99" height="99" stroke="#C5C5C5" stroke-opacity="0.51"/>
<rect x="1100.5" y="1501.5" width="99" height="99" stroke="#C5C5C5" stroke-opacity="0.51"/>
<rect x="1200.5" y="1501.5" width="99" height="99" stroke="#C5C5C5" stroke-opacity="0.51"/>
<rect x="1300.5" y="1501.5" width="99" height="99" stroke="#C5C5C5" stroke-opacity="0.51"/>
<rect x="1400.5" y="1501.5" width="99" height="99" stroke="#C5C5C5" stroke-opacity="0.51"/>
<rect x="1500.5" y="1501.5" width="99" height="99" stroke="#C5C5C5" stroke-opacity="0.51"/>
<rect x="1600.5" y="1501.5" width="99" height="99" stroke="#C5C5C5" stroke-opacity="0.51"/>
<rect x="1700.5" y="1501.5" width="99" height="99" stroke="#C5C5C5" stroke-opacity="0.51"/>
<rect x="1800.5" y="1501.5" width="99" height="99" stroke="#C5C5C5" stroke-opacity="0.51"/>
<rect x="1900.5" y="1501.5" width="99" height="99" stroke="#C5C5C5" stroke-opacity="0.51"/>
<rect x="0.5" y="1601.5" width="99" height="99" stroke="#C5C5C5" stroke-opacity="0.51"/>
<rect x="100.5" y="1601.5" width="99" height="99" stroke="#C5C5C5" stroke-opacity="0.51"/>
<rect x="200.5" y="1601.5" width="99" height="99" stroke="#C5C5C5" stroke-opacity="0.51"/>
<rect x="300.5" y="1601.5" width="99" height="99" stroke="#C5C5C5" stroke-opacity="0.51"/>
<rect x="400.5" y="1601.5" width="99" height="99" stroke="#C5C5C5" stroke-opacity="0.51"/>
<rect x="500.5" y="1601.5" width="99" height="99" stroke="#C5C5C5" stroke-opacity="0.51"/>
<rect x="600.5" y="1601.5" width="99" height="99" stroke="#C5C5C5" stroke-opacity="0.51"/>
<rect x="700.5" y="1601.5" width="99" height="99" stroke="#C5C5C5" stroke-opacity="0.51"/>
<rect x="800.5" y="1601.5" width="99" height="99" stroke="#C5C5C5" stroke-opacity="0.51"/>
<rect x="900.5" y="1601.5" width="99" height="99" stroke="#C5C5C5" stroke-opacity="0.51"/>
<rect x="1000.5" y="1601.5" width="99" height="99" stroke="#C5C5C5" stroke-opacity="0.51"/>
<rect x="1100.5" y="1601.5" width="99" height="99" stroke="#C5C5C5" stroke-opacity="0.51"/>
<rect x="1200.5" y="1601.5" width="99" height="99" stroke="#C5C5C5" stroke-opacity="0.51"/>
<rect x="1300.5" y="1601.5" width="99" height="99" stroke="#C5C5C5" stroke-opacity="0.51"/>
<rect x="1400.5" y="1601.5" width="99" height="99" stroke="#C5C5C5" stroke-opacity="0.51"/>
<rect x="1500.5" y="1601.5" width="99" height="99" stroke="#C5C5C5" stroke-opacity="0.51"/>
<rect x="1600.5" y="1601.5" width="99" height="99" stroke="#C5C5C5" stroke-opacity="0.51"/>
<rect x="1700.5" y="1601.5" width="99" height="99" stroke="#C5C5C5" stroke-opacity="0.51"/>
<rect x="1800.5" y="1601.5" width="99" height="99" stroke="#C5C5C5" stroke-opacity="0.51"/>
<rect x="1900.5" y="1601.5" width="99" height="99" stroke="#C5C5C5" stroke-opacity="0.51"/>
<rect x="0.5" y="1701.5" width="99" height="99" stroke="#C5C5C5" stroke-opacity="0.51"/>
<rect x="100.5" y="1701.5" width="99" height="99" stroke="#C5C5C5" stroke-opacity="0.51"/>
<rect x="200.5" y="1701.5" width="99" height="99" stroke="#C5C5C5" stroke-opacity="0.51"/>
<rect x="300.5" y="1701.5" width="99" height="99" stroke="#C5C5C5" stroke-opacity="0.51"/>
<rect x="400.5" y="1701.5" width="99" height="99" stroke="#C5C5C5" stroke-opacity="0.51"/>
<rect x="500.5" y="1701.5" width="99" height="99" stroke="#C5C5C5" stroke-opacity="0.51"/>
<rect x="600.5" y="1701.5" width="99" height="99" stroke="#C5C5C5" stroke-opacity="0.51"/>
<rect x="700.5" y="1701.5" width="99" height="99" stroke="#C5C5C5" stroke-opacity="0.51"/>
<rect x="800.5" y="1701.5" width="99" height="99" stroke="#C5C5C5" stroke-opacity="0.51"/>
<rect x="900.5" y="1701.5" width="99" height="99" stroke="#C5C5C5" stroke-opacity="0.51"/>
<rect x="1000.5" y="1701.5" width="99" height="99" stroke="#C5C5C5" stroke-opacity="0.51"/>
<rect x="1100.5" y="1701.5" width="99" height="99" stroke="#C5C5C5" stroke-opacity="0.51"/>
<rect x="1200.5" y="1701.5" width="99" height="99" stroke="#C5C5C5" stroke-opacity="0.51"/>
<rect x="1300.5" y="1701.5" width="99" height="99" stroke="#C5C5C5" stroke-opacity="0.51"/>
<rect x="1400.5" y="1701.5" width="99" height="99" stroke="#C5C5C5" stroke-opacity="0.51"/>
<rect x="1500.5" y="1701.5" width="99" height="99" stroke="#C5C5C5" stroke-opacity="0.51"/>
<rect x="1600.5" y="1701.5" width="99" height="99" stroke="#C5C5C5" stroke-opacity="0.51"/>
<rect x="1700.5" y="1701.5" width="99" height="99" stroke="#C5C5C5" stroke-opacity="0.51"/>
<rect x="1800.5" y="1701.5" width="99" height="99" stroke="#C5C5C5" stroke-opacity="0.51"/>
<rect x="1900.5" y="1701.5" width="99" height="99" stroke="#C5C5C5" stroke-opacity="0.51"/>
<rect x="0.5" y="1801.5" width="99" height="99" stroke="#C5C5C5" stroke-opacity="0.51"/>
<rect x="100.5" y="1801.5" width="99" height="99" stroke="#C5C5C5" stroke-opacity="0.51"/>
<rect x="200.5" y="1801.5" width="99" height="99" stroke="#C5C5C5" stroke-opacity="0.51"/>
<rect x="300.5" y="1801.5" width="99" height="99" stroke="#C5C5C5" stroke-opacity="0.51"/>
<rect x="400.5" y="1801.5" width="99" height="99" stroke="#C5C5C5" stroke-opacity="0.51"/>
<rect x="500.5" y="1801.5" width="99" height="99" stroke="#C5C5C5" stroke-opacity="0.51"/>
<rect x="600.5" y="1801.5" width="99" height="99" stroke="#C5C5C5" stroke-opacity="0.51"/>
<rect x="700.5" y="1801.5" width="99" height="99" stroke="#C5C5C5" stroke-opacity="0.51"/>
<rect x="800.5" y="1801.5" width="99" height="99" stroke="#C5C5C5" stroke-opacity="0.51"/>
<rect x="900.5" y="1801.5" width="99" height="99" stroke="#C5C5C5" stroke-opacity="0.51"/>
<rect x="1000.5" y="1801.5" width="99" height="99" stroke="#C5C5C5" stroke-opacity="0.51"/>
<rect x="1100.5" y="1801.5" width="99" height="99" stroke="#C5C5C5" stroke-opacity="0.51"/>
<rect x="1200.5" y="1801.5" width="99" height="99" stroke="#C5C5C5" stroke-opacity="0.51"/>
<rect x="1300.5" y="1801.5" width="99" height="99" stroke="#C5C5C5" stroke-opacity="0.51"/>
<rect x="1400.5" y="1801.5" width="99" height="99" stroke="#C5C5C5" stroke-opacity="0.51"/>
<rect x="1500.5" y="1801.5" width="99" height="99" stroke="#C5C5C5" stroke-opacity="0.51"/>
<rect x="1600.5" y="1801.5" width="99" height="99" stroke="#C5C5C5" stroke-opacity="0.51"/>
<rect x="1700.5" y="1801.5" width="99" height="99" stroke="#C5C5C5" stroke-opacity="0.51"/>
<rect x="1800.5" y="1801.5" width="99" height="99" stroke="#C5C5C5" stroke-opacity="0.51"/>
<rect x="1900.5" y="1801.5" width="99" height="99" stroke="#C5C5C5" stroke-opacity="0.51"/>
<rect x="0.5" y="1901.5" width="99" height="99" stroke="#C5C5C5" stroke-opacity="0.51"/>
<rect x="100.5" y="1901.5" width="99" height="99" stroke="#C5C5C5" stroke-opacity="0.51"/>
<rect x="200.5" y="1901.5" width="99" height="99" stroke="#C5C5C5" stroke-opacity="0.51"/>
<rect x="300.5" y="1901.5" width="99" height="99" stroke="#C5C5C5" stroke-opacity="0.51"/>
<rect x="400.5" y="1901.5" width="99" height="99" stroke="#C5C5C5" stroke-opacity="0.51"/>
<rect x="500.5" y="1901.5" width="99" height="99" stroke="#C5C5C5" stroke-opacity="0.51"/>
<rect x="600.5" y="1901.5" width="99" height="99" stroke="#C5C5C5" stroke-opacity="0.51"/>
<rect x="700.5" y="1901.5" width="99" height="99" stroke="#C5C5C5" stroke-opacity="0.51"/>
<rect x="800.5" y="1901.5" width="99" height="99" stroke="#C5C5C5" stroke-opacity="0.51"/>
<rect x="900.5" y="1901.5" width="99" height="99" stroke="#C5C5C5" stroke-opacity="0.51"/>
<rect x="1000.5" y="1901.5" width="99" height="99" stroke="#C5C5C5" stroke-opacity="0.51"/>
<rect x="1100.5" y="1901.5" width="99" height="99" stroke="#C5C5C5" stroke-opacity="0.51"/>
<rect x="1200.5" y="1901.5" width="99" height="99" stroke="#C5C5C5" stroke-opacity="0.51"/>
<rect x="1300.5" y="1901.5" width="99" height="99" stroke="#C5C5C5" stroke-opacity="0.51"/>
<rect x="1400.5" y="1901.5" width="99" height="99" stroke="#C5C5C5" stroke-opacity="0.51"/>
<rect x="1500.5" y="1901.5" width="99" height="99" stroke="#C5C5C5" stroke-opacity="0.51"/>
<rect x="1600.5" y="1901.5" width="99" height="99" stroke="#C5C5C5" stroke-opacity="0.51"/>
<rect x="1700.5" y="1901.5" width="99" height="99" stroke="#C5C5C5" stroke-opacity="0.51"/>
<rect x="1800.5" y="1901.5" width="99" height="99" stroke="#C5C5C5" stroke-opacity="0.51"/>
<rect x="1900.5" y="1901.5" width="99" height="99" stroke="#C5C5C5" stroke-opacity="0.51"/>
</g>
<rect y="1" width="2000" height="2000" fill="url(#paint0_radial_11_607)"/>
<rect y="700" width="2000" height="1300" fill="url(#paint1_linear_11_607)"/>
<rect width="2000" height="1300" transform="matrix(1 0 0 -1 0 1300)" fill="url(#paint2_linear_11_607)"/>
<defs>
<radialGradient id="paint0_radial_11_607" cx="0" cy="0" r="1" gradientUnits="userSpaceOnUse" gradientTransform="translate(1000 1075.25) rotate(90) scale(925.75 1101.43)">
<stop offset="0.00973505" stop-opacity="0"/>
<stop offset="1"/>
</radialGradient>
<linearGradient id="paint1_linear_11_607" x1="1000" y1="700" x2="1000" y2="2000" gradientUnits="userSpaceOnUse">
<stop stop-opacity="0"/>
<stop offset="0.625"/>
</linearGradient>
<linearGradient id="paint2_linear_11_607" x1="1000" y1="0" x2="1000" y2="1300" gradientUnits="userSpaceOnUse">
<stop stop-opacity="0"/>
<stop offset="0.625"/>
</linearGradient>
<clipPath id="clip0_11_607">
<rect width="2000" height="2000" fill="white" transform="translate(0 1)"/>
</clipPath>
</defs>
</svg>
