<?xml version="1.0" encoding="UTF-8"?>
<svg xmlns="http://www.w3.org/2000/svg" xmlns:xlink="http://www.w3.org/1999/xlink" width="87px" height="32px" viewBox="0 0 86 32" version="1.1">
<g id="surface1">
<path style="stroke: none; fill-rule: evenodd; fill: #e3000f; fill-opacity: 1" d="M 28.601562 16.121094 C 27.058594 21.898438 28.539062 26.074219 33.046875 28.644531 C 30.234375 25.019531 29.660156 20.535156 31.320312 15.183594 C 20.03125 9.367188 14.386719 6.457031 14.386719 6.457031 C 14.808594 9.238281 16.234375 11.121094 18.667969 12.101562 C 25.289062 14.78125 28.601562 16.121094 28.601562 16.121094 "></path>
<path style="stroke: none; fill-rule: evenodd; fill: #e3000f; fill-opacity: 1" d="M 26.625 18.972656 C 26.605469 17.246094 26.597656 16.386719 26.597656 16.386719 C 9.675781 10.324219 1.21875 7.289062 1.21875 7.289062 C 1.90625 11.210938 4.105469 13.566406 7.816406 14.355469 C 20.355469 17.433594 26.625 18.972656 26.625 18.972656 "></path>
<path style="stroke: none; fill-rule: evenodd; fill: #e3000f; fill-opacity: 1" d="M 4.863281 14.703125 C 19.355469 17.84375 26.601562 19.414062 26.601562 19.414062 C 26.601562 21.023438 26.605469 21.828125 26.605469 21.828125 C 17.082031 21.140625 12.320312 20.796875 12.320312 20.796875 C 9.242188 20.273438 6.753906 18.242188 4.863281 14.703125 "></path>
<path style="stroke: none; fill-rule: evenodd; fill: #e3000f; fill-opacity: 1" d="M 27.398438 24.59375 C 26.972656 23.902344 26.765625 23.175781 26.773438 22.414062 C 17.097656 21.695312 12.257812 21.335938 12.257812 21.335938 C 14.339844 23.757812 15.949219 24.933594 17.09375 24.871094 C 23.960938 24.683594 27.398438 24.59375 27.398438 24.59375 "></path>
<path style="stroke: none; fill-rule: evenodd; fill: #e3000f; fill-opacity: 1" d="M 28.9375 26.648438 C 28.40625 26.03125 28.027344 25.511719 27.808594 25.089844 C 23.042969 25.484375 20.660156 25.679688 20.660156 25.679688 C 20.707031 27.296875 22.605469 27.949219 26.355469 27.628906 C 27.554688 27.488281 28.414062 27.164062 28.9375 26.648438 "></path>
<path style="stroke: none; fill-rule: evenodd; fill: #e3000f; fill-opacity: 1" d="M 26.425781 28.175781 C 27.777344 27.90625 28.742188 27.558594 29.316406 27.128906 C 30.367188 28.117188 30.890625 28.613281 30.890625 28.613281 C 29.207031 30.054688 27.71875 29.910156 26.425781 28.175781 "></path>
<path style="stroke: none; fill-rule: evenodd; fill: #e3000f; fill-opacity: 1" d="M 3.769531 7.230469 C 1.203125 6.046875 0.0078125 3.691406 0.171875 0.160156 C 8.867188 4.085938 13.210938 6.050781 13.210938 6.050781 C 13.445312 8.347656 14.1875 10.15625 15.445312 11.480469 C 7.660156 8.644531 3.769531 7.230469 3.769531 7.230469 "></path>
<path style="stroke: none; fill-rule: evenodd; fill: #e3000f; fill-opacity: 1" d="M 42.863281 8.566406 C 49.246094 8.566406 54.417969 13.78125 54.417969 20.214844 C 54.417969 26.648438 49.246094 31.863281 42.863281 31.863281 C 36.484375 31.863281 31.308594 26.648438 31.308594 20.214844 C 31.308594 13.78125 36.484375 8.566406 42.863281 8.566406 "></path>
<path style="stroke: none; fill-rule: evenodd; fill: #e3000f; fill-opacity: 1" d="M 57.414062 16.121094 C 58.957031 21.898438 57.476562 26.074219 52.96875 28.644531 C 55.78125 25.019531 56.359375 20.535156 54.699219 15.183594 C 65.988281 9.367188 71.628906 6.457031 71.628906 6.457031 C 71.207031 9.238281 69.78125 11.121094 67.351562 12.101562 C 60.726562 14.78125 57.414062 16.121094 57.414062 16.121094 "></path>
<path style="stroke: none; fill-rule: evenodd; fill: #e3000f; fill-opacity: 1" d="M 59.390625 18.972656 C 59.410156 17.246094 59.417969 16.386719 59.417969 16.386719 C 76.339844 10.324219 84.800781 7.289062 84.800781 7.289062 C 84.113281 11.210938 81.914062 13.566406 78.203125 14.355469 C 65.660156 17.433594 59.390625 18.972656 59.390625 18.972656 "></path>
<path style="stroke: none; fill-rule: evenodd; fill: #e3000f; fill-opacity: 1" d="M 81.15625 14.703125 C 66.664062 17.84375 59.417969 19.414062 59.417969 19.414062 C 59.414062 21.023438 59.414062 21.828125 59.414062 21.828125 C 68.933594 21.140625 73.695312 20.796875 73.695312 20.796875 C 76.777344 20.273438 79.261719 18.242188 81.15625 14.703125 "></path>
<path style="stroke: none; fill-rule: evenodd; fill: #e3000f; fill-opacity: 1" d="M 58.621094 24.59375 C 59.046875 23.902344 59.253906 23.175781 59.242188 22.414062 C 68.921875 21.695312 73.757812 21.335938 73.757812 21.335938 C 71.679688 23.757812 70.066406 24.933594 68.925781 24.871094 C 62.054688 24.683594 58.621094 24.59375 58.621094 24.59375 "></path>
<path style="stroke: none; fill-rule: evenodd; fill: #e3000f; fill-opacity: 1" d="M 57.078125 26.648438 C 57.613281 26.03125 57.988281 25.511719 58.207031 25.089844 C 62.976562 25.484375 65.359375 25.679688 65.359375 25.679688 C 65.3125 27.296875 63.410156 27.949219 59.664062 27.628906 C 58.464844 27.488281 57.601562 27.164062 57.078125 26.648438 "></path>
<path style="stroke: none; fill-rule: evenodd; fill: #e3000f; fill-opacity: 1" d="M 59.589844 28.175781 C 58.238281 27.90625 57.273438 27.558594 56.699219 27.128906 C 55.652344 28.117188 55.128906 28.613281 55.128906 28.613281 C 56.808594 30.054688 58.296875 29.910156 59.589844 28.175781 "></path>
<path style="stroke: none; fill-rule: evenodd; fill: #e3000f; fill-opacity: 1" d="M 82.25 7.230469 C 84.8125 6.046875 86.011719 3.691406 85.84375 0.160156 C 77.152344 4.085938 72.804688 6.050781 72.804688 6.050781 C 72.574219 8.347656 71.828125 10.15625 70.570312 11.480469 C 78.355469 8.644531 82.25 7.230469 82.25 7.230469 "></path>
<path style="stroke: none; fill-rule: nonzero; fill: #fff; fill-opacity: 1" d="M 35.441406 20.285156 L 34.210938 20.285156 L 34.210938 16.734375 L 32.925781 16.734375 L 33.207031 15.660156 L 36.453125 15.660156 L 36.726562 16.734375 L 35.441406 16.734375 Z M 39.386719 15.660156 L 40.125 15.660156 L 40.40625 16.703125 L 39.46875 16.703125 C 39.019531 16.703125 38.664062 16.785156 38.40625 16.953125 C 38.144531 17.117188 37.945312 17.386719 37.808594 17.757812 L 38.980469 17.757812 L 38.980469 16.890625 L 40.21875 16.890625 L 40.21875 20.285156 L 38.980469 20.285156 L 38.980469 18.824219 L 37.6875 18.824219 C 37.6875 18.949219 37.695312 19.066406 37.71875 19.179688 C 37.742188 19.292969 37.777344 19.421875 37.820312 19.570312 C 37.898438 19.808594 38.011719 20.046875 38.15625 20.285156 L 37.175781 20.933594 C 36.933594 20.554688 36.75 20.175781 36.625 19.785156 C 36.5 19.398438 36.441406 19.015625 36.441406 18.628906 C 36.441406 18.191406 36.511719 17.777344 36.65625 17.390625 C 36.804688 17 37.007812 16.671875 37.277344 16.402344 C 37.527344 16.152344 37.824219 15.964844 38.175781 15.84375 C 38.523438 15.722656 38.929688 15.660156 39.386719 15.660156 Z M 43.148438 20.285156 L 41.917969 20.285156 L 41.917969 16.734375 L 40.632812 16.734375 L 40.914062 15.660156 L 44.160156 15.660156 L 44.429688 16.734375 L 43.148438 16.734375 Z M 47.09375 15.660156 L 47.832031 15.660156 L 48.113281 16.703125 L 47.175781 16.703125 C 46.726562 16.703125 46.371094 16.785156 46.109375 16.953125 C 45.851562 17.117188 45.652344 17.386719 45.515625 17.757812 L 46.6875 17.757812 L 46.6875 16.890625 L 47.925781 16.890625 L 47.925781 20.285156 L 46.6875 20.285156 L 46.6875 18.824219 L 45.394531 18.824219 C 45.394531 18.949219 45.402344 19.066406 45.425781 19.179688 C 45.449219 19.292969 45.484375 19.421875 45.527344 19.570312 C 45.605469 19.808594 45.71875 20.046875 45.863281 20.285156 L 44.882812 20.933594 C 44.640625 20.554688 44.457031 20.175781 44.332031 19.785156 C 44.207031 19.398438 44.148438 19.015625 44.148438 18.628906 C 44.148438 18.191406 44.21875 17.777344 44.363281 17.390625 C 44.511719 17 44.714844 16.671875 44.984375 16.402344 C 45.234375 16.152344 45.53125 15.964844 45.882812 15.84375 C 46.230469 15.722656 46.636719 15.660156 47.09375 15.660156 Z M 48.789062 16.890625 L 50.019531 16.890625 L 50.019531 20.285156 L 48.789062 20.285156 Z M 51.472656 18.300781 C 51.679688 18.6875 51.890625 19.039062 52.109375 19.363281 C 52.328125 19.6875 52.558594 19.976562 52.800781 20.230469 L 51.820312 20.964844 C 51.480469 20.578125 51.160156 20.148438 50.867188 19.671875 C 50.578125 19.207031 50.304688 18.683594 50.042969 18.09375 C 50.414062 17.851562 50.6875 17.640625 50.855469 17.464844 C 51.027344 17.28125 51.109375 17.125 51.109375 16.984375 C 51.109375 16.898438 51.078125 16.828125 51.015625 16.777344 C 50.953125 16.726562 50.867188 16.703125 50.753906 16.703125 L 48.570312 16.703125 L 48.847656 15.660156 L 51 15.660156 C 51.460938 15.660156 51.816406 15.761719 52.070312 15.96875 C 52.328125 16.175781 52.453125 16.460938 52.453125 16.832031 C 52.453125 17.121094 52.375 17.382812 52.214844 17.625 C 52.054688 17.863281 51.808594 18.089844 51.472656 18.300781 Z M 37.820312 24.972656 C 37.820312 25.191406 37.839844 25.410156 37.886719 25.625 C 37.929688 25.84375 37.992188 26.050781 38.082031 26.246094 C 38.160156 26.429688 38.25 26.570312 38.351562 26.671875 C 38.453125 26.773438 38.558594 26.820312 38.664062 26.820312 C 38.734375 26.820312 38.804688 26.800781 38.875 26.753906 C 38.945312 26.707031 39.007812 26.644531 39.058594 26.566406 C 39.195312 26.355469 39.300781 26.113281 39.382812 25.835938 C 39.460938 25.5625 39.5 25.285156 39.5 25.007812 C 39.5 24.695312 39.4375 24.476562 39.3125 24.351562 C 39.191406 24.226562 38.972656 24.160156 38.664062 24.160156 C 38.355469 24.160156 38.136719 24.222656 38.007812 24.347656 C 37.882812 24.46875 37.820312 24.679688 37.820312 24.972656 Z M 38.664062 23.09375 C 39.378906 23.09375 39.902344 23.238281 40.238281 23.53125 C 40.578125 23.820312 40.746094 24.277344 40.746094 24.898438 C 40.746094 25.332031 40.679688 25.753906 40.542969 26.164062 C 40.40625 26.574219 40.21875 26.925781 39.984375 27.222656 C 39.804688 27.445312 39.605469 27.613281 39.386719 27.726562 C 39.167969 27.839844 38.925781 27.894531 38.664062 27.894531 C 38.398438 27.894531 38.15625 27.839844 37.933594 27.730469 C 37.714844 27.621094 37.515625 27.449219 37.335938 27.222656 C 37.097656 26.921875 36.910156 26.570312 36.777344 26.160156 C 36.640625 25.753906 36.574219 25.332031 36.574219 24.898438 C 36.574219 24.28125 36.742188 23.824219 37.082031 23.53125 C 37.417969 23.238281 37.945312 23.09375 38.664062 23.09375 Z M 43.433594 27.777344 L 42.199219 27.777344 L 42.199219 24.222656 L 40.917969 24.222656 L 41.195312 23.152344 L 44.441406 23.152344 L 44.714844 24.222656 L 43.433594 24.222656 Z M 46.132812 24.972656 C 46.132812 25.191406 46.152344 25.410156 46.195312 25.625 C 46.242188 25.84375 46.304688 26.050781 46.390625 26.246094 C 46.46875 26.429688 46.5625 26.570312 46.664062 26.671875 C 46.765625 26.773438 46.867188 26.820312 46.976562 26.820312 C 47.046875 26.820312 47.117188 26.800781 47.1875 26.753906 C 47.257812 26.707031 47.320312 26.644531 47.371094 26.566406 C 47.507812 26.355469 47.613281 26.113281 47.691406 25.835938 C 47.769531 25.5625 47.8125 25.285156 47.8125 25.007812 C 47.8125 24.695312 47.75 24.476562 47.625 24.351562 C 47.503906 24.226562 47.285156 24.160156 46.976562 24.160156 C 46.664062 24.160156 46.445312 24.222656 46.320312 24.347656 C 46.195312 24.46875 46.132812 24.679688 46.132812 24.972656 Z M 46.976562 23.09375 C 47.691406 23.09375 48.214844 23.238281 48.550781 23.53125 C 48.886719 23.820312 49.058594 24.277344 49.058594 24.898438 C 49.058594 25.332031 48.988281 25.753906 48.855469 26.164062 C 48.71875 26.574219 48.53125 26.925781 48.292969 27.222656 C 48.113281 27.445312 47.914062 27.613281 47.695312 27.726562 C 47.476562 27.839844 47.238281 27.894531 46.976562 27.894531 C 46.710938 27.894531 46.464844 27.839844 46.246094 27.730469 C 46.027344 27.621094 45.828125 27.449219 45.648438 27.222656 C 45.410156 26.921875 45.222656 26.570312 45.089844 26.160156 C 44.953125 25.753906 44.886719 25.332031 44.886719 24.898438 C 44.886719 24.28125 45.054688 23.824219 45.394531 23.53125 C 45.730469 23.238281 46.257812 23.09375 46.976562 23.09375 "></path>
</g>
</svg>
