<svg xmlns="http://www.w3.org/2000/svg" width="87" height="32" viewBox="0 0 86 32"><g id="surface1"><path style="stroke:none;fill-rule:evenodd;fill:#e3000f;fill-opacity:1" d="M28.602 16.121c-1.543 5.777-.063 9.953 4.445 12.524-2.813-3.625-3.387-8.11-1.727-13.461-11.289-5.817-16.933-8.727-16.933-8.727.422 2.781 1.847 4.664 4.281 5.645l9.934 4.02"/><path style="stroke:none;fill-rule:evenodd;fill:#e3000f;fill-opacity:1" d="M26.625 18.973c-.02-1.727-.027-2.586-.027-2.586-16.922-6.063-25.38-9.098-25.38-9.098.688 3.922 2.887 6.277 6.598 7.066l18.809 4.618M4.863 14.703l21.739 4.711c0 1.61.003 2.414.003 2.414L12.32 20.797c-3.078-.524-5.566-2.555-7.457-6.094M27.398 24.594c-.425-.692-.632-1.418-.625-2.18l-14.515-1.078c2.082 2.422 3.691 3.598 4.836 3.535 6.867-.187 10.304-.277 10.304-.277M28.938 26.648c-.532-.617-.91-1.136-1.13-1.558l-7.148.59c.047 1.617 1.945 2.27 5.695 1.949 1.2-.14 2.06-.465 2.582-.98M26.426 28.176c1.351-.27 2.316-.617 2.89-1.047 1.051.988 1.575 1.484 1.575 1.484-1.684 1.442-3.172 1.297-4.465-.437M3.77 7.23C1.203 6.047.008 3.691.172.16 8.867 4.086 13.21 6.05 13.21 6.05c.234 2.298.976 4.106 2.234 5.43L3.77 7.23M42.863 8.566c6.383 0 11.555 5.215 11.555 11.649 0 6.433-5.172 11.648-11.555 11.648-6.379 0-11.554-5.215-11.554-11.648 0-6.434 5.175-11.649 11.554-11.649"/><path style="stroke:none;fill-rule:evenodd;fill:#e3000f;fill-opacity:1" d="M57.414 16.121c1.543 5.777.063 9.953-4.445 12.524 2.812-3.625 3.39-8.11 1.73-13.461 11.29-5.817 16.93-8.727 16.93-8.727-.422 2.781-1.848 4.664-4.277 5.645l-9.938 4.02"/><path style="stroke:none;fill-rule:evenodd;fill:#e3000f;fill-opacity:1" d="M59.39 18.973c.02-1.727.028-2.586.028-2.586 16.922-6.063 25.383-9.098 25.383-9.098-.688 3.922-2.887 6.277-6.598 7.066l-18.812 4.618M81.156 14.703l-21.738 4.711c-.004 1.61-.004 2.414-.004 2.414l14.281-1.031c3.082-.524 5.567-2.555 7.461-6.094M58.621 24.594c.426-.692.633-1.418.621-2.18l14.516-1.078c-2.078 2.422-3.692 3.598-4.832 3.535-6.871-.187-10.305-.277-10.305-.277M57.078 26.648c.535-.617.91-1.136 1.129-1.558l7.152.59c-.046 1.617-1.949 2.27-5.695 1.949-1.2-.14-2.062-.465-2.586-.98M59.59 28.176c-1.352-.27-2.317-.617-2.89-1.047-1.048.988-1.571 1.484-1.571 1.484 1.68 1.442 3.168 1.297 4.46-.437M82.25 7.23c2.563-1.183 3.762-3.539 3.594-7.07l-13.04 5.89c-.23 2.298-.976 4.106-2.234 5.43 7.785-2.835 11.68-4.25 11.68-4.25"/><path style="stroke:none;fill-rule:nonzero;fill:#fff;fill-opacity:1" d="M35.441 20.285h-1.23v-3.55h-1.285l.281-1.075h3.246l.274 1.074H35.44Zm3.946-4.625h.738l.281 1.043h-.937c-.45 0-.805.082-1.063.25-.261.164-.46.434-.597.805h1.171v-.867h1.239v3.394H38.98v-1.46h-1.292c0 .124.007.241.03.355.024.113.06.242.102.39.078.239.192.477.336.715l-.98.649a4.902 4.902 0 0 1-.551-1.149 3.723 3.723 0 0 1 .031-2.394 2.75 2.75 0 0 1 .621-.989c.25-.25.547-.437.899-.558a3.688 3.688 0 0 1 1.21-.184Zm3.761 4.625h-1.23v-3.55h-1.285l.281-1.075h3.246l.27 1.074h-1.282Zm3.946-4.625h.738l.281 1.043h-.937c-.45 0-.805.082-1.067.25-.257.164-.457.434-.593.805h1.172v-.867h1.238v3.394h-1.239v-1.46h-1.292c0 .124.007.241.03.355.024.113.06.242.102.39.078.239.192.477.336.715l-.98.649a4.902 4.902 0 0 1-.551-1.149 3.723 3.723 0 0 1 .031-2.394 2.75 2.75 0 0 1 .621-.989c.25-.25.547-.437.899-.558a3.688 3.688 0 0 1 1.21-.184Zm1.695 1.23h1.23v3.395h-1.23Zm2.684 1.41c.207.387.418.74.636 1.063.22.325.45.614.692.867l-.98.735a9.46 9.46 0 0 1-.954-1.293c-.289-.465-.562-.988-.824-1.578.371-.242.645-.453.812-.63.172-.183.254-.339.254-.48a.254.254 0 0 0-.093-.207.402.402 0 0 0-.262-.074H48.57l.278-1.043H51c.46 0 .816.102 1.07.309.258.207.383.492.383.863 0 .29-.078.55-.238.793-.16.238-.406.465-.742.676ZM37.82 24.974c0 .218.02.437.067.652.043.219.105.426.195.621.078.184.168.324.27.426a.442.442 0 0 0 .312.148c.07 0 .14-.02.211-.066a.647.647 0 0 0 .184-.188c.136-.21.242-.453.324-.73.078-.273.117-.55.117-.828 0-.313-.063-.531-.188-.656-.12-.125-.34-.192-.648-.192-.309 0-.527.063-.656.188-.125.12-.188.332-.188.625Zm.844-1.88c.715 0 1.238.145 1.574.438.34.29.508.746.508 1.367 0 .434-.066.856-.203 1.266-.137.41-.324.762-.559 1.059a1.89 1.89 0 0 1-.597.504 1.55 1.55 0 0 1-.723.168 1.63 1.63 0 0 1-.73-.165 1.807 1.807 0 0 1-.598-.507 3.354 3.354 0 0 1-.559-1.063 3.933 3.933 0 0 1-.203-1.262c0-.617.168-1.074.508-1.367.336-.293.863-.437 1.582-.437Zm4.77 4.684h-1.235v-3.554h-1.281l.277-1.07h3.246l.274 1.07h-1.281Zm2.699-2.804c0 .218.02.437.062.652.047.219.11.426.196.621.078.184.172.324.273.426.102.101.203.148.313.148.07 0 .14-.02.21-.066a.647.647 0 0 0 .184-.188c.137-.21.242-.453.32-.73.079-.273.121-.55.121-.828 0-.313-.062-.531-.187-.656-.121-.125-.34-.192-.648-.192-.313 0-.532.063-.657.188-.125.12-.187.332-.187.625Zm.844-1.88c.714 0 1.238.145 1.574.438.336.29.508.746.508 1.367 0 .434-.07.856-.204 1.266-.136.41-.324.762-.562 1.059a1.89 1.89 0 0 1-.598.504 1.534 1.534 0 0 1-.718.168c-.266 0-.512-.055-.73-.165a1.807 1.807 0 0 1-.599-.507 3.354 3.354 0 0 1-.558-1.063 3.933 3.933 0 0 1-.203-1.262c0-.617.168-1.074.508-1.367.335-.293.863-.437 1.582-.437"/></g></svg>