<svg xmlns="http://www.w3.org/2000/svg" width="32" height="16"><g id="surface1"><path style="stroke:none;fill-rule:evenodd;fill:#e3000f;fill-opacity:1" d="M10.645 8.063c-.575 2.886-.024 4.972 1.652 6.261-1.047-1.812-1.262-4.058-.645-6.73-4.199-2.91-6.3-4.364-6.3-4.364.16 1.391.691 2.329 1.593 2.82l3.7 2.013"/><path style="stroke:none;fill-rule:evenodd;fill:#e3000f;fill-opacity:1" d="M9.906 9.484c-.008-.859-.008-1.293-.008-1.293L.453 3.645C.707 5.605 1.527 6.78 2.906 7.18c4.668 1.535 7 2.304 7 2.304M1.809 7.352l8.09 2.355v1.207l-5.313-.516c-1.149-.261-2.074-1.277-2.777-3.046M10.195 12.297a2.512 2.512 0 0 1-.234-1.09l-5.399-.539c.774 1.21 1.372 1.8 1.797 1.766 2.559-.09 3.836-.137 3.836-.137M10.77 13.324c-.2-.308-.34-.57-.422-.777l-2.66.293c.015.808.722 1.133 2.117.973.449-.067.77-.231.965-.489M9.832 14.09c.504-.137.863-.313 1.078-.524.39.493.582.739.582.739-.625.722-1.18.652-1.66-.215M1.402 3.613C.45 3.023.004 1.843.066.078c3.235 1.965 4.848 2.95 4.848 2.95.09 1.144.367 2.05.832 2.714L1.402 3.613M15.95 4.285c2.374 0 4.3 2.606 4.3 5.824 0 3.215-1.926 5.82-4.3 5.82-2.376 0-4.298-2.605-4.298-5.82 0-3.218 1.922-5.824 4.297-5.824"/><path style="stroke:none;fill-rule:evenodd;fill:#e3000f;fill-opacity:1" d="M21.363 8.063c.575 2.886.024 4.972-1.652 6.261 1.047-1.812 1.258-4.058.64-6.73 4.204-2.91 6.301-4.364 6.301-4.364-.156 1.391-.687 2.329-1.59 2.82l-3.699 2.013"/><path style="stroke:none;fill-rule:evenodd;fill:#e3000f;fill-opacity:1" d="m22.098 9.484.011-1.293 9.446-4.546c-.258 1.96-1.075 3.136-2.457 3.535l-7 2.304M30.2 7.352l-8.09 2.355c0 .805-.005 1.207-.005 1.207l5.317-.516c1.144-.261 2.07-1.277 2.777-3.046M21.813 12.297c.156-.348.234-.711.23-1.09l5.402-.539c-.773 1.21-1.375 1.8-1.8 1.766-2.555-.09-3.832-.137-3.832-.137M21.238 13.324c.2-.308.34-.57.422-.777l2.66.293c-.02.808-.726 1.133-2.12.973-.446-.067-.766-.231-.962-.489M22.172 14.09c-.5-.137-.86-.313-1.074-.524l-.586.739c.625.722 1.18.652 1.66-.215M30.605 3.613c.954-.59 1.399-1.77 1.336-3.535-3.234 1.965-4.851 2.95-4.851 2.95-.086 1.144-.363 2.05-.832 2.714 2.898-1.418 4.347-2.129 4.347-2.129"/><path style="stroke:none;fill-rule:nonzero;fill:#fff;fill-opacity:1" d="M13.188 10.145h-.458V8.367h-.476l.101-.539h1.207l.102.54h-.476Zm1.468-2.317h.274l.105.524h-.348a.6.6 0 0 0-.398.125c-.098.082-.168.214-.219.402h.434v-.434h.46v1.7h-.46v-.73h-.48c0 .058.003.12.011.175.008.058.02.12.04.195.027.117.07.238.124.36l-.367.324a3.06 3.06 0 0 1-.203-.574 2.463 2.463 0 0 1-.07-.579c0-.218.027-.425.082-.62.054-.196.129-.36.23-.493a.91.91 0 0 1 .332-.281c.133-.063.281-.094.453-.094Zm1.399 2.317h-.457V8.367h-.477l.102-.539h1.207l.101.54h-.476Zm1.468-2.317h.274l.105.524h-.347a.6.6 0 0 0-.399.125c-.093.082-.168.214-.218.402h.433v-.434h.461v1.7h-.46v-.73h-.481c0 .058.004.12.011.175.008.058.02.12.04.195.027.117.07.238.124.36l-.367.324a3.06 3.06 0 0 1-.203-.574 2.463 2.463 0 0 1-.07-.579c0-.218.027-.425.082-.62.055-.196.133-.36.23-.493a.91.91 0 0 1 .332-.281c.133-.063.282-.094.453-.094Zm.63.617h.46v1.7h-.46Zm1 .707c.077.192.156.368.238.528.082.164.168.308.257.437l-.367.367a5.307 5.307 0 0 1-.355-.648 7.989 7.989 0 0 1-.305-.79c.137-.12.238-.226.3-.316.063-.09.099-.168.099-.238 0-.043-.012-.078-.036-.101a.124.124 0 0 0-.097-.04h-.813l.102-.523h.8c.172 0 .305.055.399.156.094.102.145.246.145.434a.9.9 0 0 1-.09.395 1.109 1.109 0 0 1-.278.34Zm-5.079 3.336a2.263 2.263 0 0 0 .094.637c.031.09.062.16.102.21.039.052.078.075.117.075.027 0 .05-.012.078-.035.027-.02.05-.05.07-.094.05-.105.09-.226.117-.363.032-.137.043-.277.043-.414 0-.156-.02-.266-.066-.328-.047-.063-.125-.094-.242-.094-.117 0-.196.031-.242.09-.047.062-.07.168-.07.316Zm.313-.941c.265 0 .46.074.586.219.125.144.187.375.187.683 0 .215-.023.43-.074.633a2.01 2.01 0 0 1-.207.531.828.828 0 0 1-.223.25.48.48 0 0 1-.27.086.444.444 0 0 1-.269-.086.794.794 0 0 1-.226-.25 2.122 2.122 0 0 1-.207-.531 2.645 2.645 0 0 1-.075-.633c0-.308.063-.539.188-.683.125-.145.324-.22.59-.22Zm1.773 2.344h-.457v-1.778h-.476l.101-.539h1.207l.102.54h-.477Zm1.004-1.403c0 .11.008.215.027.325.016.109.04.21.07.312.032.09.063.16.102.21.04.052.078.075.117.075.024 0 .051-.012.079-.035a.223.223 0 0 0 .066-.094 1.864 1.864 0 0 0 .164-.777c0-.156-.023-.266-.066-.328-.047-.063-.13-.094-.243-.094-.117 0-.199.031-.246.09-.047.062-.07.168-.07.316Zm.316-.941c.266 0 .461.074.586.219.125.144.188.375.188.683 0 .215-.024.43-.074.633-.051.207-.121.383-.211.531a.828.828 0 0 1-.223.25.458.458 0 0 1-.266.086.455.455 0 0 1-.273-.086.743.743 0 0 1-.223-.25 2.122 2.122 0 0 1-.207-.531 2.645 2.645 0 0 1-.074-.633c0-.308.063-.539.188-.683.125-.145.32-.22.59-.22"/></g></svg>