<svg width="2000" height="2000" viewBox="0 0 2000 2000" fill="none" xmlns="http://www.w3.org/2000/svg">
<rect width="2000" height="2000" fill="black"></rect>
<g clip-path="url('#clip0_11_607')">
<rect x="0.5" y="0.5" width="99" height="99" stroke="#C5C5C5" stroke-opacity="0.51"></rect>
<rect x="100.5" y="0.5" width="99" height="99" stroke="#C5C5C5" stroke-opacity="0.51"></rect>
<rect x="200.5" y="0.5" width="99" height="99" stroke="#C5C5C5" stroke-opacity="0.51"></rect>
<rect x="300.5" y="0.5" width="99" height="99" stroke="#C5C5C5" stroke-opacity="0.51"></rect>
<rect x="400.5" y="0.5" width="99" height="99" stroke="#C5C5C5" stroke-opacity="0.51"></rect>
<rect x="500.5" y="0.5" width="99" height="99" stroke="#C5C5C5" stroke-opacity="0.51"></rect>
<rect x="600.5" y="0.5" width="99" height="99" stroke="#C5C5C5" stroke-opacity="0.51"></rect>
<rect x="700.5" y="0.5" width="99" height="99" stroke="#C5C5C5" stroke-opacity="0.51"></rect>
<rect x="800.5" y="0.5" width="99" height="99" stroke="#C5C5C5" stroke-opacity="0.51"></rect>
<rect x="900.5" y="0.5" width="99" height="99" stroke="#C5C5C5" stroke-opacity="0.51"></rect>
<rect x="1000.5" y="0.5" width="99" height="99" stroke="#C5C5C5" stroke-opacity="0.51"></rect>
<rect x="1100.5" y="0.5" width="99" height="99" stroke="#C5C5C5" stroke-opacity="0.51"></rect>
<rect x="1200.5" y="0.5" width="99" height="99" stroke="#C5C5C5" stroke-opacity="0.51"></rect>
<rect x="1300.5" y="0.5" width="99" height="99" stroke="#C5C5C5" stroke-opacity="0.51"></rect>
<rect x="1400.5" y="0.5" width="99" height="99" stroke="#C5C5C5" stroke-opacity="0.51"></rect>
<rect x="1500.5" y="0.5" width="99" height="99" stroke="#C5C5C5" stroke-opacity="0.51"></rect>
<rect x="1600.5" y="0.5" width="99" height="99" stroke="#C5C5C5" stroke-opacity="0.51"></rect>
<rect x="1700.5" y="0.5" width="99" height="99" stroke="#C5C5C5" stroke-opacity="0.51"></rect>
<rect x="1800.5" y="0.5" width="99" height="99" stroke="#C5C5C5" stroke-opacity="0.51"></rect>
<rect x="1900.5" y="0.5" width="99" height="99" stroke="#C5C5C5" stroke-opacity="0.51"></rect>
<rect x="0.5" y="100.5" width="99" height="99" stroke="#C5C5C5" stroke-opacity="0.51"></rect>
<rect x="100.5" y="100.5" width="99" height="99" stroke="#C5C5C5" stroke-opacity="0.51"></rect>
<rect x="200.5" y="100.5" width="99" height="99" stroke="#C5C5C5" stroke-opacity="0.51"></rect>
<rect x="300.5" y="100.5" width="99" height="99" stroke="#C5C5C5" stroke-opacity="0.51"></rect>
<rect x="400.5" y="100.5" width="99" height="99" stroke="#C5C5C5" stroke-opacity="0.51"></rect>
<rect x="500.5" y="100.5" width="99" height="99" stroke="#C5C5C5" stroke-opacity="0.51"></rect>
<rect x="600.5" y="100.5" width="99" height="99" stroke="#C5C5C5" stroke-opacity="0.51"></rect>
<rect x="700.5" y="100.5" width="99" height="99" stroke="#C5C5C5" stroke-opacity="0.51"></rect>
<rect x="800.5" y="100.5" width="99" height="99" stroke="#C5C5C5" stroke-opacity="0.51"></rect>
<rect x="900.5" y="100.5" width="99" height="99" stroke="#C5C5C5" stroke-opacity="0.51"></rect>
<rect x="1000.5" y="100.5" width="99" height="99" stroke="#C5C5C5" stroke-opacity="0.51"></rect>
<rect x="1100.5" y="100.5" width="99" height="99" stroke="#C5C5C5" stroke-opacity="0.51"></rect>
<rect x="1200.5" y="100.5" width="99" height="99" stroke="#C5C5C5" stroke-opacity="0.51"></rect>
<rect x="1300.5" y="100.5" width="99" height="99" stroke="#C5C5C5" stroke-opacity="0.51"></rect>
<rect x="1400.5" y="100.5" width="99" height="99" stroke="#C5C5C5" stroke-opacity="0.51"></rect>
<rect x="1500.5" y="100.5" width="99" height="99" stroke="#C5C5C5" stroke-opacity="0.51"></rect>
<rect x="1600.5" y="100.5" width="99" height="99" stroke="#C5C5C5" stroke-opacity="0.51"></rect>
<rect x="1700.5" y="100.5" width="99" height="99" stroke="#C5C5C5" stroke-opacity="0.51"></rect>
<rect x="1800.5" y="100.5" width="99" height="99" stroke="#C5C5C5" stroke-opacity="0.51"></rect>
<rect x="1900.5" y="100.5" width="99" height="99" stroke="#C5C5C5" stroke-opacity="0.51"></rect>
<rect x="0.5" y="200.5" width="99" height="99" stroke="#C5C5C5" stroke-opacity="0.51"></rect>
<rect x="100.5" y="200.5" width="99" height="99" stroke="#C5C5C5" stroke-opacity="0.51"></rect>
<rect x="200.5" y="200.5" width="99" height="99" stroke="#C5C5C5" stroke-opacity="0.51"></rect>
<rect x="300.5" y="200.5" width="99" height="99" stroke="#C5C5C5" stroke-opacity="0.51"></rect>
<rect x="400.5" y="200.5" width="99" height="99" stroke="#C5C5C5" stroke-opacity="0.51"></rect>
<rect x="500.5" y="200.5" width="99" height="99" stroke="#C5C5C5" stroke-opacity="0.51"></rect>
<rect x="600.5" y="200.5" width="99" height="99" stroke="#C5C5C5" stroke-opacity="0.51"></rect>
<rect x="700.5" y="200.5" width="99" height="99" stroke="#C5C5C5" stroke-opacity="0.51"></rect>
<rect x="800.5" y="200.5" width="99" height="99" stroke="#C5C5C5" stroke-opacity="0.51"></rect>
<rect x="900.5" y="200.5" width="99" height="99" stroke="#C5C5C5" stroke-opacity="0.51"></rect>
<rect x="1000.5" y="200.5" width="99" height="99" stroke="#C5C5C5" stroke-opacity="0.51"></rect>
<rect x="1100.5" y="200.5" width="99" height="99" stroke="#C5C5C5" stroke-opacity="0.51"></rect>
<rect x="1200.5" y="200.5" width="99" height="99" stroke="#C5C5C5" stroke-opacity="0.51"></rect>
<rect x="1300.5" y="200.5" width="99" height="99" stroke="#C5C5C5" stroke-opacity="0.51"></rect>
<rect x="1400.5" y="200.5" width="99" height="99" stroke="#C5C5C5" stroke-opacity="0.51"></rect>
<rect x="1500.5" y="200.5" width="99" height="99" stroke="#C5C5C5" stroke-opacity="0.51"></rect>
<rect x="1600.5" y="200.5" width="99" height="99" stroke="#C5C5C5" stroke-opacity="0.51"></rect>
<rect x="1700.5" y="200.5" width="99" height="99" stroke="#C5C5C5" stroke-opacity="0.51"></rect>
<rect x="1800.5" y="200.5" width="99" height="99" stroke="#C5C5C5" stroke-opacity="0.51"></rect>
<rect x="1900.5" y="200.5" width="99" height="99" stroke="#C5C5C5" stroke-opacity="0.51"></rect>
<rect x="0.5" y="300.5" width="99" height="99" stroke="#C5C5C5" stroke-opacity="0.51"></rect>
<rect x="100.5" y="300.5" width="99" height="99" stroke="#C5C5C5" stroke-opacity="0.51"></rect>
<rect x="200.5" y="300.5" width="99" height="99" stroke="#C5C5C5" stroke-opacity="0.51"></rect>
<rect x="300.5" y="300.5" width="99" height="99" stroke="#C5C5C5" stroke-opacity="0.51"></rect>
<rect x="400.5" y="300.5" width="99" height="99" stroke="#C5C5C5" stroke-opacity="0.51"></rect>
<rect x="500.5" y="300.5" width="99" height="99" stroke="#C5C5C5" stroke-opacity="0.51"></rect>
<rect x="600.5" y="300.5" width="99" height="99" stroke="#C5C5C5" stroke-opacity="0.51"></rect>
<rect x="700.5" y="300.5" width="99" height="99" stroke="#C5C5C5" stroke-opacity="0.51"></rect>
<rect x="800.5" y="300.5" width="99" height="99" stroke="#C5C5C5" stroke-opacity="0.51"></rect>
<rect x="900.5" y="300.5" width="99" height="99" stroke="#C5C5C5" stroke-opacity="0.51"></rect>
<rect x="1000.5" y="300.5" width="99" height="99" stroke="#C5C5C5" stroke-opacity="0.51"></rect>
<rect x="1100.5" y="300.5" width="99" height="99" stroke="#C5C5C5" stroke-opacity="0.51"></rect>
<rect x="1200.5" y="300.5" width="99" height="99" stroke="#C5C5C5" stroke-opacity="0.51"></rect>
<rect x="1300.5" y="300.5" width="99" height="99" stroke="#C5C5C5" stroke-opacity="0.51"></rect>
<rect x="1400.5" y="300.5" width="99" height="99" stroke="#C5C5C5" stroke-opacity="0.51"></rect>
<rect x="1500.5" y="300.5" width="99" height="99" stroke="#C5C5C5" stroke-opacity="0.51"></rect>
<rect x="1600.5" y="300.5" width="99" height="99" stroke="#C5C5C5" stroke-opacity="0.51"></rect>
<rect x="1700.5" y="300.5" width="99" height="99" stroke="#C5C5C5" stroke-opacity="0.51"></rect>
<rect x="1800.5" y="300.5" width="99" height="99" stroke="#C5C5C5" stroke-opacity="0.51"></rect>
<rect x="1900.5" y="300.5" width="99" height="99" stroke="#C5C5C5" stroke-opacity="0.51"></rect>
<rect x="0.5" y="400.5" width="99" height="99" stroke="#C5C5C5" stroke-opacity="0.51"></rect>
<rect x="100.5" y="400.5" width="99" height="99" stroke="#C5C5C5" stroke-opacity="0.51"></rect>
<rect x="200.5" y="400.5" width="99" height="99" stroke="#C5C5C5" stroke-opacity="0.51"></rect>
<rect x="300.5" y="400.5" width="99" height="99" stroke="#C5C5C5" stroke-opacity="0.51"></rect>
<rect x="400.5" y="400.5" width="99" height="99" stroke="#C5C5C5" stroke-opacity="0.51"></rect>
<rect x="500.5" y="400.5" width="99" height="99" stroke="#C5C5C5" stroke-opacity="0.51"></rect>
<rect x="600.5" y="400.5" width="99" height="99" stroke="#C5C5C5" stroke-opacity="0.51"></rect>
<rect x="700.5" y="400.5" width="99" height="99" stroke="#C5C5C5" stroke-opacity="0.51"></rect>
<rect x="800.5" y="400.5" width="99" height="99" stroke="#C5C5C5" stroke-opacity="0.51"></rect>
<rect x="900.5" y="400.5" width="99" height="99" stroke="#C5C5C5" stroke-opacity="0.51"></rect>
<rect x="1000.5" y="400.5" width="99" height="99" stroke="#C5C5C5" stroke-opacity="0.51"></rect>
<rect x="1100.5" y="400.5" width="99" height="99" stroke="#C5C5C5" stroke-opacity="0.51"></rect>
<rect x="1200.5" y="400.5" width="99" height="99" stroke="#C5C5C5" stroke-opacity="0.51"></rect>
<rect x="1300.5" y="400.5" width="99" height="99" stroke="#C5C5C5" stroke-opacity="0.51"></rect>
<rect x="1400.5" y="400.5" width="99" height="99" stroke="#C5C5C5" stroke-opacity="0.51"></rect>
<rect x="1500.5" y="400.5" width="99" height="99" stroke="#C5C5C5" stroke-opacity="0.51"></rect>
<rect x="1600.5" y="400.5" width="99" height="99" stroke="#C5C5C5" stroke-opacity="0.51"></rect>
<rect x="1700.5" y="400.5" width="99" height="99" stroke="#C5C5C5" stroke-opacity="0.51"></rect>
<rect x="1800.5" y="400.5" width="99" height="99" stroke="#C5C5C5" stroke-opacity="0.51"></rect>
<rect x="1900.5" y="400.5" width="99" height="99" stroke="#C5C5C5" stroke-opacity="0.51"></rect>
<rect x="0.5" y="500.5" width="99" height="99" stroke="#C5C5C5" stroke-opacity="0.51"></rect>
<rect x="100.5" y="500.5" width="99" height="99" stroke="#C5C5C5" stroke-opacity="0.51"></rect>
<rect x="200.5" y="500.5" width="99" height="99" stroke="#C5C5C5" stroke-opacity="0.51"></rect>
<rect x="300.5" y="500.5" width="99" height="99" stroke="#C5C5C5" stroke-opacity="0.51"></rect>
<rect x="400.5" y="500.5" width="99" height="99" stroke="#C5C5C5" stroke-opacity="0.51"></rect>
<rect x="500.5" y="500.5" width="99" height="99" stroke="#C5C5C5" stroke-opacity="0.51"></rect>
<rect x="600.5" y="500.5" width="99" height="99" stroke="#C5C5C5" stroke-opacity="0.51"></rect>
<rect x="700.5" y="500.5" width="99" height="99" stroke="#C5C5C5" stroke-opacity="0.51"></rect>
<rect x="800.5" y="500.5" width="99" height="99" stroke="#C5C5C5" stroke-opacity="0.51"></rect>
<rect x="900.5" y="500.5" width="99" height="99" stroke="#C5C5C5" stroke-opacity="0.51"></rect>
<rect x="1000.5" y="500.5" width="99" height="99" stroke="#C5C5C5" stroke-opacity="0.51"></rect>
<rect x="1100.5" y="500.5" width="99" height="99" stroke="#C5C5C5" stroke-opacity="0.51"></rect>
<rect x="1200.5" y="500.5" width="99" height="99" stroke="#C5C5C5" stroke-opacity="0.51"></rect>
<rect x="1300.5" y="500.5" width="99" height="99" stroke="#C5C5C5" stroke-opacity="0.51"></rect>
<rect x="1400.5" y="500.5" width="99" height="99" stroke="#C5C5C5" stroke-opacity="0.51"></rect>
<rect x="1500.5" y="500.5" width="99" height="99" stroke="#C5C5C5" stroke-opacity="0.51"></rect>
<rect x="1600.5" y="500.5" width="99" height="99" stroke="#C5C5C5" stroke-opacity="0.51"></rect>
<rect x="1700.5" y="500.5" width="99" height="99" stroke="#C5C5C5" stroke-opacity="0.51"></rect>
<rect x="1800.5" y="500.5" width="99" height="99" stroke="#C5C5C5" stroke-opacity="0.51"></rect>
<rect x="1900.5" y="500.5" width="99" height="99" stroke="#C5C5C5" stroke-opacity="0.51"></rect>
<rect x="0.5" y="600.5" width="99" height="99" stroke="#C5C5C5" stroke-opacity="0.51"></rect>
<rect x="100.5" y="600.5" width="99" height="99" stroke="#C5C5C5" stroke-opacity="0.51"></rect>
<rect x="200.5" y="600.5" width="99" height="99" stroke="#C5C5C5" stroke-opacity="0.51"></rect>
<rect x="300.5" y="600.5" width="99" height="99" stroke="#C5C5C5" stroke-opacity="0.51"></rect>
<rect x="400.5" y="600.5" width="99" height="99" stroke="#C5C5C5" stroke-opacity="0.51"></rect>
<rect x="500.5" y="600.5" width="99" height="99" stroke="#C5C5C5" stroke-opacity="0.51"></rect>
<rect x="600.5" y="600.5" width="99" height="99" stroke="#C5C5C5" stroke-opacity="0.51"></rect>
<rect x="700.5" y="600.5" width="99" height="99" stroke="#C5C5C5" stroke-opacity="0.51"></rect>
<rect x="800.5" y="600.5" width="99" height="99" stroke="#C5C5C5" stroke-opacity="0.51"></rect>
<rect x="900.5" y="600.5" width="99" height="99" stroke="#C5C5C5" stroke-opacity="0.51"></rect>
<rect x="1000.5" y="600.5" width="99" height="99" stroke="#C5C5C5" stroke-opacity="0.51"></rect>
<rect x="1100.5" y="600.5" width="99" height="99" stroke="#C5C5C5" stroke-opacity="0.51"></rect>
<rect x="1200.5" y="600.5" width="99" height="99" stroke="#C5C5C5" stroke-opacity="0.51"></rect>
<rect x="1300.5" y="600.5" width="99" height="99" stroke="#C5C5C5" stroke-opacity="0.51"></rect>
<rect x="1400.5" y="600.5" width="99" height="99" stroke="#C5C5C5" stroke-opacity="0.51"></rect>
<rect x="1500.5" y="600.5" width="99" height="99" stroke="#C5C5C5" stroke-opacity="0.51"></rect>
<rect x="1600.5" y="600.5" width="99" height="99" stroke="#C5C5C5" stroke-opacity="0.51"></rect>
<rect x="1700.5" y="600.5" width="99" height="99" stroke="#C5C5C5" stroke-opacity="0.51"></rect>
<rect x="1800.5" y="600.5" width="99" height="99" stroke="#C5C5C5" stroke-opacity="0.51"></rect>
<rect x="1900.5" y="600.5" width="99" height="99" stroke="#C5C5C5" stroke-opacity="0.51"></rect>
<rect x="0.5" y="700.5" width="99" height="99" stroke="#C5C5C5" stroke-opacity="0.51"></rect>
<rect x="100.5" y="700.5" width="99" height="99" stroke="#C5C5C5" stroke-opacity="0.51"></rect>
<rect x="200.5" y="700.5" width="99" height="99" stroke="#C5C5C5" stroke-opacity="0.51"></rect>
<rect x="300.5" y="700.5" width="99" height="99" stroke="#C5C5C5" stroke-opacity="0.51"></rect>
<rect x="400.5" y="700.5" width="99" height="99" stroke="#C5C5C5" stroke-opacity="0.51"></rect>
<rect x="500.5" y="700.5" width="99" height="99" stroke="#C5C5C5" stroke-opacity="0.51"></rect>
<rect x="600.5" y="700.5" width="99" height="99" stroke="#C5C5C5" stroke-opacity="0.51"></rect>
<rect x="700.5" y="700.5" width="99" height="99" stroke="#C5C5C5" stroke-opacity="0.51"></rect>
<rect x="800.5" y="700.5" width="99" height="99" stroke="#C5C5C5" stroke-opacity="0.51"></rect>
<rect x="900.5" y="700.5" width="99" height="99" stroke="#C5C5C5" stroke-opacity="0.51"></rect>
<rect x="1000.5" y="700.5" width="99" height="99" stroke="#C5C5C5" stroke-opacity="0.51"></rect>
<rect x="1100.5" y="700.5" width="99" height="99" stroke="#C5C5C5" stroke-opacity="0.51"></rect>
<rect x="1200.5" y="700.5" width="99" height="99" stroke="#C5C5C5" stroke-opacity="0.51"></rect>
<rect x="1300.5" y="700.5" width="99" height="99" stroke="#C5C5C5" stroke-opacity="0.51"></rect>
<rect x="1400.5" y="700.5" width="99" height="99" stroke="#C5C5C5" stroke-opacity="0.51"></rect>
<rect x="1500.5" y="700.5" width="99" height="99" stroke="#C5C5C5" stroke-opacity="0.51"></rect>
<rect x="1600.5" y="700.5" width="99" height="99" stroke="#C5C5C5" stroke-opacity="0.51"></rect>
<rect x="1700.5" y="700.5" width="99" height="99" stroke="#C5C5C5" stroke-opacity="0.51"></rect>
<rect x="1800.5" y="700.5" width="99" height="99" stroke="#C5C5C5" stroke-opacity="0.51"></rect>
<rect x="1900.5" y="700.5" width="99" height="99" stroke="#C5C5C5" stroke-opacity="0.51"></rect>
<rect x="0.5" y="800.5" width="99" height="99" stroke="#C5C5C5" stroke-opacity="0.51"></rect>
<rect x="100.5" y="800.5" width="99" height="99" stroke="#C5C5C5" stroke-opacity="0.51"></rect>
<rect x="200.5" y="800.5" width="99" height="99" stroke="#C5C5C5" stroke-opacity="0.51"></rect>
<rect x="300.5" y="800.5" width="99" height="99" stroke="#C5C5C5" stroke-opacity="0.51"></rect>
<rect x="400.5" y="800.5" width="99" height="99" stroke="#C5C5C5" stroke-opacity="0.51"></rect>
<rect x="500.5" y="800.5" width="99" height="99" stroke="#C5C5C5" stroke-opacity="0.51"></rect>
<rect x="600.5" y="800.5" width="99" height="99" stroke="#C5C5C5" stroke-opacity="0.51"></rect>
<rect x="700.5" y="800.5" width="99" height="99" stroke="#C5C5C5" stroke-opacity="0.51"></rect>
<rect x="800.5" y="800.5" width="99" height="99" stroke="#C5C5C5" stroke-opacity="0.51"></rect>
<rect x="900.5" y="800.5" width="99" height="99" stroke="#C5C5C5" stroke-opacity="0.51"></rect>
<rect x="1000.5" y="800.5" width="99" height="99" stroke="#C5C5C5" stroke-opacity="0.51"></rect>
<rect x="1100.5" y="800.5" width="99" height="99" stroke="#C5C5C5" stroke-opacity="0.51"></rect>
<rect x="1200.5" y="800.5" width="99" height="99" stroke="#C5C5C5" stroke-opacity="0.51"></rect>
<rect x="1300.5" y="800.5" width="99" height="99" stroke="#C5C5C5" stroke-opacity="0.51"></rect>
<rect x="1400.5" y="800.5" width="99" height="99" stroke="#C5C5C5" stroke-opacity="0.51"></rect>
<rect x="1500.5" y="800.5" width="99" height="99" stroke="#C5C5C5" stroke-opacity="0.51"></rect>
<rect x="1600.5" y="800.5" width="99" height="99" stroke="#C5C5C5" stroke-opacity="0.51"></rect>
<rect x="1700.5" y="800.5" width="99" height="99" stroke="#C5C5C5" stroke-opacity="0.51"></rect>
<rect x="1800.5" y="800.5" width="99" height="99" stroke="#C5C5C5" stroke-opacity="0.51"></rect>
<rect x="1900.5" y="800.5" width="99" height="99" stroke="#C5C5C5" stroke-opacity="0.51"></rect>
<rect x="0.5" y="900.5" width="99" height="99" stroke="#C5C5C5" stroke-opacity="0.51"></rect>
<rect x="100.5" y="900.5" width="99" height="99" stroke="#C5C5C5" stroke-opacity="0.51"></rect>
<rect x="200.5" y="900.5" width="99" height="99" stroke="#C5C5C5" stroke-opacity="0.51"></rect>
<rect x="300.5" y="900.5" width="99" height="99" stroke="#C5C5C5" stroke-opacity="0.51"></rect>
<rect x="400.5" y="900.5" width="99" height="99" stroke="#C5C5C5" stroke-opacity="0.51"></rect>
<rect x="500.5" y="900.5" width="99" height="99" stroke="#C5C5C5" stroke-opacity="0.51"></rect>
<rect x="600.5" y="900.5" width="99" height="99" stroke="#C5C5C5" stroke-opacity="0.51"></rect>
<rect x="700.5" y="900.5" width="99" height="99" stroke="#C5C5C5" stroke-opacity="0.51"></rect>
<rect x="800.5" y="900.5" width="99" height="99" stroke="#C5C5C5" stroke-opacity="0.51"></rect>
<rect x="900.5" y="900.5" width="99" height="99" stroke="#C5C5C5" stroke-opacity="0.51"></rect>
<rect x="1000.5" y="900.5" width="99" height="99" stroke="#C5C5C5" stroke-opacity="0.51"></rect>
<rect x="1100.5" y="900.5" width="99" height="99" stroke="#C5C5C5" stroke-opacity="0.51"></rect>
<rect x="1200.5" y="900.5" width="99" height="99" stroke="#C5C5C5" stroke-opacity="0.51"></rect>
<rect x="1300.5" y="900.5" width="99" height="99" stroke="#C5C5C5" stroke-opacity="0.51"></rect>
<rect x="1400.5" y="900.5" width="99" height="99" stroke="#C5C5C5" stroke-opacity="0.51"></rect>
<rect x="1500.5" y="900.5" width="99" height="99" stroke="#C5C5C5" stroke-opacity="0.51"></rect>
<rect x="1600.5" y="900.5" width="99" height="99" stroke="#C5C5C5" stroke-opacity="0.51"></rect>
<rect x="1700.5" y="900.5" width="99" height="99" stroke="#C5C5C5" stroke-opacity="0.51"></rect>
<rect x="1800.5" y="900.5" width="99" height="99" stroke="#C5C5C5" stroke-opacity="0.51"></rect>
<rect x="1900.5" y="900.5" width="99" height="99" stroke="#C5C5C5" stroke-opacity="0.51"></rect>
<rect x="0.5" y="1000.5" width="99" height="99" stroke="#C5C5C5" stroke-opacity="0.51"></rect>
<rect x="100.5" y="1000.5" width="99" height="99" stroke="#C5C5C5" stroke-opacity="0.51"></rect>
<rect x="200.5" y="1000.5" width="99" height="99" stroke="#C5C5C5" stroke-opacity="0.51"></rect>
<rect x="300.5" y="1000.5" width="99" height="99" stroke="#C5C5C5" stroke-opacity="0.51"></rect>
<rect x="400.5" y="1000.5" width="99" height="99" stroke="#C5C5C5" stroke-opacity="0.51"></rect>
<rect x="500.5" y="1000.5" width="99" height="99" stroke="#C5C5C5" stroke-opacity="0.51"></rect>
<rect x="600.5" y="1000.5" width="99" height="99" stroke="#C5C5C5" stroke-opacity="0.51"></rect>
<rect x="700.5" y="1000.5" width="99" height="99" stroke="#C5C5C5" stroke-opacity="0.51"></rect>
<rect x="800.5" y="1000.5" width="99" height="99" stroke="#C5C5C5" stroke-opacity="0.51"></rect>
<rect x="900.5" y="1000.5" width="99" height="99" stroke="#C5C5C5" stroke-opacity="0.51"></rect>
<rect x="1000.5" y="1000.5" width="99" height="99" stroke="#C5C5C5" stroke-opacity="0.51"></rect>
<rect x="1100.5" y="1000.5" width="99" height="99" stroke="#C5C5C5" stroke-opacity="0.51"></rect>
<rect x="1200.5" y="1000.5" width="99" height="99" stroke="#C5C5C5" stroke-opacity="0.51"></rect>
<rect x="1300.5" y="1000.5" width="99" height="99" stroke="#C5C5C5" stroke-opacity="0.51"></rect>
<rect x="1400.5" y="1000.5" width="99" height="99" stroke="#C5C5C5" stroke-opacity="0.51"></rect>
<rect x="1500.5" y="1000.5" width="99" height="99" stroke="#C5C5C5" stroke-opacity="0.51"></rect>
<rect x="1600.5" y="1000.5" width="99" height="99" stroke="#C5C5C5" stroke-opacity="0.51"></rect>
<rect x="1700.5" y="1000.5" width="99" height="99" stroke="#C5C5C5" stroke-opacity="0.51"></rect>
<rect x="1800.5" y="1000.5" width="99" height="99" stroke="#C5C5C5" stroke-opacity="0.51"></rect>
<rect x="1900.5" y="1000.5" width="99" height="99" stroke="#C5C5C5" stroke-opacity="0.51"></rect>
<rect x="0.5" y="1100.5" width="99" height="99" stroke="#C5C5C5" stroke-opacity="0.51"></rect>
<rect x="100.5" y="1100.5" width="99" height="99" stroke="#C5C5C5" stroke-opacity="0.51"></rect>
<rect x="200.5" y="1100.5" width="99" height="99" stroke="#C5C5C5" stroke-opacity="0.51"></rect>
<rect x="300.5" y="1100.5" width="99" height="99" stroke="#C5C5C5" stroke-opacity="0.51"></rect>
<rect x="400.5" y="1100.5" width="99" height="99" stroke="#C5C5C5" stroke-opacity="0.51"></rect>
<rect x="500.5" y="1100.5" width="99" height="99" stroke="#C5C5C5" stroke-opacity="0.51"></rect>
<rect x="600.5" y="1100.5" width="99" height="99" stroke="#C5C5C5" stroke-opacity="0.51"></rect>
<rect x="700.5" y="1100.5" width="99" height="99" stroke="#C5C5C5" stroke-opacity="0.51"></rect>
<rect x="800.5" y="1100.5" width="99" height="99" stroke="#C5C5C5" stroke-opacity="0.51"></rect>
<rect x="900.5" y="1100.5" width="99" height="99" stroke="#C5C5C5" stroke-opacity="0.51"></rect>
<rect x="1000.5" y="1100.5" width="99" height="99" stroke="#C5C5C5" stroke-opacity="0.51"></rect>
<rect x="1100.5" y="1100.5" width="99" height="99" stroke="#C5C5C5" stroke-opacity="0.51"></rect>
<rect x="1200.5" y="1100.5" width="99" height="99" stroke="#C5C5C5" stroke-opacity="0.51"></rect>
<rect x="1300.5" y="1100.5" width="99" height="99" stroke="#C5C5C5" stroke-opacity="0.51"></rect>
<rect x="1400.5" y="1100.5" width="99" height="99" stroke="#C5C5C5" stroke-opacity="0.51"></rect>
<rect x="1500.5" y="1100.5" width="99" height="99" stroke="#C5C5C5" stroke-opacity="0.51"></rect>
<rect x="1600.5" y="1100.5" width="99" height="99" stroke="#C5C5C5" stroke-opacity="0.51"></rect>
<rect x="1700.5" y="1100.5" width="99" height="99" stroke="#C5C5C5" stroke-opacity="0.51"></rect>
<rect x="1800.5" y="1100.5" width="99" height="99" stroke="#C5C5C5" stroke-opacity="0.51"></rect>
<rect x="1900.5" y="1100.5" width="99" height="99" stroke="#C5C5C5" stroke-opacity="0.51"></rect>
<rect x="0.5" y="1200.5" width="99" height="99" stroke="#C5C5C5" stroke-opacity="0.51"></rect>
<rect x="100.5" y="1200.5" width="99" height="99" stroke="#C5C5C5" stroke-opacity="0.51"></rect>
<rect x="200.5" y="1200.5" width="99" height="99" stroke="#C5C5C5" stroke-opacity="0.51"></rect>
<rect x="300.5" y="1200.5" width="99" height="99" stroke="#C5C5C5" stroke-opacity="0.51"></rect>
<rect x="400.5" y="1200.5" width="99" height="99" stroke="#C5C5C5" stroke-opacity="0.51"></rect>
<rect x="500.5" y="1200.5" width="99" height="99" stroke="#C5C5C5" stroke-opacity="0.51"></rect>
<rect x="600.5" y="1200.5" width="99" height="99" stroke="#C5C5C5" stroke-opacity="0.51"></rect>
<rect x="700.5" y="1200.5" width="99" height="99" stroke="#C5C5C5" stroke-opacity="0.51"></rect>
<rect x="800.5" y="1200.5" width="99" height="99" stroke="#C5C5C5" stroke-opacity="0.51"></rect>
<rect x="900.5" y="1200.5" width="99" height="99" stroke="#C5C5C5" stroke-opacity="0.51"></rect>
<rect x="1000.5" y="1200.5" width="99" height="99" stroke="#C5C5C5" stroke-opacity="0.51"></rect>
<rect x="1100.5" y="1200.5" width="99" height="99" stroke="#C5C5C5" stroke-opacity="0.51"></rect>
<rect x="1200.5" y="1200.5" width="99" height="99" stroke="#C5C5C5" stroke-opacity="0.51"></rect>
<rect x="1300.5" y="1200.5" width="99" height="99" stroke="#C5C5C5" stroke-opacity="0.51"></rect>
<rect x="1400.5" y="1200.5" width="99" height="99" stroke="#C5C5C5" stroke-opacity="0.51"></rect>
<rect x="1500.5" y="1200.5" width="99" height="99" stroke="#C5C5C5" stroke-opacity="0.51"></rect>
<rect x="1600.5" y="1200.5" width="99" height="99" stroke="#C5C5C5" stroke-opacity="0.51"></rect>
<rect x="1700.5" y="1200.5" width="99" height="99" stroke="#C5C5C5" stroke-opacity="0.51"></rect>
<rect x="1800.5" y="1200.5" width="99" height="99" stroke="#C5C5C5" stroke-opacity="0.51"></rect>
<rect x="1900.5" y="1200.5" width="99" height="99" stroke="#C5C5C5" stroke-opacity="0.51"></rect>
<rect x="0.5" y="1300.5" width="99" height="99" stroke="#C5C5C5" stroke-opacity="0.51"></rect>
<rect x="100.5" y="1300.5" width="99" height="99" stroke="#C5C5C5" stroke-opacity="0.51"></rect>
<rect x="200.5" y="1300.5" width="99" height="99" stroke="#C5C5C5" stroke-opacity="0.51"></rect>
<rect x="300.5" y="1300.5" width="99" height="99" stroke="#C5C5C5" stroke-opacity="0.51"></rect>
<rect x="400.5" y="1300.5" width="99" height="99" stroke="#C5C5C5" stroke-opacity="0.51"></rect>
<rect x="500.5" y="1300.5" width="99" height="99" stroke="#C5C5C5" stroke-opacity="0.51"></rect>
<rect x="600.5" y="1300.5" width="99" height="99" stroke="#C5C5C5" stroke-opacity="0.51"></rect>
<rect x="700.5" y="1300.5" width="99" height="99" stroke="#C5C5C5" stroke-opacity="0.51"></rect>
<rect x="800.5" y="1300.5" width="99" height="99" stroke="#C5C5C5" stroke-opacity="0.51"></rect>
<rect x="900.5" y="1300.5" width="99" height="99" stroke="#C5C5C5" stroke-opacity="0.51"></rect>
<rect x="1000.5" y="1300.5" width="99" height="99" stroke="#C5C5C5" stroke-opacity="0.51"></rect>
<rect x="1100.5" y="1300.5" width="99" height="99" stroke="#C5C5C5" stroke-opacity="0.51"></rect>
<rect x="1200.5" y="1300.5" width="99" height="99" stroke="#C5C5C5" stroke-opacity="0.51"></rect>
<rect x="1300.5" y="1300.5" width="99" height="99" stroke="#C5C5C5" stroke-opacity="0.51"></rect>
<rect x="1400.5" y="1300.5" width="99" height="99" stroke="#C5C5C5" stroke-opacity="0.51"></rect>
<rect x="1500.5" y="1300.5" width="99" height="99" stroke="#C5C5C5" stroke-opacity="0.51"></rect>
<rect x="1600.5" y="1300.5" width="99" height="99" stroke="#C5C5C5" stroke-opacity="0.51"></rect>
<rect x="1700.5" y="1300.5" width="99" height="99" stroke="#C5C5C5" stroke-opacity="0.51"></rect>
<rect x="1800.5" y="1300.5" width="99" height="99" stroke="#C5C5C5" stroke-opacity="0.51"></rect>
<rect x="1900.5" y="1300.5" width="99" height="99" stroke="#C5C5C5" stroke-opacity="0.51"></rect>
<rect x="0.5" y="1400.5" width="99" height="99" stroke="#C5C5C5" stroke-opacity="0.51"></rect>
<rect x="100.5" y="1400.5" width="99" height="99" stroke="#C5C5C5" stroke-opacity="0.51"></rect>
<rect x="200.5" y="1400.5" width="99" height="99" stroke="#C5C5C5" stroke-opacity="0.51"></rect>
<rect x="300.5" y="1400.5" width="99" height="99" stroke="#C5C5C5" stroke-opacity="0.51"></rect>
<rect x="400.5" y="1400.5" width="99" height="99" stroke="#C5C5C5" stroke-opacity="0.51"></rect>
<rect x="500.5" y="1400.5" width="99" height="99" stroke="#C5C5C5" stroke-opacity="0.51"></rect>
<rect x="600.5" y="1400.5" width="99" height="99" stroke="#C5C5C5" stroke-opacity="0.51"></rect>
<rect x="700.5" y="1400.5" width="99" height="99" stroke="#C5C5C5" stroke-opacity="0.51"></rect>
<rect x="800.5" y="1400.5" width="99" height="99" stroke="#C5C5C5" stroke-opacity="0.51"></rect>
<rect x="900.5" y="1400.5" width="99" height="99" stroke="#C5C5C5" stroke-opacity="0.51"></rect>
<rect x="1000.5" y="1400.5" width="99" height="99" stroke="#C5C5C5" stroke-opacity="0.51"></rect>
<rect x="1100.5" y="1400.5" width="99" height="99" stroke="#C5C5C5" stroke-opacity="0.51"></rect>
<rect x="1200.5" y="1400.5" width="99" height="99" stroke="#C5C5C5" stroke-opacity="0.51"></rect>
<rect x="1300.5" y="1400.5" width="99" height="99" stroke="#C5C5C5" stroke-opacity="0.51"></rect>
<rect x="1400.5" y="1400.5" width="99" height="99" stroke="#C5C5C5" stroke-opacity="0.51"></rect>
<rect x="1500.5" y="1400.5" width="99" height="99" stroke="#C5C5C5" stroke-opacity="0.51"></rect>
<rect x="1600.5" y="1400.5" width="99" height="99" stroke="#C5C5C5" stroke-opacity="0.51"></rect>
<rect x="1700.5" y="1400.5" width="99" height="99" stroke="#C5C5C5" stroke-opacity="0.51"></rect>
<rect x="1800.5" y="1400.5" width="99" height="99" stroke="#C5C5C5" stroke-opacity="0.51"></rect>
<rect x="1900.5" y="1400.5" width="99" height="99" stroke="#C5C5C5" stroke-opacity="0.51"></rect>
<rect x="0.5" y="1500.5" width="99" height="99" stroke="#C5C5C5" stroke-opacity="0.51"></rect>
<rect x="100.5" y="1500.5" width="99" height="99" stroke="#C5C5C5" stroke-opacity="0.51"></rect>
<rect x="200.5" y="1500.5" width="99" height="99" stroke="#C5C5C5" stroke-opacity="0.51"></rect>
<rect x="300.5" y="1500.5" width="99" height="99" stroke="#C5C5C5" stroke-opacity="0.51"></rect>
<rect x="400.5" y="1500.5" width="99" height="99" stroke="#C5C5C5" stroke-opacity="0.51"></rect>
<rect x="500.5" y="1500.5" width="99" height="99" stroke="#C5C5C5" stroke-opacity="0.51"></rect>
<rect x="600.5" y="1500.5" width="99" height="99" stroke="#C5C5C5" stroke-opacity="0.51"></rect>
<rect x="700.5" y="1500.5" width="99" height="99" stroke="#C5C5C5" stroke-opacity="0.51"></rect>
<rect x="800.5" y="1500.5" width="99" height="99" stroke="#C5C5C5" stroke-opacity="0.51"></rect>
<rect x="900.5" y="1500.5" width="99" height="99" stroke="#C5C5C5" stroke-opacity="0.51"></rect>
<rect x="1000.5" y="1500.5" width="99" height="99" stroke="#C5C5C5" stroke-opacity="0.51"></rect>
<rect x="1100.5" y="1500.5" width="99" height="99" stroke="#C5C5C5" stroke-opacity="0.51"></rect>
<rect x="1200.5" y="1500.5" width="99" height="99" stroke="#C5C5C5" stroke-opacity="0.51"></rect>
<rect x="1300.5" y="1500.5" width="99" height="99" stroke="#C5C5C5" stroke-opacity="0.51"></rect>
<rect x="1400.5" y="1500.5" width="99" height="99" stroke="#C5C5C5" stroke-opacity="0.51"></rect>
<rect x="1500.5" y="1500.5" width="99" height="99" stroke="#C5C5C5" stroke-opacity="0.51"></rect>
<rect x="1600.5" y="1500.5" width="99" height="99" stroke="#C5C5C5" stroke-opacity="0.51"></rect>
<rect x="1700.5" y="1500.5" width="99" height="99" stroke="#C5C5C5" stroke-opacity="0.51"></rect>
<rect x="1800.5" y="1500.5" width="99" height="99" stroke="#C5C5C5" stroke-opacity="0.51"></rect>
<rect x="1900.5" y="1500.5" width="99" height="99" stroke="#C5C5C5" stroke-opacity="0.51"></rect>
<rect x="0.5" y="1600.5" width="99" height="99" stroke="#C5C5C5" stroke-opacity="0.51"></rect>
<rect x="100.5" y="1600.5" width="99" height="99" stroke="#C5C5C5" stroke-opacity="0.51"></rect>
<rect x="200.5" y="1600.5" width="99" height="99" stroke="#C5C5C5" stroke-opacity="0.51"></rect>
<rect x="300.5" y="1600.5" width="99" height="99" stroke="#C5C5C5" stroke-opacity="0.51"></rect>
<rect x="400.5" y="1600.5" width="99" height="99" stroke="#C5C5C5" stroke-opacity="0.51"></rect>
<rect x="500.5" y="1600.5" width="99" height="99" stroke="#C5C5C5" stroke-opacity="0.51"></rect>
<rect x="600.5" y="1600.5" width="99" height="99" stroke="#C5C5C5" stroke-opacity="0.51"></rect>
<rect x="700.5" y="1600.5" width="99" height="99" stroke="#C5C5C5" stroke-opacity="0.51"></rect>
<rect x="800.5" y="1600.5" width="99" height="99" stroke="#C5C5C5" stroke-opacity="0.51"></rect>
<rect x="900.5" y="1600.5" width="99" height="99" stroke="#C5C5C5" stroke-opacity="0.51"></rect>
<rect x="1000.5" y="1600.5" width="99" height="99" stroke="#C5C5C5" stroke-opacity="0.51"></rect>
<rect x="1100.5" y="1600.5" width="99" height="99" stroke="#C5C5C5" stroke-opacity="0.51"></rect>
<rect x="1200.5" y="1600.5" width="99" height="99" stroke="#C5C5C5" stroke-opacity="0.51"></rect>
<rect x="1300.5" y="1600.5" width="99" height="99" stroke="#C5C5C5" stroke-opacity="0.51"></rect>
<rect x="1400.5" y="1600.5" width="99" height="99" stroke="#C5C5C5" stroke-opacity="0.51"></rect>
<rect x="1500.5" y="1600.5" width="99" height="99" stroke="#C5C5C5" stroke-opacity="0.51"></rect>
<rect x="1600.5" y="1600.5" width="99" height="99" stroke="#C5C5C5" stroke-opacity="0.51"></rect>
<rect x="1700.5" y="1600.5" width="99" height="99" stroke="#C5C5C5" stroke-opacity="0.51"></rect>
<rect x="1800.5" y="1600.5" width="99" height="99" stroke="#C5C5C5" stroke-opacity="0.51"></rect>
<rect x="1900.5" y="1600.5" width="99" height="99" stroke="#C5C5C5" stroke-opacity="0.51"></rect>
<rect x="0.5" y="1700.5" width="99" height="99" stroke="#C5C5C5" stroke-opacity="0.51"></rect>
<rect x="100.5" y="1700.5" width="99" height="99" stroke="#C5C5C5" stroke-opacity="0.51"></rect>
<rect x="200.5" y="1700.5" width="99" height="99" stroke="#C5C5C5" stroke-opacity="0.51"></rect>
<rect x="300.5" y="1700.5" width="99" height="99" stroke="#C5C5C5" stroke-opacity="0.51"></rect>
<rect x="400.5" y="1700.5" width="99" height="99" stroke="#C5C5C5" stroke-opacity="0.51"></rect>
<rect x="500.5" y="1700.5" width="99" height="99" stroke="#C5C5C5" stroke-opacity="0.51"></rect>
<rect x="600.5" y="1700.5" width="99" height="99" stroke="#C5C5C5" stroke-opacity="0.51"></rect>
<rect x="700.5" y="1700.5" width="99" height="99" stroke="#C5C5C5" stroke-opacity="0.51"></rect>
<rect x="800.5" y="1700.5" width="99" height="99" stroke="#C5C5C5" stroke-opacity="0.51"></rect>
<rect x="900.5" y="1700.5" width="99" height="99" stroke="#C5C5C5" stroke-opacity="0.51"></rect>
<rect x="1000.5" y="1700.5" width="99" height="99" stroke="#C5C5C5" stroke-opacity="0.51"></rect>
<rect x="1100.5" y="1700.5" width="99" height="99" stroke="#C5C5C5" stroke-opacity="0.51"></rect>
<rect x="1200.5" y="1700.5" width="99" height="99" stroke="#C5C5C5" stroke-opacity="0.51"></rect>
<rect x="1300.5" y="1700.5" width="99" height="99" stroke="#C5C5C5" stroke-opacity="0.51"></rect>
<rect x="1400.5" y="1700.5" width="99" height="99" stroke="#C5C5C5" stroke-opacity="0.51"></rect>
<rect x="1500.5" y="1700.5" width="99" height="99" stroke="#C5C5C5" stroke-opacity="0.51"></rect>
<rect x="1600.5" y="1700.5" width="99" height="99" stroke="#C5C5C5" stroke-opacity="0.51"></rect>
<rect x="1700.5" y="1700.5" width="99" height="99" stroke="#C5C5C5" stroke-opacity="0.51"></rect>
<rect x="1800.5" y="1700.5" width="99" height="99" stroke="#C5C5C5" stroke-opacity="0.51"></rect>
<rect x="1900.5" y="1700.5" width="99" height="99" stroke="#C5C5C5" stroke-opacity="0.51"></rect>
<rect x="0.5" y="1800.5" width="99" height="99" stroke="#C5C5C5" stroke-opacity="0.51"></rect>
<rect x="100.5" y="1800.5" width="99" height="99" stroke="#C5C5C5" stroke-opacity="0.51"></rect>
<rect x="200.5" y="1800.5" width="99" height="99" stroke="#C5C5C5" stroke-opacity="0.51"></rect>
<rect x="300.5" y="1800.5" width="99" height="99" stroke="#C5C5C5" stroke-opacity="0.51"></rect>
<rect x="400.5" y="1800.5" width="99" height="99" stroke="#C5C5C5" stroke-opacity="0.51"></rect>
<rect x="500.5" y="1800.5" width="99" height="99" stroke="#C5C5C5" stroke-opacity="0.51"></rect>
<rect x="600.5" y="1800.5" width="99" height="99" stroke="#C5C5C5" stroke-opacity="0.51"></rect>
<rect x="700.5" y="1800.5" width="99" height="99" stroke="#C5C5C5" stroke-opacity="0.51"></rect>
<rect x="800.5" y="1800.5" width="99" height="99" stroke="#C5C5C5" stroke-opacity="0.51"></rect>
<rect x="900.5" y="1800.5" width="99" height="99" stroke="#C5C5C5" stroke-opacity="0.51"></rect>
<rect x="1000.5" y="1800.5" width="99" height="99" stroke="#C5C5C5" stroke-opacity="0.51"></rect>
<rect x="1100.5" y="1800.5" width="99" height="99" stroke="#C5C5C5" stroke-opacity="0.51"></rect>
<rect x="1200.5" y="1800.5" width="99" height="99" stroke="#C5C5C5" stroke-opacity="0.51"></rect>
<rect x="1300.5" y="1800.5" width="99" height="99" stroke="#C5C5C5" stroke-opacity="0.51"></rect>
<rect x="1400.5" y="1800.5" width="99" height="99" stroke="#C5C5C5" stroke-opacity="0.51"></rect>
<rect x="1500.5" y="1800.5" width="99" height="99" stroke="#C5C5C5" stroke-opacity="0.51"></rect>
<rect x="1600.5" y="1800.5" width="99" height="99" stroke="#C5C5C5" stroke-opacity="0.51"></rect>
<rect x="1700.5" y="1800.5" width="99" height="99" stroke="#C5C5C5" stroke-opacity="0.51"></rect>
<rect x="1800.5" y="1800.5" width="99" height="99" stroke="#C5C5C5" stroke-opacity="0.51"></rect>
<rect x="1900.5" y="1800.5" width="99" height="99" stroke="#C5C5C5" stroke-opacity="0.51"></rect>
<rect x="0.5" y="1900.5" width="99" height="99" stroke="#C5C5C5" stroke-opacity="0.51"></rect>
<rect x="100.5" y="1900.5" width="99" height="99" stroke="#C5C5C5" stroke-opacity="0.51"></rect>
<rect x="200.5" y="1900.5" width="99" height="99" stroke="#C5C5C5" stroke-opacity="0.51"></rect>
<rect x="300.5" y="1900.5" width="99" height="99" stroke="#C5C5C5" stroke-opacity="0.51"></rect>
<rect x="400.5" y="1900.5" width="99" height="99" stroke="#C5C5C5" stroke-opacity="0.51"></rect>
<rect x="500.5" y="1900.5" width="99" height="99" stroke="#C5C5C5" stroke-opacity="0.51"></rect>
<rect x="600.5" y="1900.5" width="99" height="99" stroke="#C5C5C5" stroke-opacity="0.51"></rect>
<rect x="700.5" y="1900.5" width="99" height="99" stroke="#C5C5C5" stroke-opacity="0.51"></rect>
<rect x="800.5" y="1900.5" width="99" height="99" stroke="#C5C5C5" stroke-opacity="0.51"></rect>
<rect x="900.5" y="1900.5" width="99" height="99" stroke="#C5C5C5" stroke-opacity="0.51"></rect>
<rect x="1000.5" y="1900.5" width="99" height="99" stroke="#C5C5C5" stroke-opacity="0.51"></rect>
<rect x="1100.5" y="1900.5" width="99" height="99" stroke="#C5C5C5" stroke-opacity="0.51"></rect>
<rect x="1200.5" y="1900.5" width="99" height="99" stroke="#C5C5C5" stroke-opacity="0.51"></rect>
<rect x="1300.5" y="1900.5" width="99" height="99" stroke="#C5C5C5" stroke-opacity="0.51"></rect>
<rect x="1400.5" y="1900.5" width="99" height="99" stroke="#C5C5C5" stroke-opacity="0.51"></rect>
<rect x="1500.5" y="1900.5" width="99" height="99" stroke="#C5C5C5" stroke-opacity="0.51"></rect>
<rect x="1600.5" y="1900.5" width="99" height="99" stroke="#C5C5C5" stroke-opacity="0.51"></rect>
<rect x="1700.5" y="1900.5" width="99" height="99" stroke="#C5C5C5" stroke-opacity="0.51"></rect>
<rect x="1800.5" y="1900.5" width="99" height="99" stroke="#C5C5C5" stroke-opacity="0.51"></rect>
<rect x="1900.5" y="1900.5" width="99" height="99" stroke="#C5C5C5" stroke-opacity="0.51"></rect>
</g>
<rect width="2000" height="2000" fill="url('#paint0_radial_11_607')"></rect>
<rect y="729" width="2000" height="1271" fill="url('#paint1_linear_11_607')"></rect>
<defs>
<radialGradient id="paint0_radial_11_607" cx="0" cy="0" r="1" gradientUnits="userSpaceOnUse" gradientTransform="translate(1000 1074.25) rotate(90) scale(925.75 1101.43)">
<stop offset="0.00973505" stop-opacity="0"></stop>
<stop offset="1"></stop>
</radialGradient>
<linearGradient id="paint1_linear_11_607" x1="1000" y1="729" x2="1000" y2="2000" gradientUnits="userSpaceOnUse">
<stop stop-opacity="0"></stop>
<stop offset="0.625"></stop>
</linearGradient>
<clipPath id="clip0_11_607">
<rect width="2000" height="2000" fill="white"></rect>
</clipPath>
</defs>
</svg>
