<svg width="2000" height="2001" fill="none" xmlns="http://www.w3.org/2000/svg"><path fill="#000" d="M0 0h2000v2001H0z"/><g clip-path="url('#clip0_11_607')" stroke="#C5C5C5" stroke-opacity=".51"><path d="M.5 1.5h99v99H.5zM100.5 1.5h99v99h-99zM200.5 1.5h99v99h-99zM300.5 1.5h99v99h-99zM400.5 1.5h99v99h-99zM500.5 1.5h99v99h-99zM600.5 1.5h99v99h-99zM700.5 1.5h99v99h-99zM800.5 1.5h99v99h-99zM900.5 1.5h99v99h-99zM1000.5 1.5h99v99h-99zM1100.5 1.5h99v99h-99zM1200.5 1.5h99v99h-99zM1300.5 1.5h99v99h-99zM1400.5 1.5h99v99h-99zM1500.5 1.5h99v99h-99zM1600.5 1.5h99v99h-99zM1700.5 1.5h99v99h-99zM1800.5 1.5h99v99h-99zM1900.5 1.5h99v99h-99zM.5 101.5h99v99H.5zM100.5 101.5h99v99h-99zM200.5 101.5h99v99h-99zM300.5 101.5h99v99h-99zM400.5 101.5h99v99h-99zM500.5 101.5h99v99h-99zM600.5 101.5h99v99h-99zM700.5 101.5h99v99h-99zM800.5 101.5h99v99h-99zM900.5 101.5h99v99h-99zM1000.5 101.5h99v99h-99zM1100.5 101.5h99v99h-99zM1200.5 101.5h99v99h-99zM1300.5 101.5h99v99h-99zM1400.5 101.5h99v99h-99zM1500.5 101.5h99v99h-99zM1600.5 101.5h99v99h-99zM1700.5 101.5h99v99h-99zM1800.5 101.5h99v99h-99zM1900.5 101.5h99v99h-99zM.5 201.5h99v99H.5zM100.5 201.5h99v99h-99zM200.5 201.5h99v99h-99zM300.5 201.5h99v99h-99zM400.5 201.5h99v99h-99zM500.5 201.5h99v99h-99zM600.5 201.5h99v99h-99zM700.5 201.5h99v99h-99zM800.5 201.5h99v99h-99zM900.5 201.5h99v99h-99zM1000.5 201.5h99v99h-99zM1100.5 201.5h99v99h-99zM1200.5 201.5h99v99h-99zM1300.5 201.5h99v99h-99zM1400.5 201.5h99v99h-99zM1500.5 201.5h99v99h-99zM1600.5 201.5h99v99h-99zM1700.5 201.5h99v99h-99zM1800.5 201.5h99v99h-99zM1900.5 201.5h99v99h-99zM.5 301.5h99v99H.5zM100.5 301.5h99v99h-99zM200.5 301.5h99v99h-99zM300.5 301.5h99v99h-99zM400.5 301.5h99v99h-99zM500.5 301.5h99v99h-99zM600.5 301.5h99v99h-99zM700.5 301.5h99v99h-99zM800.5 301.5h99v99h-99zM900.5 301.5h99v99h-99zM1000.5 301.5h99v99h-99zM1100.5 301.5h99v99h-99zM1200.5 301.5h99v99h-99zM1300.5 301.5h99v99h-99zM1400.5 301.5h99v99h-99zM1500.5 301.5h99v99h-99zM1600.5 301.5h99v99h-99zM1700.5 301.5h99v99h-99zM1800.5 301.5h99v99h-99zM1900.5 301.5h99v99h-99zM.5 401.5h99v99H.5zM100.5 401.5h99v99h-99zM200.5 401.5h99v99h-99zM300.5 401.5h99v99h-99zM400.5 401.5h99v99h-99zM500.5 401.5h99v99h-99zM600.5 401.5h99v99h-99zM700.5 401.5h99v99h-99zM800.5 401.5h99v99h-99zM900.5 401.5h99v99h-99zM1000.5 401.5h99v99h-99zM1100.5 401.5h99v99h-99zM1200.5 401.5h99v99h-99zM1300.5 401.5h99v99h-99zM1400.5 401.5h99v99h-99zM1500.5 401.5h99v99h-99zM1600.5 401.5h99v99h-99zM1700.5 401.5h99v99h-99zM1800.5 401.5h99v99h-99zM1900.5 401.5h99v99h-99zM.5 501.5h99v99H.5zM100.5 501.5h99v99h-99zM200.5 501.5h99v99h-99zM300.5 501.5h99v99h-99zM400.5 501.5h99v99h-99zM500.5 501.5h99v99h-99zM600.5 501.5h99v99h-99zM700.5 501.5h99v99h-99zM800.5 501.5h99v99h-99zM900.5 501.5h99v99h-99zM1000.5 501.5h99v99h-99zM1100.5 501.5h99v99h-99zM1200.5 501.5h99v99h-99zM1300.5 501.5h99v99h-99zM1400.5 501.5h99v99h-99zM1500.5 501.5h99v99h-99zM1600.5 501.5h99v99h-99zM1700.5 501.5h99v99h-99zM1800.5 501.5h99v99h-99zM1900.5 501.5h99v99h-99zM.5 601.5h99v99H.5zM100.5 601.5h99v99h-99zM200.5 601.5h99v99h-99zM300.5 601.5h99v99h-99zM400.5 601.5h99v99h-99zM500.5 601.5h99v99h-99zM600.5 601.5h99v99h-99zM700.5 601.5h99v99h-99zM800.5 601.5h99v99h-99zM900.5 601.5h99v99h-99zM1000.5 601.5h99v99h-99zM1100.5 601.5h99v99h-99zM1200.5 601.5h99v99h-99zM1300.5 601.5h99v99h-99zM1400.5 601.5h99v99h-99zM1500.5 601.5h99v99h-99zM1600.5 601.5h99v99h-99zM1700.5 601.5h99v99h-99zM1800.5 601.5h99v99h-99zM1900.5 601.5h99v99h-99zM.5 701.5h99v99H.5zM100.5 701.5h99v99h-99zM200.5 701.5h99v99h-99zM300.5 701.5h99v99h-99zM400.5 701.5h99v99h-99zM500.5 701.5h99v99h-99zM600.5 701.5h99v99h-99zM700.5 701.5h99v99h-99zM800.5 701.5h99v99h-99zM900.5 701.5h99v99h-99zM1000.5 701.5h99v99h-99zM1100.5 701.5h99v99h-99zM1200.5 701.5h99v99h-99zM1300.5 701.5h99v99h-99zM1400.5 701.5h99v99h-99zM1500.5 701.5h99v99h-99zM1600.5 701.5h99v99h-99zM1700.5 701.5h99v99h-99zM1800.5 701.5h99v99h-99zM1900.5 701.5h99v99h-99zM.5 801.5h99v99H.5zM100.5 801.5h99v99h-99zM200.5 801.5h99v99h-99zM300.5 801.5h99v99h-99zM400.5 801.5h99v99h-99zM500.5 801.5h99v99h-99zM600.5 801.5h99v99h-99zM700.5 801.5h99v99h-99zM800.5 801.5h99v99h-99zM900.5 801.5h99v99h-99zM1000.5 801.5h99v99h-99zM1100.5 801.5h99v99h-99zM1200.5 801.5h99v99h-99zM1300.5 801.5h99v99h-99zM1400.5 801.5h99v99h-99zM1500.5 801.5h99v99h-99zM1600.5 801.5h99v99h-99zM1700.5 801.5h99v99h-99zM1800.5 801.5h99v99h-99zM1900.5 801.5h99v99h-99zM.5 901.5h99v99H.5zM100.5 901.5h99v99h-99zM200.5 901.5h99v99h-99zM300.5 901.5h99v99h-99zM400.5 901.5h99v99h-99zM500.5 901.5h99v99h-99zM600.5 901.5h99v99h-99zM700.5 901.5h99v99h-99zM800.5 901.5h99v99h-99zM900.5 901.5h99v99h-99zM1000.5 901.5h99v99h-99zM1100.5 901.5h99v99h-99zM1200.5 901.5h99v99h-99zM1300.5 901.5h99v99h-99zM1400.5 901.5h99v99h-99zM1500.5 901.5h99v99h-99zM1600.5 901.5h99v99h-99zM1700.5 901.5h99v99h-99zM1800.5 901.5h99v99h-99zM1900.5 901.5h99v99h-99zM.5 1001.5h99v99H.5zM100.5 1001.5h99v99h-99zM200.5 1001.5h99v99h-99zM300.5 1001.5h99v99h-99zM400.5 1001.5h99v99h-99zM500.5 1001.5h99v99h-99zM600.5 1001.5h99v99h-99zM700.5 1001.5h99v99h-99zM800.5 1001.5h99v99h-99zM900.5 1001.5h99v99h-99zM1000.5 1001.5h99v99h-99zM1100.5 1001.5h99v99h-99zM1200.5 1001.5h99v99h-99zM1300.5 1001.5h99v99h-99zM1400.5 1001.5h99v99h-99zM1500.5 1001.5h99v99h-99zM1600.5 1001.5h99v99h-99zM1700.5 1001.5h99v99h-99zM1800.5 1001.5h99v99h-99zM1900.5 1001.5h99v99h-99zM.5 1101.5h99v99H.5zM100.5 1101.5h99v99h-99zM200.5 1101.5h99v99h-99zM300.5 1101.5h99v99h-99zM400.5 1101.5h99v99h-99zM500.5 1101.5h99v99h-99zM600.5 1101.5h99v99h-99zM700.5 1101.5h99v99h-99zM800.5 1101.5h99v99h-99zM900.5 1101.5h99v99h-99zM1000.5 1101.5h99v99h-99zM1100.5 1101.5h99v99h-99zM1200.5 1101.5h99v99h-99zM1300.5 1101.5h99v99h-99zM1400.5 1101.5h99v99h-99zM1500.5 1101.5h99v99h-99zM1600.5 1101.5h99v99h-99zM1700.5 1101.5h99v99h-99zM1800.5 1101.5h99v99h-99zM1900.5 1101.5h99v99h-99zM.5 1201.5h99v99H.5zM100.5 1201.5h99v99h-99zM200.5 1201.5h99v99h-99zM300.5 1201.5h99v99h-99zM400.5 1201.5h99v99h-99zM500.5 1201.5h99v99h-99zM600.5 1201.5h99v99h-99zM700.5 1201.5h99v99h-99zM800.5 1201.5h99v99h-99zM900.5 1201.5h99v99h-99zM1000.5 1201.5h99v99h-99zM1100.5 1201.5h99v99h-99zM1200.5 1201.5h99v99h-99zM1300.5 1201.5h99v99h-99zM1400.5 1201.5h99v99h-99zM1500.5 1201.5h99v99h-99zM1600.5 1201.5h99v99h-99zM1700.5 1201.5h99v99h-99zM1800.5 1201.5h99v99h-99zM1900.5 1201.5h99v99h-99zM.5 1301.5h99v99H.5zM100.5 1301.5h99v99h-99zM200.5 1301.5h99v99h-99zM300.5 1301.5h99v99h-99zM400.5 1301.5h99v99h-99zM500.5 1301.5h99v99h-99zM600.5 1301.5h99v99h-99zM700.5 1301.5h99v99h-99zM800.5 1301.5h99v99h-99zM900.5 1301.5h99v99h-99zM1000.5 1301.5h99v99h-99zM1100.5 1301.5h99v99h-99zM1200.5 1301.5h99v99h-99zM1300.5 1301.5h99v99h-99zM1400.5 1301.5h99v99h-99zM1500.5 1301.5h99v99h-99zM1600.5 1301.5h99v99h-99zM1700.5 1301.5h99v99h-99zM1800.5 1301.5h99v99h-99zM1900.5 1301.5h99v99h-99zM.5 1401.5h99v99H.5zM100.5 1401.5h99v99h-99zM200.5 1401.5h99v99h-99zM300.5 1401.5h99v99h-99zM400.5 1401.5h99v99h-99zM500.5 1401.5h99v99h-99zM600.5 1401.5h99v99h-99zM700.5 1401.5h99v99h-99zM800.5 1401.5h99v99h-99zM900.5 1401.5h99v99h-99zM1000.5 1401.5h99v99h-99zM1100.5 1401.5h99v99h-99zM1200.5 1401.5h99v99h-99zM1300.5 1401.5h99v99h-99zM1400.5 1401.5h99v99h-99zM1500.5 1401.5h99v99h-99zM1600.5 1401.5h99v99h-99zM1700.5 1401.5h99v99h-99zM1800.5 1401.5h99v99h-99zM1900.5 1401.5h99v99h-99zM.5 1501.5h99v99H.5zM100.5 1501.5h99v99h-99zM200.5 1501.5h99v99h-99zM300.5 1501.5h99v99h-99zM400.5 1501.5h99v99h-99zM500.5 1501.5h99v99h-99zM600.5 1501.5h99v99h-99zM700.5 1501.5h99v99h-99zM800.5 1501.5h99v99h-99zM900.5 1501.5h99v99h-99zM1000.5 1501.5h99v99h-99zM1100.5 1501.5h99v99h-99zM1200.5 1501.5h99v99h-99zM1300.5 1501.5h99v99h-99zM1400.5 1501.5h99v99h-99zM1500.5 1501.5h99v99h-99zM1600.5 1501.5h99v99h-99zM1700.5 1501.5h99v99h-99zM1800.5 1501.5h99v99h-99zM1900.5 1501.5h99v99h-99zM.5 1601.5h99v99H.5zM100.5 1601.5h99v99h-99zM200.5 1601.5h99v99h-99zM300.5 1601.5h99v99h-99zM400.5 1601.5h99v99h-99zM500.5 1601.5h99v99h-99zM600.5 1601.5h99v99h-99zM700.5 1601.5h99v99h-99zM800.5 1601.5h99v99h-99zM900.5 1601.5h99v99h-99zM1000.5 1601.5h99v99h-99zM1100.5 1601.5h99v99h-99zM1200.5 1601.5h99v99h-99zM1300.5 1601.5h99v99h-99zM1400.5 1601.5h99v99h-99zM1500.5 1601.5h99v99h-99zM1600.5 1601.5h99v99h-99zM1700.5 1601.5h99v99h-99zM1800.5 1601.5h99v99h-99zM1900.5 1601.5h99v99h-99zM.5 1701.5h99v99H.5zM100.5 1701.5h99v99h-99zM200.5 1701.5h99v99h-99zM300.5 1701.5h99v99h-99zM400.5 1701.5h99v99h-99zM500.5 1701.5h99v99h-99zM600.5 1701.5h99v99h-99zM700.5 1701.5h99v99h-99zM800.5 1701.5h99v99h-99zM900.5 1701.5h99v99h-99zM1000.5 1701.5h99v99h-99zM1100.5 1701.5h99v99h-99zM1200.5 1701.5h99v99h-99zM1300.5 1701.5h99v99h-99zM1400.5 1701.5h99v99h-99zM1500.5 1701.5h99v99h-99zM1600.5 1701.5h99v99h-99zM1700.5 1701.5h99v99h-99zM1800.5 1701.5h99v99h-99zM1900.5 1701.5h99v99h-99zM.5 1801.5h99v99H.5zM100.5 1801.5h99v99h-99zM200.5 1801.5h99v99h-99zM300.5 1801.5h99v99h-99zM400.5 1801.5h99v99h-99zM500.5 1801.5h99v99h-99zM600.5 1801.5h99v99h-99zM700.5 1801.5h99v99h-99zM800.5 1801.5h99v99h-99zM900.5 1801.5h99v99h-99zM1000.5 1801.5h99v99h-99zM1100.5 1801.5h99v99h-99zM1200.5 1801.5h99v99h-99zM1300.5 1801.5h99v99h-99zM1400.5 1801.5h99v99h-99zM1500.5 1801.5h99v99h-99zM1600.5 1801.5h99v99h-99zM1700.5 1801.5h99v99h-99zM1800.5 1801.5h99v99h-99zM1900.5 1801.5h99v99h-99zM.5 1901.5h99v99H.5zM100.5 1901.5h99v99h-99zM200.5 1901.5h99v99h-99zM300.5 1901.5h99v99h-99zM400.5 1901.5h99v99h-99zM500.5 1901.5h99v99h-99zM600.5 1901.5h99v99h-99zM700.5 1901.5h99v99h-99zM800.5 1901.5h99v99h-99zM900.5 1901.5h99v99h-99zM1000.5 1901.5h99v99h-99zM1100.5 1901.5h99v99h-99zM1200.5 1901.5h99v99h-99zM1300.5 1901.5h99v99h-99zM1400.5 1901.5h99v99h-99zM1500.5 1901.5h99v99h-99zM1600.5 1901.5h99v99h-99zM1700.5 1901.5h99v99h-99zM1800.5 1901.5h99v99h-99zM1900.5 1901.5h99v99h-99z"/></g><path fill="url('#paint0_radial_11_607')" d="M0 1h2000v2000H0z"/><path fill="url('#paint1_linear_11_607')" d="M0 700h2000v1300H0z"/><path transform="matrix(1 0 0 -1 0 1300)" fill="url('#paint2_linear_11_607')" d="M0 0h2000v1300H0z"/><defs><linearGradient id="paint1_linear_11_607" x1="1000" y1="700" x2="1000" y2="2000" gradientUnits="userSpaceOnUse"><stop stop-opacity="0"/><stop offset=".625"/></linearGradient><linearGradient id="paint2_linear_11_607" x1="1000" y1="0" x2="1000" y2="1300" gradientUnits="userSpaceOnUse"><stop stop-opacity="0"/><stop offset=".625"/></linearGradient><radialGradient id="paint0_radial_11_607" cx="0" cy="0" r="1" gradientUnits="userSpaceOnUse" gradientTransform="matrix(0 925.75 -1101.43 0 1000 1075.25)"><stop offset=".01" stop-opacity="0"/><stop offset="1"/></radialGradient><clipPath id="clip0_11_607"><path fill="#fff" transform="translate(0 1)" d="M0 0h2000v2000H0z"/></clipPath></defs></svg>