<svg width="2000" height="2000" fill="none" xmlns="http://www.w3.org/2000/svg"><path fill="#000" d="M0 0h2000v2000H0z"/><g clip-path="url('#clip0_11_607')" stroke="#C5C5C5" stroke-opacity=".51"><path d="M.5.5h99v99H.5zM100.5.5h99v99h-99zM200.5.5h99v99h-99zM300.5.5h99v99h-99zM400.5.5h99v99h-99zM500.5.5h99v99h-99zM600.5.5h99v99h-99zM700.5.5h99v99h-99zM800.5.5h99v99h-99zM900.5.5h99v99h-99zM1000.5.5h99v99h-99zM1100.5.5h99v99h-99zM1200.5.5h99v99h-99zM1300.5.5h99v99h-99zM1400.5.5h99v99h-99zM1500.5.5h99v99h-99zM1600.5.5h99v99h-99zM1700.5.5h99v99h-99zM1800.5.5h99v99h-99zM1900.5.5h99v99h-99zM.5 100.5h99v99H.5zM100.5 100.5h99v99h-99zM200.5 100.5h99v99h-99zM300.5 100.5h99v99h-99zM400.5 100.5h99v99h-99zM500.5 100.5h99v99h-99zM600.5 100.5h99v99h-99zM700.5 100.5h99v99h-99zM800.5 100.5h99v99h-99zM900.5 100.5h99v99h-99zM1000.5 100.5h99v99h-99zM1100.5 100.5h99v99h-99zM1200.5 100.5h99v99h-99zM1300.5 100.5h99v99h-99zM1400.5 100.5h99v99h-99zM1500.5 100.5h99v99h-99zM1600.5 100.5h99v99h-99zM1700.5 100.5h99v99h-99zM1800.5 100.5h99v99h-99zM1900.5 100.5h99v99h-99zM.5 200.5h99v99H.5zM100.5 200.5h99v99h-99zM200.5 200.5h99v99h-99zM300.5 200.5h99v99h-99zM400.5 200.5h99v99h-99zM500.5 200.5h99v99h-99zM600.5 200.5h99v99h-99zM700.5 200.5h99v99h-99zM800.5 200.5h99v99h-99zM900.5 200.5h99v99h-99zM1000.5 200.5h99v99h-99zM1100.5 200.5h99v99h-99zM1200.5 200.5h99v99h-99zM1300.5 200.5h99v99h-99zM1400.5 200.5h99v99h-99zM1500.5 200.5h99v99h-99zM1600.5 200.5h99v99h-99zM1700.5 200.5h99v99h-99zM1800.5 200.5h99v99h-99zM1900.5 200.5h99v99h-99zM.5 300.5h99v99H.5zM100.5 300.5h99v99h-99zM200.5 300.5h99v99h-99zM300.5 300.5h99v99h-99zM400.5 300.5h99v99h-99zM500.5 300.5h99v99h-99zM600.5 300.5h99v99h-99zM700.5 300.5h99v99h-99zM800.5 300.5h99v99h-99zM900.5 300.5h99v99h-99zM1000.5 300.5h99v99h-99zM1100.5 300.5h99v99h-99zM1200.5 300.5h99v99h-99zM1300.5 300.5h99v99h-99zM1400.5 300.5h99v99h-99zM1500.5 300.5h99v99h-99zM1600.5 300.5h99v99h-99zM1700.5 300.5h99v99h-99zM1800.5 300.5h99v99h-99zM1900.5 300.5h99v99h-99zM.5 400.5h99v99H.5zM100.5 400.5h99v99h-99zM200.5 400.5h99v99h-99zM300.5 400.5h99v99h-99zM400.5 400.5h99v99h-99zM500.5 400.5h99v99h-99zM600.5 400.5h99v99h-99zM700.5 400.5h99v99h-99zM800.5 400.5h99v99h-99zM900.5 400.5h99v99h-99zM1000.5 400.5h99v99h-99zM1100.5 400.5h99v99h-99zM1200.5 400.5h99v99h-99zM1300.5 400.5h99v99h-99zM1400.5 400.5h99v99h-99zM1500.5 400.5h99v99h-99zM1600.5 400.5h99v99h-99zM1700.5 400.5h99v99h-99zM1800.5 400.5h99v99h-99zM1900.5 400.5h99v99h-99zM.5 500.5h99v99H.5zM100.5 500.5h99v99h-99zM200.5 500.5h99v99h-99zM300.5 500.5h99v99h-99zM400.5 500.5h99v99h-99zM500.5 500.5h99v99h-99zM600.5 500.5h99v99h-99zM700.5 500.5h99v99h-99zM800.5 500.5h99v99h-99zM900.5 500.5h99v99h-99zM1000.5 500.5h99v99h-99zM1100.5 500.5h99v99h-99zM1200.5 500.5h99v99h-99zM1300.5 500.5h99v99h-99zM1400.5 500.5h99v99h-99zM1500.5 500.5h99v99h-99zM1600.5 500.5h99v99h-99zM1700.5 500.5h99v99h-99zM1800.5 500.5h99v99h-99zM1900.5 500.5h99v99h-99zM.5 600.5h99v99H.5zM100.5 600.5h99v99h-99zM200.5 600.5h99v99h-99zM300.5 600.5h99v99h-99zM400.5 600.5h99v99h-99zM500.5 600.5h99v99h-99zM600.5 600.5h99v99h-99zM700.5 600.5h99v99h-99zM800.5 600.5h99v99h-99zM900.5 600.5h99v99h-99zM1000.5 600.5h99v99h-99zM1100.5 600.5h99v99h-99zM1200.5 600.5h99v99h-99zM1300.5 600.5h99v99h-99zM1400.5 600.5h99v99h-99zM1500.5 600.5h99v99h-99zM1600.5 600.5h99v99h-99zM1700.5 600.5h99v99h-99zM1800.5 600.5h99v99h-99zM1900.5 600.5h99v99h-99zM.5 700.5h99v99H.5zM100.5 700.5h99v99h-99zM200.5 700.5h99v99h-99zM300.5 700.5h99v99h-99zM400.5 700.5h99v99h-99zM500.5 700.5h99v99h-99zM600.5 700.5h99v99h-99zM700.5 700.5h99v99h-99zM800.5 700.5h99v99h-99zM900.5 700.5h99v99h-99zM1000.5 700.5h99v99h-99zM1100.5 700.5h99v99h-99zM1200.5 700.5h99v99h-99zM1300.5 700.5h99v99h-99zM1400.5 700.5h99v99h-99zM1500.5 700.5h99v99h-99zM1600.5 700.5h99v99h-99zM1700.5 700.5h99v99h-99zM1800.5 700.5h99v99h-99zM1900.5 700.5h99v99h-99zM.5 800.5h99v99H.5zM100.5 800.5h99v99h-99zM200.5 800.5h99v99h-99zM300.5 800.5h99v99h-99zM400.5 800.5h99v99h-99zM500.5 800.5h99v99h-99zM600.5 800.5h99v99h-99zM700.5 800.5h99v99h-99zM800.5 800.5h99v99h-99zM900.5 800.5h99v99h-99zM1000.5 800.5h99v99h-99zM1100.5 800.5h99v99h-99zM1200.5 800.5h99v99h-99zM1300.5 800.5h99v99h-99zM1400.5 800.5h99v99h-99zM1500.5 800.5h99v99h-99zM1600.5 800.5h99v99h-99zM1700.5 800.5h99v99h-99zM1800.5 800.5h99v99h-99zM1900.5 800.5h99v99h-99zM.5 900.5h99v99H.5zM100.5 900.5h99v99h-99zM200.5 900.5h99v99h-99zM300.5 900.5h99v99h-99zM400.5 900.5h99v99h-99zM500.5 900.5h99v99h-99zM600.5 900.5h99v99h-99zM700.5 900.5h99v99h-99zM800.5 900.5h99v99h-99zM900.5 900.5h99v99h-99zM1000.5 900.5h99v99h-99zM1100.5 900.5h99v99h-99zM1200.5 900.5h99v99h-99zM1300.5 900.5h99v99h-99zM1400.5 900.5h99v99h-99zM1500.5 900.5h99v99h-99zM1600.5 900.5h99v99h-99zM1700.5 900.5h99v99h-99zM1800.5 900.5h99v99h-99zM1900.5 900.5h99v99h-99zM.5 1000.5h99v99H.5zM100.5 1000.5h99v99h-99zM200.5 1000.5h99v99h-99zM300.5 1000.5h99v99h-99zM400.5 1000.5h99v99h-99zM500.5 1000.5h99v99h-99zM600.5 1000.5h99v99h-99zM700.5 1000.5h99v99h-99zM800.5 1000.5h99v99h-99zM900.5 1000.5h99v99h-99zM1000.5 1000.5h99v99h-99zM1100.5 1000.5h99v99h-99zM1200.5 1000.5h99v99h-99zM1300.5 1000.5h99v99h-99zM1400.5 1000.5h99v99h-99zM1500.5 1000.5h99v99h-99zM1600.5 1000.5h99v99h-99zM1700.5 1000.5h99v99h-99zM1800.5 1000.5h99v99h-99zM1900.5 1000.5h99v99h-99zM.5 1100.5h99v99H.5zM100.5 1100.5h99v99h-99zM200.5 1100.5h99v99h-99zM300.5 1100.5h99v99h-99zM400.5 1100.5h99v99h-99zM500.5 1100.5h99v99h-99zM600.5 1100.5h99v99h-99zM700.5 1100.5h99v99h-99zM800.5 1100.5h99v99h-99zM900.5 1100.5h99v99h-99zM1000.5 1100.5h99v99h-99zM1100.5 1100.5h99v99h-99zM1200.5 1100.5h99v99h-99zM1300.5 1100.5h99v99h-99zM1400.5 1100.5h99v99h-99zM1500.5 1100.5h99v99h-99zM1600.5 1100.5h99v99h-99zM1700.5 1100.5h99v99h-99zM1800.5 1100.5h99v99h-99zM1900.5 1100.5h99v99h-99zM.5 1200.5h99v99H.5zM100.5 1200.5h99v99h-99zM200.5 1200.5h99v99h-99zM300.5 1200.5h99v99h-99zM400.5 1200.5h99v99h-99zM500.5 1200.5h99v99h-99zM600.5 1200.5h99v99h-99zM700.5 1200.5h99v99h-99zM800.5 1200.5h99v99h-99zM900.5 1200.5h99v99h-99zM1000.5 1200.5h99v99h-99zM1100.5 1200.5h99v99h-99zM1200.5 1200.5h99v99h-99zM1300.5 1200.5h99v99h-99zM1400.5 1200.5h99v99h-99zM1500.5 1200.5h99v99h-99zM1600.5 1200.5h99v99h-99zM1700.5 1200.5h99v99h-99zM1800.5 1200.5h99v99h-99zM1900.5 1200.5h99v99h-99zM.5 1300.5h99v99H.5zM100.5 1300.5h99v99h-99zM200.5 1300.5h99v99h-99zM300.5 1300.5h99v99h-99zM400.5 1300.5h99v99h-99zM500.5 1300.5h99v99h-99zM600.5 1300.5h99v99h-99zM700.5 1300.5h99v99h-99zM800.5 1300.5h99v99h-99zM900.5 1300.5h99v99h-99zM1000.5 1300.5h99v99h-99zM1100.5 1300.5h99v99h-99zM1200.5 1300.5h99v99h-99zM1300.5 1300.5h99v99h-99zM1400.5 1300.5h99v99h-99zM1500.5 1300.5h99v99h-99zM1600.5 1300.5h99v99h-99zM1700.5 1300.5h99v99h-99zM1800.5 1300.5h99v99h-99zM1900.5 1300.5h99v99h-99zM.5 1400.5h99v99H.5zM100.5 1400.5h99v99h-99zM200.5 1400.5h99v99h-99zM300.5 1400.5h99v99h-99zM400.5 1400.5h99v99h-99zM500.5 1400.5h99v99h-99zM600.5 1400.5h99v99h-99zM700.5 1400.5h99v99h-99zM800.5 1400.5h99v99h-99zM900.5 1400.5h99v99h-99zM1000.5 1400.5h99v99h-99zM1100.5 1400.5h99v99h-99zM1200.5 1400.5h99v99h-99zM1300.5 1400.5h99v99h-99zM1400.5 1400.5h99v99h-99zM1500.5 1400.5h99v99h-99zM1600.5 1400.5h99v99h-99zM1700.5 1400.5h99v99h-99zM1800.5 1400.5h99v99h-99zM1900.5 1400.5h99v99h-99zM.5 1500.5h99v99H.5zM100.5 1500.5h99v99h-99zM200.5 1500.5h99v99h-99zM300.5 1500.5h99v99h-99zM400.5 1500.5h99v99h-99zM500.5 1500.5h99v99h-99zM600.5 1500.5h99v99h-99zM700.5 1500.5h99v99h-99zM800.5 1500.5h99v99h-99zM900.5 1500.5h99v99h-99zM1000.5 1500.5h99v99h-99zM1100.5 1500.5h99v99h-99zM1200.5 1500.5h99v99h-99zM1300.5 1500.5h99v99h-99zM1400.5 1500.5h99v99h-99zM1500.5 1500.5h99v99h-99zM1600.5 1500.5h99v99h-99zM1700.5 1500.5h99v99h-99zM1800.5 1500.5h99v99h-99zM1900.5 1500.5h99v99h-99zM.5 1600.5h99v99H.5zM100.5 1600.5h99v99h-99zM200.5 1600.5h99v99h-99zM300.5 1600.5h99v99h-99zM400.5 1600.5h99v99h-99zM500.5 1600.5h99v99h-99zM600.5 1600.5h99v99h-99zM700.5 1600.5h99v99h-99zM800.5 1600.5h99v99h-99zM900.5 1600.5h99v99h-99zM1000.5 1600.5h99v99h-99zM1100.5 1600.5h99v99h-99zM1200.5 1600.5h99v99h-99zM1300.5 1600.5h99v99h-99zM1400.5 1600.5h99v99h-99zM1500.5 1600.5h99v99h-99zM1600.5 1600.5h99v99h-99zM1700.5 1600.5h99v99h-99zM1800.5 1600.5h99v99h-99zM1900.5 1600.5h99v99h-99zM.5 1700.5h99v99H.5zM100.5 1700.5h99v99h-99zM200.5 1700.5h99v99h-99zM300.5 1700.5h99v99h-99zM400.5 1700.5h99v99h-99zM500.5 1700.5h99v99h-99zM600.5 1700.5h99v99h-99zM700.5 1700.5h99v99h-99zM800.5 1700.5h99v99h-99zM900.5 1700.5h99v99h-99zM1000.5 1700.5h99v99h-99zM1100.5 1700.5h99v99h-99zM1200.5 1700.5h99v99h-99zM1300.5 1700.5h99v99h-99zM1400.5 1700.5h99v99h-99zM1500.5 1700.5h99v99h-99zM1600.5 1700.5h99v99h-99zM1700.5 1700.5h99v99h-99zM1800.5 1700.5h99v99h-99zM1900.5 1700.5h99v99h-99zM.5 1800.5h99v99H.5zM100.5 1800.5h99v99h-99zM200.5 1800.5h99v99h-99zM300.5 1800.5h99v99h-99zM400.5 1800.5h99v99h-99zM500.5 1800.5h99v99h-99zM600.5 1800.5h99v99h-99zM700.5 1800.5h99v99h-99zM800.5 1800.5h99v99h-99zM900.5 1800.5h99v99h-99zM1000.5 1800.5h99v99h-99zM1100.5 1800.5h99v99h-99zM1200.5 1800.5h99v99h-99zM1300.5 1800.5h99v99h-99zM1400.5 1800.5h99v99h-99zM1500.5 1800.5h99v99h-99zM1600.5 1800.5h99v99h-99zM1700.5 1800.5h99v99h-99zM1800.5 1800.5h99v99h-99zM1900.5 1800.5h99v99h-99zM.5 1900.5h99v99H.5zM100.5 1900.5h99v99h-99zM200.5 1900.5h99v99h-99zM300.5 1900.5h99v99h-99zM400.5 1900.5h99v99h-99zM500.5 1900.5h99v99h-99zM600.5 1900.5h99v99h-99zM700.5 1900.5h99v99h-99zM800.5 1900.5h99v99h-99zM900.5 1900.5h99v99h-99zM1000.5 1900.5h99v99h-99zM1100.5 1900.5h99v99h-99zM1200.5 1900.5h99v99h-99zM1300.5 1900.5h99v99h-99zM1400.5 1900.5h99v99h-99zM1500.5 1900.5h99v99h-99zM1600.5 1900.5h99v99h-99zM1700.5 1900.5h99v99h-99zM1800.5 1900.5h99v99h-99zM1900.5 1900.5h99v99h-99z"/></g><path fill="url('#paint0_radial_11_607')" d="M0 0h2000v2000H0z"/><path fill="url('#paint1_linear_11_607')" d="M0 729h2000v1271H0z"/><defs><radialGradient id="paint0_radial_11_607" cx="0" cy="0" r="1" gradientUnits="userSpaceOnUse" gradientTransform="matrix(0 925.75 -1101.43 0 1000 1074.25)"><stop offset=".01" stop-opacity="0"/><stop offset="1"/></radialGradient><linearGradient id="paint1_linear_11_607" x1="1000" y1="729" x2="1000" y2="2000" gradientUnits="userSpaceOnUse"><stop stop-opacity="0"/><stop offset=".625"/></linearGradient><clipPath id="clip0_11_607"><path fill="#fff" d="M0 0h2000v2000H0z"/></clipPath></defs></svg>