<svg xmlns="http://www.w3.org/2000/svg" width="725.48" height="267.923" viewBox="0 0 544.11 200.942"><g id="layer_1"><path transform="matrix(1 0 0 -1 1 199.942)" d="M179.928 98.774c-9.761-36.244-.39-62.44 28.113-78.588-17.787 22.753-21.43 50.91-10.93 84.471L90.007 159.423c2.67-17.452 11.695-29.26 27.073-35.422l62.848-25.227" fill="#e3000f" fill-rule="evenodd"/><path transform="matrix(1 0 0 -1 1 199.942)" d="m167.42 80.896-.174 16.229L6.703 154.19c4.344-24.594 18.256-39.373 41.735-44.339L167.42 80.896M29.752 107.68l137.516-29.55.02-15.153-90.343 6.466C57.459 72.72 41.729 85.464 29.752 107.68M172.308 45.628c-2.696 4.333-4.01 8.887-3.943 13.662l-91.82 6.76c13.154-15.187 23.347-22.577 30.577-22.17l65.186 1.748M182.054 32.714c-3.371 3.891-5.753 7.153-7.144 9.783l-45.233-3.7c.304-10.152 12.315-14.228 36.033-12.226 7.58.87 13.027 2.917 16.344 6.143M166.162 23.132c8.555 1.7 14.65 3.89 18.288 6.569l9.945-9.297c-10.642-9.061-20.054-8.152-28.233 2.728M22.838 154.582c-16.22 7.413-23.8 22.2-22.74 44.36l82.474-36.977c1.467-14.4 6.177-25.756 14.13-34.07l-73.864 26.687M270.145 146.176c40.366 0 73.089-32.722 73.089-73.088C343.234 32.723 310.51 0 270.145 0c-40.365 0-73.088 32.723-73.088 73.088 0 40.366 32.723 73.088 73.088 73.088" fill="#e3000f" fill-rule="evenodd"/><path transform="matrix(1 0 0 -1 1 199.942)" d="M362.182 98.774c9.761-36.244.39-62.44-28.113-78.588 17.787 22.753 21.43 50.91 10.93 84.471l107.105 54.766c-2.671-17.452-11.696-29.26-27.074-35.422l-62.848-25.227" fill="#e3000f" fill-rule="evenodd"/><path transform="matrix(1 0 0 -1 1 199.942)" d="m374.69 80.896.174 16.229 160.543 57.066c-4.344-24.594-18.255-39.373-41.735-44.339L374.69 80.896M512.358 107.68 374.842 78.13l-.02-15.153 90.343 6.466c19.486 3.276 35.217 16.021 47.193 38.237M369.802 45.628c2.696 4.333 4.01 8.887 3.943 13.662l91.82 6.76c-13.154-15.187-23.347-22.577-30.577-22.17l-65.186 1.748M360.056 32.714c3.371 3.891 5.753 7.153 7.144 9.783l45.233-3.7c-.304-10.152-12.315-14.228-36.033-12.226-7.58.87-13.027 2.917-16.344 6.143M375.948 23.132c-8.555 1.7-14.65 3.89-18.288 6.569l-9.945-9.297c10.642-9.061 20.054-8.152 28.233 2.728M519.272 154.582c16.22 7.413 23.8 22.2 22.74 44.36l-82.474-36.977c-1.467-14.4-6.177-25.756-14.13-34.07l73.864 26.687" fill="#e3000f" fill-rule="evenodd"/><path transform="matrix(1 0 0 -1 1 199.942)" d="M223.194 72.645h-7.797V94.94h-8.111l1.763 6.74h20.532l1.724-6.74h-8.11Zm24.96 29.034h4.67l1.762-6.543h-5.916c-2.847 0-5.094-.523-6.74-1.567-1.645-1.04-2.9-2.724-3.768-5.055h7.406v5.446h7.85V72.645h-7.85v9.169h-8.183c0-.777.072-1.522.209-2.227.137-.712.36-1.522.647-2.443.496-1.489 1.201-2.984 2.116-4.493l-6.191-4.075c-1.542 2.377-2.704 4.774-3.488 7.203-.783 2.43-1.175 4.846-1.175 7.256 0 2.756.457 5.348 1.378 7.784.92 2.436 2.227 4.5 3.925 6.197 1.567 1.568 3.454 2.737 5.668 3.507 2.214.771 4.774 1.156 7.68 1.156Zm23.79-29.034h-7.797V94.94h-8.11l1.763 6.74h20.532l1.724-6.74h-8.111Zm24.96 29.034h4.67l1.763-6.543h-5.917c-2.847 0-5.094-.523-6.74-1.567-1.645-1.04-2.899-2.724-3.767-5.055h7.405v5.446h7.85V72.645h-7.85v9.169h-8.183c0-.777.072-1.522.21-2.227.137-.712.359-1.522.646-2.443.496-1.489 1.202-2.984 2.116-4.493l-6.19-4.075c-1.542 2.377-2.705 4.774-3.488 7.203-.784 2.43-1.176 4.846-1.176 7.256 0 2.756.457 5.348 1.378 7.784.921 2.436 2.227 4.5 3.925 6.197 1.567 1.568 3.454 2.737 5.668 3.507 2.214.771 4.774 1.156 7.68 1.156Zm10.704-7.719h7.797V72.645h-7.797Zm16.999-8.862a69.868 69.868 0 0 1 4.016-6.654c1.391-2.031 2.847-3.847 4.382-5.453l-6.204-4.61c-2.168 2.435-4.18 5.139-6.04 8.11-1.816 2.919-3.547 6.224-5.206 9.907 2.351 1.515 4.063 2.84 5.133 3.964 1.078 1.13 1.613 2.129 1.613 2.997 0 .55-.195.98-.594 1.3-.392.32-.947.477-1.665.477h-13.806l1.764 6.543h13.603c2.906 0 5.165-.646 6.778-1.94 1.613-1.292 2.423-3.101 2.423-5.42 0-1.802-.51-3.454-1.521-4.963-1.013-1.515-2.574-2.932-4.676-4.258Zm-86.373-41.86c0-1.378.137-2.743.412-4.101a18.769 18.769 0 0 1 1.234-3.893c.496-1.142 1.071-2.03 1.71-2.664.647-.633 1.307-.947 1.98-.947.45 0 .894.144 1.338.431.451.287.836.68 1.17 1.176.855 1.325 1.534 2.853 2.03 4.578.497 1.73.745 3.467.745 5.21 0 1.954-.392 3.318-1.169 4.108-.777.79-2.149 1.189-4.114 1.189-1.96 0-3.344-.385-4.14-1.156-.797-.77-1.196-2.083-1.196-3.931Zm5.335 11.787c4.52 0 7.844-.914 9.973-2.736 2.129-1.822 3.193-4.689 3.193-8.588 0-2.716-.424-5.367-1.28-7.94-.855-2.58-2.037-4.787-3.54-6.642-1.136-1.385-2.396-2.442-3.78-3.154-1.385-.712-2.907-1.071-4.565-1.071-1.679 0-3.22.346-4.61 1.044-1.392.693-2.652 1.757-3.788 3.18-1.502 1.882-2.685 4.096-3.54 6.662a24.845 24.845 0 0 0-1.28 7.921c0 3.886 1.071 6.746 3.206 8.581 2.136 1.83 5.473 2.743 10.012 2.743Zm30.165-29.387h-7.797v22.295h-8.111l1.763 6.74h20.532l1.724-6.74h-8.111Zm17.077 17.6c0-1.378.138-2.743.412-4.101a18.751 18.751 0 0 1 1.234-3.893c.496-1.142 1.071-2.03 1.71-2.664.648-.633 1.307-.947 1.98-.947.45 0 .894.144 1.339.431.45.287.836.68 1.169 1.176.855 1.325 1.534 2.853 2.03 4.578.497 1.73.745 3.467.745 5.21 0 1.954-.392 3.318-1.169 4.108-.777.79-2.149 1.189-4.114 1.189-1.96 0-3.344-.385-4.14-1.156-.797-.77-1.196-2.083-1.196-3.931Zm5.336 11.787c4.519 0 7.843-.914 9.972-2.736 2.129-1.822 3.193-4.689 3.193-8.588 0-2.716-.424-5.367-1.28-7.94-.855-2.58-2.037-4.787-3.54-6.642-1.136-1.385-2.396-2.442-3.78-3.154-1.385-.712-2.906-1.071-4.565-1.071-1.679 0-3.22.346-4.61 1.044-1.392.693-2.652 1.757-3.788 3.18-1.502 1.882-2.685 4.096-3.54 6.662a24.845 24.845 0 0 0-1.28 7.921c0 3.886 1.071 6.746 3.206 8.581 2.136 1.83 5.473 2.743 10.012 2.743" fill="#fff"/></g></svg>